<svg width="304" height="304" xmlns="http://www.w3.org/2000/svg" viewBox="0 0 100 100">
	<rect fill="#FFFFFF" width="100" height="100"/>
	<path fill="#B0B0B0" d="M10.528,100c0-5.017,0.055-10.035-0.02-15.051c-0.053-3.551,1.021-6.745,2.813-9.719c3.499-5.806,8.738-9.481,14.937-11.922c7.358-2.898,15.06-3.707,22.887-3.68c6.353,0.022,12.631,0.668,18.729,2.557c5.877,1.82,11.185,4.616,15.339,9.274c2.902,3.254,4.923,6.965,5.504,11.356c0.068,0.514,0.086,1.038,0.086,1.557c0.008,5.209,0.008,10.418,0.011,15.626C64.052,100,37.29,100,10.528,100z"/>
	<path fill="#B0B0B0" d="M26.538,29.609C27.041,16.044,38.173,5.81,51.291,6.139C65.271,6.489,75.5,18.005,74.97,31.243c-0.559,13.954-12.195,23.9-25.228,23.296C35.853,53.895,26.183,42.377,26.538,29.609z"/>
</svg>