<svg width="1024" height="700" xmlns="http://www.w3.org/2000/svg" xmlns:xlink="http://www.w3.org/1999/xlink"><defs><path id="a" d="M0 0h1024v700H0z"/></defs><g fill="none" fill-rule="evenodd"><mask id="b" fill="#fff"><use xlink:href="#a"/></mask><g mask="url(#b)" stroke="#FFF" stroke-linecap="round" stroke-linejoin="round" stroke-width=".5"><path d="M1765.885-109.165c-8.761-2.867-17.442-6.227-26.433-8.262-4.372-.989-8.822-1.58-13.115-2.9-2.598-.8-10.35-5.464-12.369-4.76-2.267.79-7.147 8.886-9.362 10.721-3.747 3.105-8.146 5.462-12.606 7.24-9.106 3.631-18.733 4.152-25.923 11.598-6.88 7.126-8.887 17.529-12.303 26.616-3.404 9.056-7.25 18.467-12.243 26.733-11.693 19.356-33.318 12.313-49.025 24.188-7.654 5.787-13.245 15.532-13.755 25.264-.544 10.377 3.182 19.375-.41 29.6-3.024 8.61-9.153 16.672-4.564 25.754 4.233 8.378 13.185 12.158 19.453 18.521 12.45 12.642.317 40.2-3.823 54.6-2.793 9.712-3.58 19.146-4.924 29.109-1.316 9.763-4.034 19.38-4.274 29.282-.26 10.698 3.127 18.156 7.263 27.635 3.833 8.786 5.825 17.827 11.443 25.739 5.574 7.85 12.365 14.498 17.296 22.866 5.22 8.854 8.254 18.42 9.723 28.62 1.46 10.139 2.597 19.276 8.32 27.948 5.315 8.053 11.49 15.624 17.785 22.884 12.246 14.12 27.866 25.965 34.967 44.003 3.579 9.09 6.941 19.146 8.63 28.788 1.715 9.787.262 19.766.088 29.628-.353 20.085-.875 40.025-19.898 51.237-16.508 9.729-36.43 7.907-54.613 6.462-9.779-.778-19.707-.695-29.416-2.143-9.398-1.401-18.691-4.781-27.722-7.769-8.903-2.944-17.62-8.74-27.035-9.722-9.402-.98-17.884 3.98-26.609 6.712-8.908 2.79-18.225 3.122-27.445 3.773-9.815.692-19.52 1.627-28.9-1.992-9.068-3.499-16.57-10.262-25.294-14.514-8.57-4.176-17.893-7.148-27.18-9.115-17.847-3.779-37.233-5.519-55.44-5.924-18.526-.412-39.3 1.832-56.366 9.637-9.057 4.142-17.25 7.957-27.257 8.944-9.46.934-19.06.721-28.538.104-18.866-1.23-36.262-3.059-55.139-.38-19.084 2.708-38.633 5.701-57.895 3.405-9.715-1.158-18.864-2.702-28.344.63-9.128 3.21-16.846 7.845-26.824 6.415-9.565-1.371-18.031-4.875-27.388-.249-8.421 4.164-13.37 12.796-17.49 21.016-2.512 5.008-4.4 8.738.756 12.558 3.728 2.762 9.796 2.842 14.151 3.446 10.95 1.517 16.053 6.457 23.26 14.675 13.623 15.535 33.508 16.814 51.902 22.929 17.738 5.896 34.978 13.725 53.675 15.43 20.251 1.845 36.565 6.98 54.93 15.788 8.768 4.206 17.781 7.65 27.618 7.306 10.958-.383 16.641-5.78 25.472-11.363 15.253-9.642 36.334 6.619 52.15 9.447 9.135 1.634 18.518.978 27.622 2.734 9.4 1.812 17.743 6.662 26.144 11.127 8.59 4.566 17.491 8.988 27.288 9.513 9.697.52 18.995-2.876 28.402-4.817 18-3.715 37.915-5.833 56.18-3.133 9.402 1.389 18.266 4.66 25.727 10.796 7.58 6.234 13.2 14.006 22.248 18.179 9.035 4.166 17.724 6.638 26.066 12.428 8.017 5.564 16.415 11.136 23.993 17.309 7.964 6.487 9.552 15.392 14.449 24.002 4.622 8.127 12.58 13.792 17.826 21.598 11.29 16.802 20.19 32.741 23.557 53.078 3.155 19.063 8.526 39.477 4.484 58.8-1.918 9.17-6.412 17.514-8.435 26.64-2.038 9.195-1.285 18.805-1.116 28.152"/><path d="M1515.242-177.985c10.031 5.213 20.044 9.407 30.878 12.51 10.77 3.084 21.2 7.746 32.026 10.478 21.267 5.366 44.81-12.472 65.222-.19 11.196 6.738 4.045 19.8-1.503 28.392-7.31 11.32-17.132 6.79-28.323 6.049-5.756-.382-11.587 1.186-17.091-.898-4.9-1.856-7.735-10.095-11.646-4.302-3.703 5.486-3.418 9.239-9.792 12.75-5 2.754-10.732 3.663-16.132 5.265-11.786 3.497-18.236 8.31-19.024 21.453-.527 8.787 1.581 26.411-10.95 25.907-5.145-.208-10.146-3.463-15.275-3.592-7.67-.192-7.766 7.137-9.31 13.195-2.886 11.333-10.796 17.896-16.634 27.48-3.355 5.505-4.04 9.675-10.864 6.068-4.934-2.607-8.797-8.534-14.316-9.965-10.27-2.664-9.01 21.516-9.079 28.137-.115 11.148.275 23.131-5.517 33.02-4.929 8.414-19.397 17.207-15.657 28.205 3.263 9.593 13.723 19.616 20.086 27.235 6.709 8.032 20.68 13.4 22.828 24.463 1.888 9.723-3.91 26.895 8.64 31.775 5.316 2.066 11.947-2.332 16.564-4.518 5.368-2.542 9.908-3.598 15.773-3.975 4.781-.307 11.126-2.835 15.448-2.04 5.482 1.008 9.984 8.554 13.394 12.627 8.028 9.588 10.819 18.518 6.088 30.637-4.016 10.289-11.886 18.642-15.624 28.99-5.308 14.695 8.128 14.972 18.41 17.901 10.924 3.113 13.015 17.013 21.45 24.153 8.95 7.576 15.453 15.24 22.767 24.484 7.305 9.233 13.237 17.857 15.783 29.674 2.49 11.552 4.23 22.379 11.014 32.315 6.57 9.625 16.318 15.658 24.36 23.777 8.231 8.311 11.57 19.003 18.118 28.472 6.682 9.662 12.284 18.746 12.661 31.027.353 11.47-4.17 22.198-5.468 33.477-1.437 12.477-1.483 22.737-12.075 30.787-8.759 6.657-18.682 11.395-29.756 10.23-11.25-1.183-21.707-5.471-33.14-6.018-10.986-.525-21.785-.637-32.643-2.698-10.753-2.042-21.121-5.8-31.592-8.969-10.846-3.282-21.474-6.975-32.03-.977-9.93 5.643-16.68 14.791-28.948 14.814-11.85.023-21.459-6.535-30.771-13.242-18.265-13.155-41.416-16.224-62.846-21.116-21.958-5.013-43.745-5.175-65.71.004-22.033 5.195-40.99 13.775-64.11 12.81-22.379-.935-43.848-1.374-66.216.597-21.586 1.902-43.789 3.813-65.417 1.799-10.982-1.023-21.796-2.317-32.83-2.686-11.238-.375-21.612-2.978-32.648-4.718-11.307-1.782-22.034.435-32.691 4.404-11.285 4.204-18.587 11.091-28.061 18.195-8.846 6.632-20.366 11.288-22.772 23.555-2.32 11.833 2.908 23.803 10.622 32.302 7.482 8.244 16.845 14.945 25.104 22.355 8.503 7.628 17.213 13.765 28.267 16.684 10.635 2.808 21.423 4.152 31.823 7.999 10.295 3.807 20.029 9.021 29.464 14.696 9.845 5.921 15.766 17.64 25.68 22.622 9.504 4.776 20.167-2.474 29.393-5.284 20.426-6.222 45.425-6.334 66.1-1.664 10.853 2.452 21.665 6.476 32.879 6.69 11.106.212 22.76-4.078 32.184 3.963 7.553 6.443 15.425 21.449 27.076 15.582 9.647-4.859 14.62-18.724 26.807-13.717 19.81 8.14 40.133 21.575 61.686 23.662 11.374 1.102 20.97-3.948 31.288-8.046 10.373-4.118 21.275-5.853 32.367-5.963 11.051-.11 22.365 1.654 32.372 6.68 10.422 5.233 16.733 14.924 25.354 22.514 4.423 3.895 8.998 7.575 12.169 12.678 2.855 4.595 4.386 9.891 6.807 14.761 5.023 10.1 11.723 19.627 18.462 28.576 13.828 18.362 30.203 33.475 39.95 54.807 4.592 10.05 10.165 19.691 14.403 29.896 3.935 9.473 9.724 22.411 4.306 32.102-5.083 9.09-11.723 17.06-16.643 26.442-5.555 10.595-11.358 18.82-20.95 25.84"/><path d="M1350.276-177.985c4.62 18.488 24.138 34.999 40.59 18.843 7.233-7.102 12.352-15.455 22.909-17.176 9.184-1.497 19.197 2.276 26.909 7.185 21.212 13.501 15.862 35.685 2.283 52.854-2.876 3.637-6.194 7.352-8.25 11.589-2.03 4.186-2.674 9.467-5.54 13.198-5.306 6.906-18.754 13.088-25.414 5.188-3.53-4.187-4.533-10.939-7.17-15.732-5.745-10.44-11.846-25.243-22.109-16.514-6.437 5.475-9.735 18.328-13.112 26.006-8.207 18.655-5.437 40.002-3.122 59.746 2.239 19.092 15.157 36.805 28.691 49.568 7.225 6.813 16.272 12.89 19.783 22.69 3.49 9.742 1.482 20.867 3.553 31.012 1.97 9.645 6.377 17.82 12.701 25.154 7.058 8.183 14.585 13.58 17.5 24.547 1.279 4.815 1.928 9.795 4.206 14.258 2.398 4.7 5.97 7.85 9.688 11.466 6.881 6.692 11.918 15.31 19.945 20.687 8.133 5.448 17.927 7.728 25.894 13.447 8.347 5.991 10.75 16.103 13.774 25.59 5.405 16.963 10.322 42.54 28.178 49.834 10.465 4.274 17.622 6.758 26.098 14.73 7.307 6.871 14.432 13.445 20.237 21.754 5.528 7.913 11.444 15.7 16.199 24.143 4.944 8.778 8.137 18.393 14.18 26.504 6.191 8.31 15.202 13.444 22.436 20.66 6.79 6.77 12.305 14.78 15.854 23.84 7.716 19.696 5.62 40.127-2.889 59.047-3.333 7.412-8.246 21.191-17.292 22.77-9.089 1.588-17.372-7.385-26.467-7.793-9.622-.432-18.167 6.357-27.472 7.9-10.044 1.663-20.311-1.38-29.944-4-20.136-5.479-36.779-8.08-55.337 3.374-9.16 5.654-17.184 9.181-27.976 6.53-10.22-2.511-18.428-8.78-27.164-14.45-15.63-10.145-36.156-13.746-53.949-18.377-18.467-4.807-39.586-2.049-58.358-.1-9.753 1.013-19.413 2.854-29.1 4.365-9.734 1.52-19.112 5.148-28.783 6.445-19.095 2.56-38.376-3.973-57.646-2.223-19.6 1.779-38.889 5.423-58.589 5.947-9.48.252-19.036.835-28.508.208-10.072-.665-19.776-3.491-29.698-5.17-9.675-1.636-19.53-1.876-29.156-3.841-9.114-1.861-17.972-4.809-27.305-5.369-19.227-1.152-41.243 4.159-57.154 15.457-7.782 5.527-15.015 11.489-23.365 16.141-8.477 4.724-17.178 8.995-25.388 14.216-4.15 2.639-8.756 5.5-12.148 9.164-4.77 5.153-3.826 7.35-.645 12.947 4.696 8.265 7.276 17.258 9.902 26.377 2.842 9.869 6.094 19.226 12.658 27.149 6.288 7.59 14.56 13.967 21.95 20.395 14.62 12.72 36.293 14.438 54.452 18.09 9.98 2.007 19.961 3.917 29.986 5.663 9.825 1.71 18.81 3.593 24.06 13.11 5.16 9.358 7.76 17.48 17.707 22.695 9.171 4.808 19.854 4.665 29.793 3.22 9.635-1.399 19.065-3.965 28.718-5.278 9.393-1.277 18.504-2.107 27.418-5.667 9.832-3.926 18.091-7.932 28.826-5.547 9.832 2.184 19.418 5.21 29.313 7.276 9.305 1.943 17.773 5.004 25.267 11.18 7.789 6.42 12.665 15.972 21.629 20.728 9.378 4.977 20.312 4.154 29.423-.979 4.21-2.371 7.91-6.587 12.181-8.623 5.15-2.455 8.014-.5 12.792 1.582 8.455 3.686 16.89 6.822 25.02 11.281 9.048 4.963 17.966 9.628 28.356 10.465 21.246 1.71 34.513-14.836 52.859-22.374 19.945-8.195 38.597 9.886 44.434 29.173 2.845 9.4 2.173 19.533 5.009 29.009 2.851 9.53 6.914 19.164 10.869 28.259 4.064 9.345 12.11 15.754 15.951 25.236 3.735 9.22 5.358 19.25 7.89 28.867 2.532 9.613 5.573 18.812 9.52 27.901 4.252 9.79 7.378 20.3 3.892 30.922-5.717 17.415-28.355 26.882-42.98 35.015"/><path d="M1329.528-177.985c-6.528 8.225-15.122 10.38-23.338 16.244-11.04 7.878-7.585 16.854-4.477 28.11 3.01 10.908-1.264 17.326-7.177 26.115-6.057 9.004-8.255 17.503-8.756 28.374-.865 18.796-5.856 41.229-1.238 59.614 2.473 9.842 8.291 18.525 12.994 27.332 4.778 8.946 9.196 18.09 14.395 26.794 4.896 8.197 10.331 16.027 15.563 23.996 5.466 8.325 10.22 18.099 18.25 24.148 8.412 6.337 17.926 6.459 27.724 8.772 9.689 2.287 16.306 8.57 24.164 14.358 4.052 2.985 8.68 4.894 12.1 8.615 3.554 3.865 5.289 8.71 7.272 13.555 3.932 9.609 9.48 16.886 16.096 24.689 7.037 8.299 13.891 12.09 23.57 16.442 9.115 4.1 17.145 10.184 25.298 15.978 17.928 12.74 19.997 31.498 27.601 50.98 3.696 9.468 9.205 17.804 15.416 25.708 6.916 8.802 12.27 12.919 23.273 14.5 11.817 1.7 16.604 6.417 24.522 15.151 6.644 7.33 14.86 12.653 20.53 20.981 5.517 8.107 8.92 17.41 13.05 26.281 4.676 10.042 10.622 16.293 19.52 22.49 8.172 5.692 15.703 11.697 19.868 21.238 4.565 10.456 1.957 19.111-2.975 28.679-4.803 9.319-4.68 19.614-15.116 24.005-8.998 3.785-18.5 5.202-27.256 9.848-9.02 4.786-15.516 9.32-26.024 7.422-9.832-1.774-19.623-3.998-29.477-5.66-19.01-3.209-38.014 7.758-55.723 13.144-19.853 6.038-36.946-11.742-54.716-17.824-9.074-3.105-18.632-4.303-27.752-7.232-9.452-3.036-18.432-8.327-28.535-8.535-9.53-.196-18.807 3.005-28.21 4.265-9.638 1.29-19.336 1.678-28.945 3.26-19.117 3.148-37.676 7.749-57.19 7-20.26-.778-38.704-4.35-59-.83-19.424 3.37-37.96 4.916-57.655 4.925-19.323.008-37.555-2.787-56.601-5.8-10.542-1.666-19.45-4.856-29.034-9.575-9.198-4.528-17.366-5.308-27.412-5.9-18.648-1.102-40.69-.671-58.625 5.286-9.151 3.04-16.028 9.165-23.464 15.178-7.643 6.18-16.216 10.9-24.273 16.465-13.538 9.352-35.903 27.04-32.868 46.277 1.634 10.361 9.372 18.768 15.93 26.225 6.866 7.806 10.854 16.59 16.359 25.332 5.136 8.158 10.93 15.463 15.07 24.27 4.679 9.949 11.661 15.647 20.604 21.521 17.138 11.258 34.446 15.154 54.205 18.874 9.756 1.836 19.857 3.913 28.505 9.154 8.378 5.078 14.315 12.912 21.755 19.19 16.482 13.913 34.992 16.413 55.117 11.814 9.108-2.08 18.417-4.877 27.745-5.573 9.881-.737 19.572 1.154 29.376-.977 9.663-2.1 18.657-6.326 28.618-7.059 9.41-.692 19.36.408 28.487 2.807 21.328 5.606 27.503 25.894 42.096 40.154 7.099 6.937 15.502 11.552 20.459 20.57 2.569 4.673 4.016 8.493 9.11 10.447 4.606 1.768 9.671 1.158 14.511 1.41 10.98.574 17.928 5.407 26.006 12.647 8.972 8.04 15.467 5.55 26.502 4.904 10.83-.635 17.597 6.377 23.325 15.084 2.52 3.829 4.235 8.698 7.995 11.345 4.344 3.058 8.708 1.252 13.501-.297 10.525-3.402 18.663-3.977 26.507 5.25 5.94 6.985 10.777 16.575 13.251 25.476 2.526 9.086 3.93 19.295 4.7 28.704.954 11.695-3.648 19.02-8.743 28.953-4.744 9.248-9.352 15.584-17.92 21.403-7.808 5.303-15.184 10.978-22.565 16.893"/><path d="M1226.294-177.985c9.205 2.44 18.682 5.304 23.653 14.5 5.147 9.524 1.27 17.808-2.588 27.002-3.928 9.363-9.072 18.152-12.797 27.593-3.963 10.045-3.74 19.886-3.152 30.527 1.057 19.146-2.275 40.625 6.722 58.21 4.629 9.047 11.43 17.51 16.914 26.067 5.318 8.3 14.103 14.21 18.614 23.072 4.596 9.029 2.583 19.512 4.17 29.166 1.758 10.686 10.288 17.341 17.518 24.413 14.225 13.915 28.796 26.678 47.595 33.506 9.487 3.447 17.995 7.448 26.54 12.947 9.323 6 17.335 8.945 27.855 11.882 10.508 2.934 14.066 9.872 20.534 18.077 6.535 8.287 15.842 12.431 25.032 16.832 16.714 8.004 36.16 18.327 46.127 35.04 5.209 8.732 6.688 19.014 9.217 28.75 2.609 10.048 6.69 19.11 12.215 27.793 4.914 7.723 9.824 17.745 18.134 22.093 9.102 4.762 18.14-1.361 27.312 1.592 7.616 2.453 16.676 12.1 22.88 17.593 7.32 6.48 12.299 14.34 16.427 23.251 4.329 9.341 7.365 19.88 13.881 27.933 6.356 7.856 15.719 12.174 20.98 21.186 12.082 20.693-5.297 36.18-23.021 43.627-19.852 8.342-37.353 8.867-58.42 7.575-20.512-1.258-35.343 11.932-54.914 14.9-20.233 3.068-38.318-10.428-56.707-16.907-17.631-6.211-38.137-10.904-56.794-11.43-39.544-1.114-77.433 13.995-117.013 10.558-19.74-1.714-37.116-5.313-56.811-.654-9.914 2.345-19.73 5.283-29.883 6.342-9.627 1.004-19.274.387-28.92.052-19.814-.688-38.73-2.218-57.847-8.01-9.705-2.94-18.706-5.828-27.284-11.483-8.421-5.553-15.628-10-25.833-10.609-10.049-.599-19.621-.169-29.582-2.213-9.826-2.016-19.679-3.922-29.49-6.01-9.204-1.961-18.468-3.194-27.72-4.846-9.785-1.746-19.906-5.938-29.893-4.059-10.428 1.963-17.476 9.363-17.228 20.465.223 10.004 2.816 19.415-.329 29.296-3.186 10.01-11.046 15.232-17.12 23.182-5.919 7.746-10.246 16.784-14.09 25.76-2.027 4.73-4.274 9.577-5.238 14.672-.951 5.03.353 9.818 1.585 14.786 1.173 4.732 2.139 9.797 6.076 12.957 3.731 2.995 8.464 3.427 12.987 4.695 10.489 2.939 15.232 10.158 21.138 18.95 5.396 8.031 11.486 15.444 16.504 23.757 5.297 8.774 10.643 17.841 13.547 27.79 2.979 10.207 3.04 19.922 13.704 24.646 17.234 7.634 35.867 10.317 53.882 15.096 9.33 2.476 20.39 5.896 26.657 13.856 6.147 7.806 4.225 20.434 11.9 27.033 7.178 6.173 18.425 6.148 27.37 7.05 9.573.967 19.163 2.531 28.405-1.032 9.804-3.78 18.508-6.844 28.774-9.27 9.557-2.257 18.896-4.74 28.694-5.627 9.392-.851 18.581-1.51 27.813-3.63 9.916-2.278 19.826-5.321 30.077-5.058 20.774.534 32.454 20.034 44.463 34.93 6.279 7.787 13.28 15.01 19.19 23.095 6.039 8.265 11.126 17.396 16.377 26.207 4.995 8.381 8.98 17.234 16.43 23.639 7.594 6.528 14.974 12.025 21.792 19.494 7.288 7.984 15.53 13.138 24.36 18.998 9.267 6.148 10.412 15.237 9.931 25.987-.843 18.819-4.714 37.57-9.11 55.802m-1391.3 0c11.037-15.97 17.491-36.18 25.596-53.919 3.83-8.383 10.63-16.966 9.075-26.65-.836-5.21-4.224-9.718-6.629-14.253-2.282-4.304-3.711-9.21-6.854-12.988-6.216-7.472-16.318-10.29-23.49-16.683-7.541-6.722-12.5-16.144-20.748-22.093-7.655-5.522-17.416-6.898-24.753-12.986-7.592-6.3-12.196-15.757-15.833-24.846-3.741-9.35-6.31-19.004-8.662-28.803-2.345-9.773-6.896-17.924-10.156-27.263-6.182-17.716-7.009-40.338-7.354-59.055-.339-18.387 5.567-40.663 13.763-56.987 2.518-5.015 4.746-8.485 3.164-14.091-1.436-5.087-5.456-9.691-8.86-13.544-6.567-7.432-14.263-11.422-23.216-15.09-8.994-3.686-18.024-7.213-26.453-12.166-8.37-4.917-15.474-12.23-24.14-16.538-15.92-7.915-41.203-8.678-57.09-.738-16.81 8.401-33.48 22.57-51.93 26.58-19.091 4.148-37.671-5.158-55.936-9.777-19.089-4.828-33.246-19.13-51.865-25.197-17.803-5.8-37.948-10.539-56.245-4.595-10.043 3.263-17.214 10.58-25.735 16.523-7.67 5.35-16.566 8.002-25.497 10.22-19.043 4.728-38.21 4.657-56.171 13.722-17.234 8.7-34.277 19.158-49.037 31.798-14.947 12.801-31.138 24.144-49.018 32.244-8.88 4.022-18.02 4.158-27.366 6.07-10.352 2.116-17 9.231-24.664 16.111-7.644 6.863-16.854 10.312-25.014 16.257-9.394 6.845-7.771 17.207-12.254 27.055-4.583 10.067-11.446 13.256-21.714 14.857"/><path d="M1188.587-177.985c.512 22.51 2.848 44.2-3.761 65.903-3.705 12.165-1.899 21.41 1.224 33.45 2.725 10.504 3.174 21.23 4.963 31.895 1.881 11.212 6.012 21.583 10.756 31.797 4.5 9.687 8.92 18.869 19.852 21.33 10.745 2.418 21.43 2.128 30.976 8.727 9.246 6.392 14.84 16.266 16.592 27.477 3.239 20.72-15.368 42.463-4.526 62.418 4.73 8.705 18.467 13.578 26.928 17.497 10.504 4.867 19.553 3.25 30.63 3.912 11.297.676 20.186 8.86 30.835 12.112 10.29 3.143 20.297 6.498 29.857 11.595 19.296 10.286 35.414 25.75 54.77 35.816 9.276 4.823 18.55 9.961 27.186 15.934 10.224 7.07 14.76 15.226 18.092 27.205 2.866 10.3 3.082 20.711 5.486 30.997 2.719 11.634 12.639 16.593 20.686 24.007 7.956 7.33 14.588 15.457 25.29 18.56 10.412 3.02 21.354.901 30.413 8.054 7.586 5.99 16.321 14.143 21.598 22.389 5.632 8.802 9.578 19.557 14.178 29.008 4.248 8.727 9.733 19.836 8.236 29.897-1.726 11.609-13.22 14.241-22.693 17.44-9.668 3.262-19.006 6.758-29.254 7.296-5.34.28-10.664-.103-15.934.973-5.596 1.143-9.718 4.103-14.468 7.216-9.13 5.984-19.246 9.968-30.02 11.203-11.477 1.316-20.828-2.892-30.981-7.797-10.088-4.873-20.241-7.06-31.057-9.484-10.392-2.33-20.526-6.06-31.18-6.942-11.09-.917-22.367.544-33.478.636-10.434.086-20.853-.023-31.264.823-10.92.888-21.511 3.61-32.346 5.07-10.959 1.476-22.012 1.02-33.015.422-21.717-1.18-43.026-1.957-64.663.932-10.59 1.413-20.91 3.652-31.383 5.685-10.633 2.064-21.13.437-31.812-.418-21.93-1.755-42.84-3.054-63.513-11.706-10.41-4.358-18.84-11.414-28.382-17.299-9.921-6.119-20.333-6.22-31.317-8.667-10.284-2.292-19.505-7.474-29.27-11.334-10.446-4.128-20.992-7.593-31.138-12.513-19.276-9.349-39.895-18.216-61.645-18.203-16.546.01-46.93 12.442-49.186 32.082-1.175 10.231 3.046 20.718 5.333 30.534 2.54 10.903 3.582 21.77 1.423 32.847-2.138 10.974-7.148 20.644-10.77 31.1-3.69 10.657-4.474 21.965-3.717 33.199.693 10.299 2.722 20.608 10.108 28.133 7.667 7.81 18.675 11.802 28.24 16.43 9.877 4.78 17.765 10.128 24.06 19.504 6.076 9.047 11.298 19.193 16.25 28.932 9.095 17.887 2.569 45.349 19.546 58.611 4.134 3.23 8.766 5.542 12.727 9.064 3.603 3.203 6.88 6.857 11.318 8.707 10.853 4.527 18.075-9.407 28.58-9.135 10.744.279 15.61 14.769 15.073 24.12-.566 9.865-7.05 19.617 1.498 27.565 7.238 6.729 19.345 10.326 28.786 11.372 10.91 1.208 21.202-3.243 32.037-3.084 10.88.16 21.186 5.2 32.126 2.934 10.721-2.222 18.858-8.459 27.28-15.287 17.435-14.137 37.767-18.974 58.091-27.038 11.995-4.758 21.209-2.904 30.739 6.243 7.704 7.393 14.18 16.528 20.37 25.255 6.234 8.79 13.458 17.038 19.264 26.107 6.167 9.632 10.72 20.45 16.26 30.478 5.123 9.275 10.647 18.61 14.902 28.338 4.918 11.245 2.071 20.065 1.712 31.68-.403 13.048 9.056 17.462 19.97 20.37 11.5 3.063 18.314 5.692 17.944 19.266-.356 13.107-14.783 13.124-24.017 9.13-9.397-4.064-12.912-15.509-18.602-23.562-2.48-3.51-5.984-9.07-10.515-6.784-3.904 1.97-5.303 10.006-6.563 14.048-3.026 9.707-6.647 19.187-9.614 28.912m-1270.196 0c5.63-9.293 13.584-15.663 20.223-24.055 6.141-7.763 12.036-16.221 17.842-24.277 11.674-16.197 8.692-48.037-10.078-57.38-8.901-4.43-17.947-8.246-26.19-13.96-8.618-5.975-15.785-13.647-23.327-20.927-7.743-7.474-14.983-14.263-20.88-23.432-5.657-8.793-13.418-14.266-19.988-22.098-12.865-15.338-18.085-38.916-23.941-57.845-6.173-19.953-10.556-41.123-5.688-61.933 4.936-21.1 18.578-36.323 32.697-51.372 6.92-7.378 11.794-18.701 13.468-28.858 1.821-11.057-7.26-18.898-14.646-25.394-7.59-6.677-14.224-14.083-23.558-18.123-10.222-4.425-18.778-7.975-27.644-15.045-15.907-12.684-35.569-18.722-54.282-25.835-19.872-7.554-40.369-6.671-61.036-4.532-9.583.992-19.478 1.28-28.896 3.456-10.381 2.398-19.197 9.042-29.642 11.237-9.764 2.052-20.047 1.51-29.962 1.602-9.946.093-19.987.556-29.92-.086-10.885-.704-20.378-4.574-30.691-7.78-9.355-2.908-19.672-4.037-29.415-4.685-9.448-.629-19.702 4.145-29.331 5.105-10.56 1.051-21.156.39-31.65-1.03-20.31-2.747-39.166-4.68-59.256.886-10.227 2.833-20.119 6.824-30.367 9.578-9.666 2.597-19.657 3.295-29.347 5.71-19.718 4.916-36.779 19.918-51.086 34.168-7.165 7.136-12.2 16.575-20.23 22.73-7.888 6.048-18.18 8.66-27.349 12.02-9.779 3.586-19.228 7.877-28.652 12.344-9.098 4.311-17.133 10.269-26.053 14.832-9.29 4.752-19.347 4.895-29.517 4.979"/><path d="M1142.133-177.985c-5.653 20.863-6.62 42.33-13.532 62.742-4.513 13.322-.96 19.604 9.05 28.339 8.796 7.674 12.658 13.04 9.588 25.04-3.279 12.817-2.56 21.938 10.242 28.07 10.305 4.934 19.84 7.799 19.722 21.292-.102 11.791-3.09 21.296 10.489 25.738 10.345 3.384 21.107 1.277 31.63.599 22.856-1.474 44.749 14.04 41.817 39.344-1.349 11.64-5.767 19.902-16.497 24.377-4.884 2.036-10.768 2.979-13.506 8.135-2.332 4.393-1.8 9.884-2.955 14.714-1.639 6.852-4.113 8.096 2.223 12.81 4.366 3.248 9.838 5.366 14.62 7.896 9.223 4.881 17.697 11.092 26.978 15.847 9.26 4.745 20.174 13.044 30.843 13.259 11.002.221 20.416-7.753 31.622-6.613 10.25 1.042 20.155 6.172 29.651 10.063 10.204 4.18 19.416 9.564 28.565 15.793 18.071 12.303 36.236 23.752 54.883 35.077 9.417 5.72 18.3 12.114 21.735 23.314 3.434 11.195-2.183 20.09-6.084 30.115-5 12.851 5.34 17.916 14.553 24.182 4.607 3.134 8.584 6.935 13.075 10.206 4.673 3.404 9.802 5.119 15.126 7.178 9.967 3.855 18.976 9.867 28.991 13.55 10.12 3.72 20.369 5.612 29.61 11.575 9.51 6.137 16.707 14.778 18.887 26.28 1.048 5.53 1.847 11.046 3.033 16.563 1.333 6.203-1.554 10.685-5.179 15.788-6.726 9.471-14.929 14.982-25.888 17.926-10.352 2.782-19.935 4.615-28.986 10.875-4.565 3.157-8.756 7.246-13.684 9.81-5.235 2.723-10.589 1.613-16.46 1.71-11.495.192-19.797-1.42-30.497-5.84-10.094-4.17-20.274-5.28-30.791-7.686-10.532-2.41-20.422-8.521-31.436-8.313-11.034.209-21.272 4.811-32.479 4.294-10.686-.493-21.114-1.985-31.847-1.376-10.424.59-20.668 2.683-31.058 3.578-11.135.96-22.201-.337-33.33-.687-21.174-.667-42.195 2.678-63.232 4.678-10.839 1.03-21.542 3.365-32.385 4.23-10.923.872-21.768-.952-32.67-1.333-22.424-.783-41.248-2.457-61.808-12.604-9.934-4.902-19.327-10.264-28.82-15.996-9.522-5.75-20.048-8.406-29.816-13.481-9.173-4.766-17.3-11.42-26.6-16.013-10.314-5.094-19.973-7.458-28.567-15.63-17.563-16.703-39-13.978-60.685-19.47-10.12-2.562-20.252-5.368-30.133-8.778-9.813-3.387-20.354-9.668-30.772-10.266-12.596-.723-11.794 12.573-15.386 21.994-4.007 10.51-10.88 19.437-14.115 30.341-3.069 10.342-3.816 20.99-2.266 31.675 1.595 10.995 7.475 21.436 7.912 32.543.438 11.126-7.24 21.492-10.103 31.959-2.567 9.382-9.902 19.04-3.778 28.122 3.603 5.343 6.027 8.649 7.388 15.224 1.164 5.622 2.366 10.764 4.967 15.898 2.397 4.733 5.36 9.084 7.314 14.041 2.278 5.777 2.306 11.678 3.233 17.745 2.001 13.09 9.008 16.93 21.294 15.571 12.198-1.348 20.989.378 30.318 9.181 16.09 15.182 27.701 35.308 26.215 58.143-1.426 21.907-9.209 48.356 14.048 60.526 9.68 5.066 17.855 10.104 24.994 18.688 6.999 8.415 13.193 17.065 21.524 24.202 8.4 7.196 15.058 16.81 23.681 23.498 4.078 3.163 8.985 5.226 13.507 7.594 4.95 2.591 9.384 6.612 14.861 7.904 10.856 2.56 20.62-1.672 31.418 3.376 10.384 4.855 18.797 10.03 30.669 7.62 11.294-2.291 19.827-9.934 29.16-16.27 8.89-6.036 18.237-11.403 27.577-16.655 4.487-2.522 9.969-4.803 13.377-8.897 3.29-3.952 4.676-9.57 6.599-14.272 4.388-10.737 15.615-18.516 26.127-9.562 7.258 6.182 11.217 21.087 14.404 29.957 3.743 10.417 6.154 20.843 10.928 30.897 5.163 10.873 6.738 19.446 4.554 31.413-2.15 11.78-2.01 22.191-1.27 34.1 1.491 23.96-6.545 40.308-23.84 55.927m-1168.006 0c10.711-20.76 29.299-33.012 46.918-47.156 8.51-6.831 14.139-16.696 19.423-26.273.66-1.194 2.857-5.017 2.504-6.081-.44-1.33-6.007-2.986-7.498-3.635-5.067-2.206-10.441-3.74-15.23-6.584-9.563-5.678-15.944-15.464-25.733-20.94-9.748-5.454-20.845-7.334-30.912-12.03-9.604-4.48-19.895-9.518-28.602-15.656-9.954-7.018-15.246-15.531-20.565-26.395-9.78-19.975-25.157-36.836-35.942-56.286-5.526-9.968-9.437-20.45-13.07-31.27-3.561-10.606-7.526-21.107-6.66-32.52 1.785-23.504 16.268-41.446 31.433-57.53 7.684-8.15 16.278-15.769 20.766-26.376 4.5-10.632 4.214-22.806 1.283-33.814-2.918-10.955-8.929-20.305-14.81-29.761-6-9.649-9.91-20.67-17.77-28.96-7.793-8.216-18.484-11.607-27.693-17.729-9.611-6.39-18.49-11.636-29.764-14.301-10.793-2.552-21.785-3.986-32.747-5.477-10.85-1.476-21.613-3.977-32.609-3.824-11.084.155-21.946 1.81-33.067 1.197-10.957-.603-21.845-1.716-32.83-1.744-22.145-.058-44.08 2.537-66.253 1.858-11.795-.362-20.917 2.613-32.063 5.961-10.958 3.292-21.552 3-32.773 1.58-10.862-1.374-21.842-2.378-32.633-4.266-11.032-1.93-21.477-4.555-32.735-4.776-11.73-.23-21.257-2.478-32.363-6.187-10.901-3.642-20.83-3.18-31.988-1.07-21.902 4.143-42.837 5.197-65.077 4.861-10.584-.16-22.32-2.584-32.726-.422-10.669 2.216-16.54 14.27-25.58 20.169-9.173 5.987-20.023 8.516-28.9 14.973-9.132 6.643-17.987 12.805-27.704 18.565-19.254 11.414-33.395 28.763-50.618 42.758-8.74 7.1-19.353 6.926-29.986 6.975"/><path d="M1110.913-177.985c-7.61 20.005-12.146 40.709-18.287 61.177-6.787 22.622-.015 41.646 17.831 56.277 15.02 12.314 28.583 31.925 31.487 51.79 1.525 10.428.983 22.398 6.469 31.717 2.66 4.52 6.653 8.256 9.651 12.539 3.315 4.736 6.132 10.384 10.518 14.205 8.11 7.063 19.297 3.628 26.538-3.033 4.772-4.39 4.956-9.464 7.382-15.092 2.092-4.852 6.138-7.883 11.046-9.621 19.985-7.08 45.986 10.273 38.857 33.758-3.335 10.988-15.788 17.745-26.495 17.404-10.705-.34-20.302-7.046-30.992-2.406-10.212 4.433-15.836 13.564-11.2 24.521 4.612 10.896 15.06 15.122 23.54 22.037 8.237 6.715 15.22 14.755 24.95 19.293 9.005 4.201 18.592 6.495 27.371 11.315 9.22 5.064 18.217 10.365 27.554 15.22 4.625 2.403 9.108 5.253 14.331 5.712 5.825.511 10.408-2.371 15.396-5.131 20.676-11.442 37.687-4.022 56.84 6.98 9.147 5.255 18.811 10.264 26.518 17.692 8.108 7.814 15.217 12.921 25.558 17.35 10.135 4.34 18.788 8.446 22.336 19.902 3.744 12.087-2.356 20.546-8.914 29.875-6.81 9.687-7.458 19.658.02 29.396 7.03 9.153 17.008 9.823 27.014 13.525 19.587 7.246 38.362 16.449 58.121 23.415 16.927 5.967 45.684 12.096 45.962 35.087.276 23.171-28.719 31.799-44.74 41.106-19.475 11.313-36.245 13.172-58.07 8.637-10.466-2.175-21.073-3.272-31.544-5.347-9.849-1.952-19.708-9.87-29.593-9.848-9.836.023-18.14 7.641-28.225 8.038-10.44.41-20.454-3.966-30.892-4.202-10.604-.24-21.407 1.217-31.965 2.139-10.243.894-19.59.004-29.794-.73-21.146-1.52-40.79 4.367-61.398 7.511-19.697 3.005-41.358 4.461-61.133 2.15-20.888-2.441-41.692 1.62-61.691-6.672-18.738-7.77-37.145-17.587-54.063-28.932-8.73-5.854-17.291-11.922-26.344-17.25-10.287-6.054-15.675-11.812-20.387-23.08-4.36-10.425-8.959-18.604-19.022-24.053-9.35-5.063-19.618-6.325-30.048-6.447-21.65-.255-40.794-1.881-61.478-9.205-18.47-6.54-37.255-22.91-57.77-15.86-11.607 3.987-16.544 12.896-22.287 23.124-5.143 9.162-10.89 17.753-15.138 27.43-4.024 9.168-9.597 18.084-11.995 27.866-2.539 10.359-2.882 21.692-3.6 32.322-.719 10.624 1.67 22.911-1.422 33.16-3.004 9.955-12.951 14.788-16.343 24.627-7.593 22.028 3.457 43.064 18.854 58.133 7.962 7.792 17.608 10.067 26.89 15.44 9.645 5.584 12.122 15.112 16.117 25.11 3.915 9.8 9.754 19.725 20.114 23.184 10.217 3.41 21.05.776 30.542 7.064 9.308 6.166 12.524 15.734 16.654 25.74 4.536 10.988 6.205 18.253 4.719 30.305-1.282 10.399-.084 22.522-3.066 32.557-2.637 8.873-17.556 18.07-13.914 27.91 3.1 8.373 14.49 14.923 20.773 20.783 7.865 7.335 16.066 13.877 24.515 20.465 16.22 12.647 22.46 35.022 32.6 52.643 5.225 9.082 11.507 17.448 16.787 26.48 5.63 9.63 7.22 19.995 10.315 30.583 2.823 9.658 8.865 19.101 8.942 29.377.083 11.028-7.316 18.96-14.511 26.222m-924.601 0c20.044-13.119 36.623-30.526 57.425-42.48 10.888-6.256 20.544-11.707 23.726-25.041 1.622-6.8-.188-10.888-6.587-13.276-6.127-2.287-10.916-3.228-15.916-7.981-9.588-9.114-16.04-16.558-28.52-21.603-11.361-4.593-19.275-11.294-29.146-18.36-10.94-7.833-21.436-5.444-33.832-6.988-12.017-1.497-22.647-9.943-30.996-18.52-8.758-8.997-13.308-20.151-17.177-32.058-3.883-11.955-9.233-20.823-17.546-30.07-15.216-16.926-31.781-41.48-30.355-65.781 1.53-26.07 23.711-39.966 39.363-57.067 7.96-8.699 16.54-18.535 20.758-29.783 4.381-11.684 3.807-24.743 2.548-36.983-1.236-12.014-3.198-24.014-3.014-36.133.182-11.972 2.981-23.674 3.582-35.603.711-14.112-3.531-22.987-15.183-30.41-9.993-6.366-21.691-13.82-33.885-12.368-12.422 1.479-22.088 6.236-34.796 2.783-11.215-3.047-21.88-6.54-33.496-7.853-12.15-1.373-24.361-.157-36.546-.27-12.013-.112-23.94-.673-35.802 1.713-12.453 2.505-21.732-1.847-33.764-5.075-11.234-3.013-22.673-5.19-34.155-6.915-11.842-1.78-23.735-2.73-35.658-3.713-11.634-.958-24.515-4.074-35.909-.3-11.141 3.689-19.714 12.472-31.928 12.928-11.536.432-24.449-1.01-35.945-2.195-12.43-1.282-20.712-10.213-32.07-14.229-11.756-4.157-24.402.618-36.5.324-12.224-.298-21.914-4.98-32.817-10.025-12.107-5.603-21.813-2.22-34.2.19-11.689 2.276-24.126 4.318-35.596 1.177-11.467-3.141-23.621-4.872-35.483-3.443-11.604 1.397-21.847 6.762-32.6 11.048-11.062 4.408-22.175 7.636-32.01 14.714-9.946 7.16-18.77 15.5-29.705 21.16-10.82 5.601-22.384 8.08-33.811 11.925-11.17 3.758-21.699 6.058-33.457 6.76m516.141-583.583c3.403 11.399 5.835 22.933 6.306 34.892.478 12.123-2.69 23.407-3.403 35.365-.661 11.085 6.585 22.804 4.059 33.508-2.747 11.638-15.118 15.017-23.523 21.358-12.116 9.139 8.434 15.92 15.178 20.484 10.321 6.985 17.504 12.811 30.123 14.757 23.193 3.577 45.652.345 68.822-.369 11.805-.363 22.86 1.029 34.186-3.264 11.044-4.187 21.066-8.301 32.842-9.852 11.167-1.47 23.374-5.895 34.617-5.282 11.551.63 20.193 9.754 30.345 14.378 20.751 9.45 43.105 17.587 64.8 24.418 5.049 1.589 10.269 3.604 15.522 4.162 6.188.658 12.312-.965 18.481-1.051 11.741-.166 22.162 5.775 33.642 7.337 23.319 3.17 45.92-1.083 68.114-7.859 10.849-3.312 23.182-4.13 32.494-11.3 9.21-7.09 16.198-16.863 25.472-24.078 9.34-7.265 18.22-14.238 25.318-23.953 6.984-9.558 12.344-19.949 17.933-30.39 5.333-9.96 11.64-20 19.433-28.132 8.75-9.13 17.943-11.52 30.161-11.03 11.425.46 23.522.382 34.572 3.63 11.142 3.275 21.196 9.09 32.584 11.737 22.2 5.161 43.497 15.857 63.998 25.98 10.146 5.01 21.036 10.397 31.92 13.383 11.122 3.05 22.972 2.229 34.326 4.016 22.168 3.49 45.477 12.821 68.005 11.648 11.634-.606 22.491-4.159 34.234-2.442 11.445 1.672 22.324 6.136 33.551 8.84 19.647 4.73 48.752 14.352 64.095-4.423 7.558-9.25 10.534-21.063 19.136-29.686 8.172-8.192 18.412-14.315 27.15-21.894 8.852-7.676 20.006-11.789 28.568-19.828 8.553-8.031 14.147-18.753 23.106-26.407 9.634-8.231 14.007-16.008 16.594-28.653"/><path d="M1063.152-177.985c1.492 20.458 2.008 40.923-.573 61.304-1.302 10.278-2.4 20.398-.895 30.723 1.516 10.402 5.918 19.277 10.199 28.696 4.967 10.927 10.185 15.361 21.188 19.46 9.376 3.491 20.195 7.242 25.754 16.47 10.26 17.028 6.762 41.062 13.608 59.611 3.65 9.89 7.687 18.99 8.736 29.648.997 10.123.405 20.611 2.765 30.553 4.801 20.221 25.52 33.14 44.055 37.42 11.024 2.546 18.184 5.915 27.434 12.63 9.06 6.578 16.842 7.149 27.505 8.533 20.07 2.604 34.504 22.734 54.434 26.503 10.84 2.05 18.922-5.804 28.184-10.035 9.155-4.183 18.985-4.46 28.523-1.304 9.595 3.174 18.839 9.597 26.807 15.85 7.904 6.202 11.91 15.822 19.38 22.356 3.869 3.384 8.785 4.841 12 8.826 3.125 3.872 4.069 8.776 4.584 13.644 1.117 10.56-2.572 19.999-5.248 29.977-2.341 8.728-5.27 19.868-5.814 28.803-.712 11.68 11.645 17.384 21.127 18.88 9.803 1.548 19.797-1.04 29.535.684 9.714 1.72 18.463 7.867 27.715 11.166 9.372 3.34 19.046 5.677 28.24 9.56 4.556 1.924 8.999 4.128 13.552 6.057 4.839 2.05 10.615 2.998 15.043 5.892 8.941 5.843 4.385 19.01-1.965 25.601-6.299 6.539-16.566 11.442-24.57 15.631-18.58 9.724-38.009 9.997-58.322 8.313-10.294-.853-20.13-2.288-29.778-6.226-9.316-3.803-17.726-7.586-27.97-6.347-10.471 1.265-19.692 3.577-30.349 2.542-9.923-.964-19.23-1.253-29.152 0-20.033 2.528-39.629.57-59.602 2.014-19.87 1.436-38.954 9.22-58.808 11.487-20.047 2.289-39.577 2.884-59.401-1.264-20.03-4.19-39.2 2.799-58.911-4.881-18.52-7.216-35.5-18.927-51.926-30.1-8.651-5.885-17.754-10.95-24.415-19.33-6.033-7.59-11.544-15.832-16.867-23.967-5.715-8.735-9.794-18.932-15.922-27.292-6.037-8.236-16.098-12.375-25.885-13.406-10.473-1.103-20.978 1.249-31.482.281-9.673-.89-18.799-3.643-27.919-6.959-18.98-6.9-38.123-11.374-57.634-16.202-10.525-2.604-18.464-8.135-28.005-12.9-5.465-2.73-8.005-3.125-12.953.904-3.786 3.083-6.74 7.539-9.998 11.167-3.613 4.021-7.275 6.946-12.232 8.918-4.663 1.855-10.127 2.53-13.908 6.187-6.785 6.562-7.537 18.887-11.104 27.459-4.06 9.757-9.376 18.942-15.035 27.792-4.864 7.606-12.612 16.457-12.543 25.978.04 5.464 2.63 10.515 4.111 15.64 1.678 5.802 1.262 10.35-.154 16.192-2.332 9.619-4.748 19.162-7.326 28.712-5.97 22.123 3.488 38.596 10.525 58.946 6.58 19.03 15.115 39.043 32.417 50.021 8.905 5.65 18.295 10.665 27.667 15.414 10.172 5.155 13.68 10.79 19.037 20.639 5.342 9.82 14.216 15.901 24.675 18.715 9.896 2.663 18.44 3.675 26.175 11.205 7.557 7.357 13.055 18.105 10.382 28.977-2.415 9.82-9.612 17.78-15.994 25.12-6.992 8.041-13.548 16.1-15.05 27.132-1.398 10.285-.148 20.74-5.745 29.897-5.676 9.286-20.082 8.338-24.63 17.823-4.202 8.761 2.24 21.149 8.07 27.346 7.14 7.589 15.693 13.378 22.778 21.219 6.532 7.229 13.936 13.536 20.453 20.776 7.02 7.8 13 16.82 16.629 26.823 3.366 9.28 4.2 19.162 6.469 28.737 2.27 9.587 7.767 19.754 6.06 29.816-1.609 9.481-8.486 18.128-12.268 26.927m-781.967 0c9.656-9.758 19.86-16.3 31.62-23.015 10.07-5.751 19.385-12.702 25.618-22.865 3.497-5.702 4.258-11.976 6.565-18.138 1.064-2.842 2.642-5.48 3.732-8.318 2.059-5.36 2.359-5.67-2.394-8.772-10.47-6.835-21.85-11.32-33.581-15.223-11.803-3.927-20.757-11.944-31.94-17.184-12.088-5.664-23.097-12.413-34.502-19.38-11.354-6.934-21.835-13.053-35.323-13.534-13.909-.496-23.405-2.4-33.921-12.407-9.863-9.386-16.675-20.878-20.472-34.093-3.64-12.663-7.413-23.882-15.507-34.372-13.745-17.81-41.676-39.278-27-65.197 12.79-22.588 39.696-32.003 53.747-53.023 7.903-11.822 15.559-21.867 17.033-36.625 1.268-12.684.21-25.49-.23-38.197-.443-12.84-.69-26.028 1.965-38.644 2.822-13.405 11.215-21.08 18.794-31.598 7.704-10.691 5.848-23.618.102-34.804-6.82-13.275-17.928-16.9-31.569-18.625-11.957-1.513-23.934-5.223-36.028-5.042-12.802.191-24.832 4.792-37.178 7.655-13.292 3.082-25.808.765-39.085-1.055-12.457-1.707-24.468-1.707-36.975-.737-13.113 1.018-26.147-.362-39.24.384-13.386.762-24.83 1.514-36.995-5.357-5.914-3.341-11.183-7.373-17.767-9.283-6.107-1.772-12.472-2.281-18.734-3.253-12.67-1.967-25.06-5.316-37.765-7.165-12.577-1.831-24.372-6.04-36.787-8.45-13.139-2.55-26.12-2.54-39.371-1.277-13.084 1.246-23.838-1.059-36.525-3.904-13.072-2.932-25.975-1.712-39.115.033-12.663 1.682-25.187 2.76-37.9.846-12.956-1.95-25.12-6.503-38.375-5.183-12.93 1.287-25.373 5.192-38.47 5.202-12.519.01-24.755-3.272-37.288-3.284-13.295-.014-26.082 1.026-38.994-3.142-10.345-3.34-22.042-12.328-33.265-9.615-11.932 2.885-19.967 13.495-32.635 15.247-13.192 1.823-23.417 1.816-35.117 9.183-12.07 7.6-21.157 5.562-33.676.067m475.613-501.24c4.7 13.205 6.516 25.66 3.6 39.565-2.769 13.202-7.934 25.741-11.006 38.866-3.028 12.937-5.108 26.56-6.02 39.83-.47 6.862-1.078 13.296-2.916 19.941-1.764 6.375-4.26 12.92-3.854 19.685.84 13.985 11.946 25.01 24.775 28.081 13.767 3.295 24.66-6.379 37.883-7.49 13.046-1.097 25.807 2.18 39.015.46 12.958-1.69 25.757-4.442 38.82-5.246 13.178-.81 26.129 1.244 39.262 1.075 13.454-.172 25.27-5.675 37.338-11.217 11.59-5.323 25.106-11.033 38.067-10.426 6.789.318 12.115 3.91 18.162 6.677 5.966 2.73 12.214 4.764 18.208 7.43 23.66 10.52 46.319 24.64 71.545 31.115 12.56 3.225 25.261 4.165 37.643 8.317 12.814 4.297 25.291 4.654 38.662 4.365 13.328-.287 25.951.257 38.947 3.505 13.286 3.32 25.576 4.537 38.467-1.24 13.291-5.955 18.056-17.742 27.352-28.168 8.74-9.802 20.55-15.72 28.573-26.33 8.057-10.657 18.165-19.284 25.986-30.13 7.784-10.795 16.485-20.85 24.439-31.518 8.347-11.197 16.536-19.437 29.737-24.071 14.319-5.028 24.53-2.895 37.22 5.003 11.925 7.42 23.77 8.844 36.863 12.786 12.545 3.778 23.827 11.073 35.548 16.876 11.688 5.788 23.13 13.067 35.293 17.689 6.174 2.346 12.642 3.06 18.94 4.904 6.032 1.766 11.535 4.931 17.446 7.074 12.408 4.498 25.693 5.322 38.334 8.89 12.506 3.53 22.684 11.987 34.879 16.132 13.223 4.493 25.872 1.316 38.974-1.712 13.747-3.177 25.068.42 38.141 4.754 12.794 4.24 25.005 6.384 38.443 4.963 12.635-1.336 26.955-2.429 38.238-8.828 11.419-6.475 19.342-18.271 27.97-27.994 8.32-9.374 18.669-19.348 24.18-30.82 2.979-6.198 2.906-13.211 4.621-19.766 1.778-6.795 5.871-11.45 11.011-15.882 9.81-8.461 19.53-18.073 29.849-25.81 5.399-4.048 11.414-6.384 17.494-9.084 6.203-2.756 11.084-6.85 16.847-10.292 13.407-8.006 24.34-4.436 37.44 1.55 17.705 8.09 20.016-9.26 20.413-23.51"/><path d="M1017.533-177.985c8.753 15.868 16.98 35.405 18.512 53.754.818 9.788-.514 19.675-.19 29.492.335 10.166.559 19.278-2.436 29.092-2.9 9.501-5.5 18.312-1.384 27.914 3.848 8.98 11.115 15.27 20.79 15.774 10.19.53 18.217-.097 27.885 4.203 8.488 3.775 16.508 9.213 20.387 18.215 3.785 8.785 2.915 18.626 3.21 27.959.31 9.785 2.15 19.215 4.798 28.596 2.68 9.496 5.97 18.698 6.135 28.687.162 9.83-2.216 19.545.466 29.218 2.412 8.693 7.167 18.974 14.017 24.893 7.036 6.08 17.013 8.466 25.36 12.028 17.58 7.503 34.077 13.295 52.885 16.71 18.429 3.348 39.293-.474 55.654 10.276 14.822 9.739 29.133 30.663 48.198 17.752 8.117-5.496 14.684-11.308 24.554-13.315 9.146-1.86 18.935-.498 26.171 5.9 7.263 6.421 10.838 16.128 14.504 24.94 3.712 8.926 9.111 17.541 11.298 27.022 4.458 19.334-4.716 39.909-17.57 53.622-5.76 6.146-14.165 12.696-15.219 21.784-1.065 9.195 7.249 18.44 4.504 27.373-1.203 3.912-4.706 7.006-7.222 10.333-3.045 4.024-5.422 8.707-8.85 12.413-6.92 7.485-16.53 6.676-25.942 6.641-19.143-.072-35.773-.697-54.009 6.228-18.074 6.863-37.056 5.667-56.035 7.142-9.494.739-19.088 1.374-28.558-.003-9.346-1.36-18.233-5.27-27.63-6.246-9.229-.959-18.085 2.015-27.184 2.94-9.162.93-18.608-.218-27.18-3.732-8.82-3.617-16.278-9.635-23.937-15.257-7.765-5.699-16.027-10.601-23.892-16.141-7.552-5.32-14.287-11.374-19.779-18.951-5.732-7.91-9.266-17.135-14.504-25.383-5.17-8.141-10.49-16.08-14.656-24.843-4.063-8.545-5.899-18.354-15.121-22.634-17.827-8.274-35.41 6.169-53.525-.225-8.864-3.129-17.155-7.669-26.14-10.532-8.725-2.78-17.697-4.62-26.655-6.389-9.174-1.81-18.386-3.467-27.4-6.017-9.462-2.677-18.245-7.794-27.79-9.996-10.269-2.37-17.317 2.149-25.752 7.692-8.167 5.368-17.162 8.09-25.678 12.689-17.028 9.194-34.59 8.58-52.77 13.663-8.773 2.453-19.116 5.522-22.259 15.181-2.818 8.663.177 19.015 1.102 27.805 1.039 9.876.415 18.708-2.992 28.04-3.455 9.46-7.099 18.087-8.585 28.169-1.43 9.697-3.783 18.348-6.362 27.744-3.274 11.924 1.576 16.435 7.053 26.315 4.772 8.607 7.866 17.115 14.023 24.956 5.91 7.53 11.002 14.821 15.06 23.603 8.107 17.542 13.75 35.25 23.623 51.927 5.189 8.766 9.827 16.647 19.33 20.797 8.832 3.857 18.712 4.456 27.395 8.757 16.648 8.245 30.375 22.657 44.685 34.27 7.165 5.815 16.343 7.305 23.557 13.155 5.311 4.307 17.321 13.941 15.364 21.887-1.933 7.85-12.956 15.282-17.662 21.527-5.945 7.892-10.123 15.86-17.797 22.246-8.153 6.784-11.68 14.074-16.743 23.298-4.83 8.801-12.129 14.948-19.07 21.925-6.89 6.926-12.273 15.067-18.328 22.738-5.767 7.305-12.09 15-2.843 22.085 7.71 5.907 14.99 9.38 19.33 18.82 4.04 8.783 5.491 18.467 8.604 27.598 3.092 9.07 8.264 16.705 12.452 25.19 4.2 8.51 5.3 17.966 7.988 26.993 2.616 8.79 7.208 17.23 8.29 26.44 1.108 9.43-1.87 18.076-5.3 26.637m-655.088 0c5.703-12.791 12.364-28.901 22.295-38.783 11.15-11.095 28.547-9.647 39.907-21.207 3.912-3.98 11.216-12.636 8.023-18.717-3.22-6.128-15.005-5.797-20.655-6.045-7.341-.322-14.983.525-22.068-1.803-7.483-2.46-12.282-8.562-18.323-13.396-11.93-9.549-26.885-7.453-40.996-9.721-15.08-2.425-28.497-9.337-41.033-18.06-11.884-8.27-23.412-16.531-36.717-22.272-6.888-2.971-14.125-5.827-21.402-7.603-7.307-1.782-14.913-.704-22.225-2.357-15.034-3.4-22.878-18.59-26.351-32.72-3.28-13.34-4.509-33.312-14.137-43.597-10.448-11.16-25.291-13.95-28.825-31.17-3.66-17.84 8.631-28.723 21.761-37.372 12.251-8.07 23.449-17.397 35.358-25.961 12.427-8.937 25.527-16.251 31.958-31.27 6.201-14.482 3.74-29.897-.942-44.378-4.56-14.1-11.28-29.36-4.416-43.855 3.083-6.511 7.208-12.124 9.772-18.95 2.787-7.417 5.785-14.69 8.756-22.032 5.56-13.74 9.594-29.104 11.774-43.833 2.518-17.008-6.205-27.565-17.537-38.731-12.232-12.053-25.195-12.204-41.221-9.736-7.563 1.165-14.364 1.178-21.908-.169-6.857-1.224-13.584-2.93-19.684 1.306-6.666 4.627-10.907 11.338-18.357 15.167-6.422 3.302-13.328 5.398-20.398 6.66-14.321 2.555-28.985 1.523-43.445 2.02-14.785.508-29.549 1.192-44.34 1.538-14.26.334-29.453 2.2-43.546-.415-15.388-2.855-23.006-19.262-37.895-22.489-6.815-1.477-14.061.215-20.925.226-7.774.013-15.29-1.782-22.854-3.41-14.298-3.078-28.814-4.73-43.062-8.113-14.25-3.384-28.342-7.225-42.886-9.06-7.404-.934-14.975-1.22-22.287-2.805-6.976-1.51-13.585-4.54-20.58-5.96-15.187-3.085-28.587 3.243-42.53 8.374-14.52 5.345-28.344 5.043-43.031.396-7.028-2.224-13.835-5.117-21.246-5.489-7.35-.368-14.445 2.005-21.515 3.73-14.986 3.658-28.558 3.804-43.72 1.432-14.205-2.222-30.372 1.695-43.627-4.566-13.518-6.386-24.329-15.704-39.327-18.837-13.494-2.818-33.375.95-40.826-13.775-6.87-13.574-1.86-28.764-6.897-42.503-5.166-14.088-17.14-23.408-12.734-39.998.906-3.41 3.868-7.82 3.854-11.41-.016-3.717-3.608-5.87-6.522-8.552-5.58-5.136-11.415-9.99-16.067-16.077-9.123-11.936-16.238-22.88-28.981-31.184"/><path d="M-334.88-177.985c1.319 8.913 2.432 17.83 1.36 26.844-1.028 8.654-3.858 16.987-5.591 25.501-1.682 8.266-4.546 16.792-5.257 25.18-.701 8.264 2.064 16.074 3.192 24.187 1.188 8.544 3.074 18.367 1.501 26.958-1.572 8.583-5.937 17.136-9.394 25.047-3.45 7.895-6.907 16.139-12.786 22.482-3.162 3.411-7.105 4.626-6.587 9.84.388 3.908 3.512 6.67 6.485 9.139 12.095 10.044 34.543 11.271 49.51 12.99 8.719 1 17.438 1.114 26.05-.796 8.034-1.782 15.676-4.952 23.927-5.637 8.068-.67 16.139.545 24.214.149 8.517-.418 16.766-2.799 24.731-5.824 8.158-3.098 16.134-7.175 24.72-8.91 8.392-1.696 16.991-.855 25.417.032 17.288 1.82 32.12 1.232 48.834-4.016C-97.458-.188-86.911-15.01-67.627-13.298c17.35 1.54 31.512 11.041 46.886 18.334 7.612 3.61 15.344 6.546 22.646 10.845 7.297 4.296 14.323 8.967 22.148 12.222 32.173 13.385 65.125 13.133 99.03 15.072 17.836 1.02 33.069 7.698 50.095 12.207 8.124 2.151 17.183 3.562 25.308.714 8.001-2.806 14.172-8.826 21.285-13.323 6.851-4.331 14.906-5.945 21.724-10.201 7.267-4.537 13.168-12.136 18.679-18.686C265.847 7.144 271.365.02 275.28-7.978c3.967-8.104 6.601-15.488 13.042-21.999 5.627-5.687 12.016-10.523 17.17-16.702 5.559-6.664 9.201-14.664 14.192-21.739 10.32-14.63 26.907-26.69 44.4-18.53 7.52 3.506 14.239 7.823 22.254 10.162 8.033 2.345 16.258 3.545 24.022 6.825 15.66 6.616 30.893 16.078 45.992 24.027 14.887 7.838 28.444 17.764 42.063 27.665 14.16 10.296 31.402 10.486 47.37 16.45 16.445 6.141 32.408 8.818 49.808 10.369 16.766 1.493 33.014-4.822 49.624-1.777 17.216 3.156 32.838 7.074 50.525 6.531 16.315-.5 34.943 3.046 49.449-6.034 14.144-8.854 26.703-21.032 37.824-33.5 11.84-13.272 33.353-12.386 39.367-31.35 4.907-15.474-6.98-36.31 6.161-48.125 6.733-6.053 14.589-10.75 21.396-16.821 6.68-5.959 13.754-10.966 22.723-12.148 16.039-2.114 32.692 1.577 48.977-.16 8.427-.9 16.885-2.465 24.897-5.356 8.938-3.224 14.685-8.612 22.237-13.962 6.825-4.836 16.084-5.282 22.972-.671 7.231 4.84 8.113 14.724 8.347 22.89.52 18.188-2.3 35.941-2.815 54.022-.438 15.403 2.617 35.94 9.289 49.783 7.147 14.828 29.95 20.148 44.035 24.999 8.835 3.042 15.233 6.345 19.039 15.49 3.167 7.611 6.635 15.69 7.55 23.947.96 8.675-.085 17.13 3.228 25.39 3.236 8.068 9.384 14.742 11.114 23.465 1.74 8.774-.64 17.848 1.323 26.624 1.83 8.186 6.503 16.296 10.786 23.362 9.356 15.433 22.055 25.009 37.669 33.086 7.835 4.053 15.646 4.692 24.231 5.57 9.078.929 16.498 4.047 24.826 7.628 17.18 7.385 32.503.59 50.1 2.235 18.685 1.746 24.278 21.19 40.495 27.527 4.13 1.613 8.205 2.594 12.186 4.662 3.777 1.961 7.377 5.13 11.904 5.075 8.28-.1 14.219-8.46 22.191-9.66 14.853-2.233 30.944 21.567 29.589 35.51-.77 7.912-2.415 19.053-6.461 25.896-4.476 7.571-11.963 12.988-18.063 19.087-5.798 5.796-12.195 11.183-17.726 17.234-6.864 7.51-7.03 13.186.453 20.16 4.41 4.109 20.95 12.499 14.23 19.188-6.184 6.157-17.973.247-25.123-.688-8.754-1.145-17.21.983-24.236 6.54-6.315 4.994-9.897 13.029-16.517 17.605-14.163 9.79-35.438 2.007-51.395 2.935-16.761.975-32.199.664-48.402-4.351-8.404-2.6-15.886-4.208-24.658-2.612-8.812 1.604-17.29 4.67-26.34 4.744-18.564.152-28.981-13.271-43.148-23.222-14.708-10.332-27.745-17.72-37.77-33.54-4.918-7.761-8.049-15.695-10.773-24.465-2.562-8.252-6.894-15.456-10.243-23.347-6.504-15.326-7.358-34.358-22.187-44.247-7.235-4.825-17.072-7.188-24.172-.97-5.992 5.247-9.816 16.431-17.98 18.747-6.282 1.781-16.558-6.073-22.829-8.622-7.72-3.139-15.6-5.899-23.556-8.332-16.26-4.972-33.304-6.864-48.74-14.396-7.484-3.651-14.894-7.85-23.128-9.365-9.401-1.731-15.113 1.447-21.832 7.987-11.535 11.228-29.81 20.185-44.923 25.286-17.405 5.875-32.304 1.434-49.146-3.766-15.317-4.728-36.706-6.72-46.616 9.676-4.24 7.013-6.12 17.25-8.489 25.14-2.519 8.39-3.181 17.072-4.008 25.766-1.575 16.567-2.277 34.407-6.057 50.585-4.055 17.352-17.153 31.521-17.19 50.128-.037 18.445 14.65 30.774 29.84 36.852 16.29 6.518 31.041 15.888 34.713 34.55 1.855 9.43 3.904 16.91 9.22 24.965 4.852 7.35 8.436 14.31 11.91 22.427 3.346 7.814 7.168 15.135 14.59 19.441 7.286 4.228 15.72 6.852 23.287 10.605 15.62 7.749 33.073 11.737 48.088 20.616 14.23 8.415 25.59 20.137 38.728 29.959 5.308 3.968 18.211 9.13 18.86 16.93.682 8.209-11.78 15.699-17.371 19.213-13.885 8.728-25.876 19.659-39.455 28.908-16.046 10.93-17.726 29.705-29.15 44.25-5.269 6.71-12.2 9.763-19.114 14.205-7.056 4.532-13.368 9.797-21.11 13.111-4.228 1.81-21.919 6.148-22.073 11.456-.076 2.617 7.114 9.158 8.623 10.76 2.951 3.137 6.047 6.139 8.916 9.358 11.275 12.657 18.638 26.902 23.223 43.294 2.507 8.966 6.538 14.735 11.958 22.004 5.09 6.83 8.204 14.975 11.593 22.774 7.33 16.872 9.33 30.29 4.016 48.158"/><path d="M199.637 895.399c12.39-13.825 24.55-27.863 42.045-34.382 17.022-6.343 31.18-20.075 48.937-23.528 18.314-3.561 35.198-7.676 53.926-7.462 8.964.103 17.15-1.545 25.788-3.862 6.508-1.745 20.418-2.586 24.207-8.948 4.69-7.874-8.123-18.809-14.004-22.748-7.841-5.253-16.069-5.375-25.071-6.645-9.113-1.286-17.858-5.363-27.059-5.917-8.867-.534-17.297 2.697-25.992 3.862-8.91 1.193-17.902-.158-26.826.714-8.838.863-17.41 3.38-26.27 4.224-8.834.84-17.693 2.62-26.52.935-8.939-1.706-18.325-2.62-27.091-5.077-8.494-2.38-16.37-6.558-25.04-8.332-9.17-1.876-18.621-1.396-27.824-3.085-18.844-3.457-32.16-15.139-47.572-25.828-14.694-10.191-31.214-19.526-48.836-22.733-8.624-1.57-18.662-.851-26.477-5.546-7.48-4.493-12.205-13.785-14.739-21.978-4.98-16.104.463-40.293-14.078-51.796-6.7-5.299-19.797-6.56-21.767-16.138-1.82-8.853 6.316-18.785 12.264-24.155 13.577-12.26 32.266-17.834 48.918-23.7 14.8-5.212 35.444-18.177 43.04-32.704 7.808-14.936 8.622-39.005 2.796-54.705-6.443-17.364-17.616-31.89-17.543-51.362.077-20.187 9.309-34.049 19.674-49.979 5.32-8.176 9.52-16.012 17.294-22.039 7.418-5.75 10.73-14.026 9.556-23.698-1.13-9.318-7.378-17.782-11.912-25.674-5.097-8.87-13.207-12.55-21.18-18.193-7.467-5.286-12.556-12.534-18.888-19.06-7.632-7.869-15.827-8.66-25.447-12.476-8.442-3.349-12.271-11.27-18.348-17.773-4.186-4.48-14.503-20.168-21.064-15.327-7.676 5.664-2.995 18.653-8.535 25.414-2.803 3.42-7.911 3.724-11.631 5.598-4.182 2.108-6.968 5.593-9.298 9.656-4.846 8.451-7.85 16.812-16.325 22.297-7.511 4.862-16.502 6.133-24.597 9.566-9.06 3.842-16.08 7.438-25.963 8.7-8.734 1.115-17.282 3.525-26.038 4.385-9.294.912-18.586-.689-27.89-.286-8.79.381-17.457 2.47-26.278 2.125-20.29-.792-31.896-17.738-50.775-22.364-8.572-2.1-17.544-1.383-26.259-2.29-8.908-.927-17.623-3.27-26.345-5.262-17.276-3.944-34.355-9.094-51.349-14.184-17.218-5.157-33.971-12.331-51.283-17.052-9.186-2.504-18.63-1.125-27.98-.544-8.627.536-17.739.024-26.145 2.147-9.105 2.3-17.023 7.92-26.36 9.508-8.8 1.496-17.67.559-26.492-.31-18.802-1.85-35.068 1.348-53.508 4.43-18.558 3.103-34.836-3.328-52.932-6.355-18.245-3.051-32.231-14.62-48.718-22.513-7.692-3.682-16.81-6.8-23.253-12.562-7.585-6.782-8.683-18.25-6.135-27.711 2.366-8.783 8.013-16.098 9.626-25.144 1.62-9.086 2.81-19.338 2.662-28.58-.28-17.429-3.364-39.938-18.014-50.873-7.664-5.72-13.838-10.81-20.478-17.827-6.347-6.707-14.367-9.717-21.85-14.747-7.448-5.005-14.245-10.387-22.46-14.063-8.605-3.85-15.1-7.977-21.831-14.773"/><path d="M-382.735-177.985c3.491 12.342 5.083 23.801 3.417 36.619-1.693 13.03-3.376 25.365-1.983 38.552 1.316 12.448 4.036 24.358 10.153 35.28 5.953 10.63 14.414 22.018 1.124 30.98-4.94 3.333-11.156 4.141-16.216 7.253-5.569 3.424-6.839 8.095-8.383 14.369-3.208 13.032-8.273 21.734-16.108 32.304-3.527 4.76-7.923 10.85-5.668 17.218 1.907 5.388 7.554 9.251 12.13 11.896 11.228 6.487 21.957 4.603 34.17 3.678 12.648-.957 24.75 3.618 37.322 4.077 12.836.469 22.95-3.789 34.574-8.733 11.564-4.92 23.142-6.325 35.454-3.846 12.649 2.546 24.026 7.494 36.985 3.367 12.074-3.845 19.658-14.12 30.965-19.267 11.423-5.2 23.592-3.13 35.634-2.695 12.4.449 25.386-.406 37.455-3.5 12.363-3.168 21.067-10.436 31.7-17.102C-78.949-4.471-66.903-3.813-54.973.38c11.764 4.135 23.833 8.198 35.365 12.974C-8.364 18.01 2.063 23.941 11.714 31.5c10.547 8.26 20.685 9.824 33.232 13.137 12.329 3.256 23.386 8.409 36.355 8.433 12.077.022 24.124-1.576 36.2-.354 11.767 1.19 23.751 4.478 35.041 8.012 11.338 3.549 21.507 9.636 32.539 13.873 14.568 5.595 21.521-2.966 33.097-10.56 10.209-6.696 23.062-6.852 34.094-11.985 11.29-5.254 20.894-12.643 27.097-23.83 6.245-11.262 9.398-23.939 16.459-34.803 13.307-20.48 32.063-37.63 50.311-53.237 18.316-15.667 51.347-3.067 69.728 7.308 10.726 6.054 20.013 13.062 31.39 18.013 12.217 5.316 21.174 12.457 30.593 21.922 16.278 16.356 41.81 26.562 63.898 31.273 12.247 2.613 24.786 2.784 37.164 4.347 12.1 1.528 23.94 5.078 36.203 5.03 11.922-.047 23.715-1.585 35.667-1.225 12.45.375 24.86 1.623 37.298 2.236 23.945 1.18 49.509 3.358 70.057-11.625C768.405 9.98 775.4-1.15 785.253-9.13c9.614-7.785 21.462-11.833 31.329-19.332 9.925-7.544 17.265-16.53 22.679-27.926 2.784-5.86 5.578-11.98 6.935-18.386 1.306-6.166 1.179-12.577 2.761-18.693 6.925-26.76 40.619-25.367 62.211-26.629 12.342-.72 24.365 2.57 36.708.973 12.27-1.587 23.307-3.705 27.957 10.807 3.956 12.342-1.018 24.034-.919 36.475.1 12.325 3.233 25.51 5.407 37.641 2.323 12.965 8.897 21.973 19.71 28.92 10.638 6.834 23.669 8.805 33.586 16.772 9.817 7.885 17.198 18.406 19.224 31.196 1.988 12.543 2.553 24.319 8.36 35.866 5.847 11.63 13.433 21.09 18.07 33.525 4.36 11.69 8.682 23.672 16.058 33.776 7.032 9.63 15.549 18.925 23.208 28.058 7.266 8.662 21.713 15.276 32.637 17.08 5.927.979 11.51-.645 17.403-1.459 6.654-.918 12.41.026 18.673 2.486 11.712 4.599 21.695 8.791 34.449 9.223 12.148.411 25.221-1.982 35.307 6.532 9.547 8.06 10.647 23.088 21.081 29.885 9.558 6.226 21.904 10.76 24.597 23.749 2.769 13.352-13.045 19.958-23.512 21.774-11.724 2.035-23.69-1.077-35.245 2.607-5.641 1.8-11.673 4.35-11.685 11.079-.011 6.107 5.407 12.104 8.865 16.581 6.112 7.913 18.598 18.136 20.787 28.226 2.95 13.604-13.439 18.775-23.645 18.093-12.596-.841-23.53.968-35.999 2.036-12.218 1.046-23.964-2.358-35.744-5.144-13.085-3.094-23.895-1.741-36.881.926-11.863 2.436-24.493 3.315-35.526-2.786-10.796-5.97-17.48-16.997-28.633-22.468-5.619-2.756-12-4.54-16.928-8.62-4.742-3.926-8.45-9.868-11.558-15.172-6.269-10.693-10.314-22.397-12.415-34.69-2.075-12.143-1.67-24.839-5.395-36.632-3.937-12.467-12.662-22.372-19.974-32.818-7.132-10.189-12.543-21.89-24.817-26.468-10.836-4.042-23.826.119-33.297 6.124-7.457 4.731-5.698 10.376-3.764 17.576 3.013 11.224 6.55 15.528-8.39 13.415-15.564-2.201-28.578-11.931-43.609-15.528-11.44-2.736-20.018-5.557-29.798-12.453-8.873-6.256-17.833-11.377-28.703-12.455-11.377-1.129-20.056 4.4-28.882 11.081-4.209 3.187-8.337 6.3-11.404 10.68-3.361 4.801-5.038 10.642-8.588 15.316-6.493 8.551-17.789 11.64-27.974 12.097-11.675.524-20.23-5.55-30.188-10.771-20.725-10.866-39.921-3.145-61.598-2.563-10.624.285-21.354-2.238-31.95-.89-12.244 1.557-14.906 9.637-19.37 20.24-4.474 10.622-7.403 21.151-9.874 32.431-2.292 10.47-5.578 20.988-5.386 31.81.19 10.66 3.551 21.24 8.978 30.303 4.793 8.004 17.925 16.867 12.99 26.779-4.941 9.926-9.29 17.667-11.045 28.972-1.613 10.387-3.347 21.625-2.918 32.153.87 21.407 26.922 37.336 44.908 42.659 11.59 3.43 17.99 7.115 23.927 18.17 5.084 9.465 10.864 18.18 16.703 27.152 5.447 8.37 7.055 20.222 14.177 27.12 7.046 6.824 20.462 8.125 29.282 12.385 19.181 9.263 37.738 18.673 57.658 26.197 10.155 3.835 20.305 8.312 28.951 15.13 8.116 6.4 14.759 14.363 23.159 20.434 1.677 1.212 5.758 3.51 6.212 5.859.464 2.406-1.723 3.606-4.201 5.588-3.975 3.179-8.434 5.985-12.85 8.482-9.093 5.143-19.087 7.717-28.469 12.13-21.974 10.338-22.108 34.962-35.828 52.606-15.049 19.354-36.266 16.695-57.586 19.674-9.735 1.36-23.699 2.789-30.41 10.976-6.371 7.772-8.158 19.17-5.578 28.905 5.55 20.939 22.412 36.448 31.724 55.34 9.71 19.7 14.105 42.317 16.26 63.996 1.072 10.776 4.63 20.472 8.793 30.346"/><path d="M266.764 895.399c4.359-11.24 10.555-18.633 23.156-18.717 11.381-.075 19.202 5.815 28.97 10.884 10.37 5.382 22.575 5.178 32.403-1.605 4.304-2.97 7.564-7.215 11.052-11.094 3.924-4.365 8.373-7.431 12.882-11.074 8.733-7.057 11.966-18.831 22.396-23.792 9.704-4.615 21.404-4.854 31.891-4.45 11.084.428 23.355 1.925 31.473-7.644 8.364-9.86 4.27-19.33-1.749-29.1-6.43-10.439-12.11-17.086-22.956-22.86-9.665-5.146-20.018-12.091-30.72-14.586-10.768-2.512-21.882.903-32.745.798-10.99-.106-21.901-2.386-32.894-2.03-11.145.36-20.137 5.823-30.452 9.48-10.599 3.76-21.557 4.77-32.685 5.341-11.33.581-22.515 1.249-33.735 3.058-10.81 1.742-21.147 2.954-31.996.78-10.549-2.112-20.397-6.504-30.765-9.27-10.702-2.854-21.825-1.328-32.53-3.961-10.55-2.595-22.542-5.396-31.742-11.49-9.288-6.152-16.132-15.484-25.482-21.49-9.064-5.824-19.49-9.206-29.563-12.704-9.997-3.471-21.352-5.159-30.63-10.399-10.585-5.978-16.309-16.333-17.05-28.58-.761-12.566-.883-21.037-7.913-31.825-6.389-9.803-9.822-18.263-2.57-28.8 6.983-10.148 17.182-13.389 28.74-13.017 12.548.403 19.041-2.729 28.184-11.466 4.566-4.363 8.981-7.743 14.77-10.187 4.605-1.944 9.075-3.29 12.852-6.811 4.314-4.021 7.314-9.6 11.224-14.03 3.68-4.17 7.754-8.021 11.122-12.478 6.972-9.226 11.263-20.244 8.724-31.952-4.614-21.27-16.888-41.129-25.034-61.095-3.949-9.68-10.29-22.169-8.489-32.992 1.941-11.66 12.517-18.88 22.24-23.287 10.1-4.579 19.163-8.468 27.281-16.428 7.364-7.22 16.406-16.372 18.124-27.13 1.895-11.858-5.33-21.802-11.597-30.988-6.382-9.355-14.688-15.09-23.57-21.68-18.261-13.548-35.76-26.008-49.547-44.633-6.777-9.155-12.905-18.465-16.796-29.33-3.7-10.332-5.455-21.562-12.297-30.314-6.75-8.635-16.732-15.809-27.325-18.102-10.865-2.353-22.242-.492-33.215-2.294-21.401-3.515-40.802-25.133-62.434-8.761-8.94 6.767-13.91 17.165-15.698 28.29-1.69 10.52 2.281 23.247-1.52 33.193-3.497 9.149-16.404 10.979-22.726 18.566-9.07 10.884-4.231 21.022-5.232 33.607-1.065 13.395-12.796 16.628-23.684 18.485-10.002 1.707-19.312 6.935-29.248 8.262-11.179 1.493-20.006-6.723-29.358-11.584-10.015-5.205-20.644-6.87-31.64-8.413-21.675-3.043-42.36-10.028-63.095-16.894-21.023-6.962-43.12-10.103-62.934-20.77-9.74-5.243-18.292-10.82-29.673-9.366-5.926.757-11.635 2.927-17.655 2.985-5.214.05-10.112-1.438-15.144-2.693-12.86-3.207-20.32.866-31.942 6.044-10.603 4.723-21.165 3.912-32.428 4.466-21.562 1.061-42.096 7.94-63.179 11.895-12.507 2.346-21.207-1.8-32.258-7.186-10.254-4.999-21.505-4.714-31.914-8.898-9.758-3.923-17.67-11.76-25.824-18.323-7.535-6.066-19.283-14.265-15.907-25.755 3.295-11.213 14.833-15.186 24.477-17.863 13.453-3.734 10.236-16.2 8.066-27.653-2.017-10.652-3.919-21.261-8.829-30.96-4.962-9.8-10.499-19.153-15.138-29.152-4.718-10.168-8.856-21.255-15.02-30.61-3.086-4.682-7.166-8.356-10.835-12.51-3.99-4.519-6.3-9.695-9.182-14.97-5.462-9.992-17.22-13.157-20.216-24.167-2.66-9.78-5.124-22.49-5.195-32.671-.09-12.966 11.886-13.56 19.267-21.275 7.362-7.694 10.018-20.33 11.778-30.644 1.844-10.81 3.806-24.708-1.309-34.903-4.92-9.807-16.26-16.189-23.897-23.588-7.591-7.354-14.016-14.856-17.998-24.878-4.107-10.337-7.823-20.898-11.66-31.347"/><path d="M-453.814-177.985c6.023 6.038 12.718 11.643 18.419 17.982 5.814 6.465 7.01 12.554 5.5 21.145-1.565 8.893-4.274 17.2-3.62 26.391.573 8.037 3.273 15.44 6.673 22.61 3.476 7.33 7.664 14.346 10.076 22.16 2.586 8.377 3.597 17.354 4.604 26.053 1.862 16.07-.328 32.56-8.657 46.676-10.258 17.386-27.394 14.314-44.058 14.22-8.466-.048-15.533 3.748-23.08 7.231-7.906 3.65-14.613 5.005-17.71 14.094-7.769 22.811 17.456 22.973 31.876 24.481 7.85.821 14.958 3.562 22.492 5.785 8.13 2.4 16.116 2.893 24.53 2.563 16.587-.65 31.79-1.426 47.825-6.099 16.437-4.79 30.219-.743 46.686 1.035 8.79.95 16.658-.009 24.54-4.266 6.822-3.686 12.831-8.957 20.486-10.62 17.047-3.703 31.35 9.273 47.153 12.65 16.347 3.493 31.953-4.774 44.386-14.92 13.773-11.24 27.867-11.325 44.649-13.248 8.758-1.004 16.218-4.045 24.537-6.71 7.132-2.286 14.347-3.022 21.045-6.656 7.33-3.977 13.425-10.318 21.248-13.38 7.843-3.069 16.69-2.665 24.8-1.158 15.176 2.82 31.522 8.095 45.785 14.15 14.832 6.295 24.614 20.5 40 25.502 8.198 2.666 16.776 3.726 24.903 6.709 6.963 2.556 13.454 6.318 20.856 7.33 8.313 1.137 16.61-1.24 24.872-1.855 8.276-.615 16.631.119 24.791 1.573 16.17 2.881 30.015 9.597 44.924 16.242 7.68 3.423 14.46 7.132 21.715 11.384 8.164 4.785 13.817 4.2 21.504-1.462 6.842-5.04 12.34-10.97 21.061-12.162 7.746-1.058 15.57-.004 23.278-1.653 17.808-3.809 25.924-20.012 35.6-34.2 9.223-13.521 13.57-29.414 24.016-42.226 10.212-12.525 22.22-23.32 34.927-33.054 6.467-4.954 12.904-10.417 19.971-14.45 7.884-4.5 13.872-4.177 22.077-.65 15.396 6.616 26.808 19.278 41.977 25.804 7.25 3.119 13.838 6.374 19.662 11.95 6.261 5.996 10.753 13.966 18.896 17.529 7.266 3.178 15.346 4.443 22.724 7.542 7.233 3.04 14.3 6.516 21.424 9.816 7.4 3.427 14.735 7.69 22.493 10.166 7.507 2.396 15.37 3.09 23.135 4.151 16.118 2.205 31.82 8.369 47.95 9.716 15.648 1.307 32.797-.814 48.482-1.973 15.686-1.159 30.76-5.482 46.606-5.113 16.954.395 31.363 3.578 47.26-4.398 7.456-3.74 14.892-7.691 20.791-13.797 5.528-5.722 9.972-12.428 15.657-18.005 5.732-5.621 12.236-10.559 19.32-14.228 7.708-3.991 16.504-5.236 24.088-9.389 14.094-7.718 17.658-26.756 22.997-40.886 5.787-15.316 8.606-33.235 24.061-41.354 13.5-7.092 32.285-9.257 47.103-6.818 7.5 1.234 16.276 3.194 22.968 6.98 8.01 4.53 9.322 13.585 9.902 22.207.505 7.51.854 15.26.202 22.77-.768 8.85-4.525 17.21-5.057 26.024-.614 10.158 5.659 13.276 12.794 18.702 6.553 4.984 10.197 12.519 16.442 17.736 12.469 10.416 29.702 12.301 41.268 24.473 12.485 13.138 8.3 32.636 16.476 47.657 3.73 6.854 10.282 11.538 15.358 17.337 5.83 6.659 10.127 13.942 13.492 22.186 6.073 14.882 12.188 30.244 22.34 42.774 5.28 6.518 11.773 11.85 17.115 18.305 5.293 6.396 7.827 13.673 11.824 20.833 10 17.91 29.564 10.3 43.448 2.926 7.693-4.086 13.866-4.623 21.91-.975 8.308 3.77 15.991 7.517 24.617 10.52 7.606 2.647 13.553 7.788 20.31 12.084 5.253 3.34 16.715 8.14 18.286 15.052 3.002 13.205-27.132 23.353-34.59 30.257-5.18 4.795-13.057 13.805-14.825 20.895-1.68 6.729 5.664 13.867 8.84 19.644 7.212 13.11 12.171 37.827-9.148 37.343-15.789-.36-30.236-8.1-46.381-7.234-8.66.465-16.642 3.311-25.086 4.899-7.534 1.417-16.308.276-23.852-.969-17.036-2.812-22.418-22.439-38.11-28.3-7.313-2.73-15.326-3.874-21.03-9.698-5.861-5.983-8.273-15.467-9.672-23.59-2.74-15.905-.816-32.238-3.804-48.121-3.274-17.401-10.873-31.384-21.145-45.331-4.593-6.236-9.028-13.444-15.499-17.83-6.99-4.74-15.822-5.868-23.94-6.77-15.383-1.711-32.71-4.44-48.02-1.145-16.083 3.461-27.305 15.888-44.78 11.551-15.926-3.953-28.907-15.59-44.61-20.493-15.574-4.863-33.432-3.76-47.415 5.466-6.867 4.53-10.64 11.4-15.389 18.009-5.055 7.037-11.94 11.356-19.434 15.302-15.942 8.395-29.437 2.345-46.11 1.04-15.954-1.25-31.707 3.2-47.603 1.742-16.585-1.52-32.18-8.473-48.557-10.986-16.895-2.592-31.275 1.583-44.462 12.38-6.36 5.207-13.804 8.579-20.15 13.694-6.578 5.302-9.02 12.433-10.337 20.766-2.598 16.432-3.413 33.285 2.946 48.87 6.61 16.2 17.617 28.735 29.282 41.193 5.254 5.611 10.265 11.45 15.144 17.407 6.994 8.54 3.26 14.068 1.575 24.047-2.669 15.8-10.155 30.842-10.352 46.984-.19 15.542-1.8 35.957 14.138 43.292 15.217 7.004 30.918 10.392 45.583 19.094 14.233 8.446 25.267 20.582 32.643 35.748 3.496 7.188 6.374 14.814 12.19 20.373 5.996 5.73 14.314 8.602 21.905 11.3 14.875 5.289 29.539 11.115 43.96 17.628 14.17 6.4 28.298 12.948 42.452 19.391 7.924 3.608 12.356 8.013 17.591 14.94 4.833 6.395 10.698 10.554 16.995 15.3-13.276 6.11-27.885 8.166-38.74 18.917-5.826 5.769-8.75 12.8-13.097 19.635-3.922 6.166-9.916 9.34-14.52 14.751-4.74 5.569-6.557 13.143-10.918 18.929-5.64 7.482-13.443 5.904-21.6 5.18-13.56-1.203-29.455 1.907-42.464 6-12.426 3.91-31.416 10.03-37.943 22.59-3.25 6.255-4.063 13.37-7.99 19.384-3.863 5.917-9.074 11.045-13.49 16.525-2.309 2.866-5.02 5.906-6.82 9.142-2.52 4.533-3.138 5.585.195 8.613 5.61 5.099 15.085 5.074 22.082 6.018 14.622 1.972 28.217 6.505 33.687 21.935 2.858 8.064 2.89 16.984 4.253 25.384 1.364 8.402 3.414 16.658 4.18 25.159 1.48 16.423 1.113 33.145 1.9 49.633"/><path d="M-649.426-11.421c4.082-16.74 15.614-22.517 25.578-35.038 5.254-6.602 5.52-14.11 6.34-22.324.724-7.249 2.574-14.115 3.888-21.245 1.397-7.578 1.397-15.01-.889-22.385-2.572-8.301-8.073-12.599-14.024-18.273-11.396-10.865-17.048-27.04-2.415-38.4 13.062-10.14 29.755-2.415 36.486 11.192 7.05 14.251 14.598 26.58 13.056 43.003-1.583 16.853 4.177 28.05 21.293 30.675 7.9 1.212 14.722 2.429 22.096 5.75 7.394 3.33 13.663 5.524 21.671 3.04 5.536-1.717 14.323-8.212 20.223-4.994 2.847 1.553 5.156 6.203 7.42 8.541 2.436 2.516 5.27 4.4 8.307 6.115 13.483 7.62 22.839 15.364 29.42 30.2 3.328 7.5 3.927 14.719-3.382 19.68-6.009 4.08-12.822 6.134-18.4 11.031-5.424 4.76-9.44 10.374-16.412 12.925-7.065 2.584-14.59 1.819-21.929 1.859-15.052.08-31.174 7.452-34.917 23.847-3.254 14.257-3.475 29.463-1.472 43.887 1.196 8.611 3.921 13.116 12.56 14.72 7.29 1.354 14.781 1.099 22.165.637 14.177-.886 28.3-5.497 42.523-4.968 6.887.256 13.58 2.146 20.387 3.026 7.665.99 15.01.102 22.622-.895 14.71-1.926 28.981.042 42.587-7.035 6.323-3.29 12.376-6.976 19.48-8.072 7.426-1.144 14.95.939 22.132 2.642 7.486 1.777 15.23 3.989 22.993 3.282 7.012-.639 12.948-4.163 19.182-7.195 15.049-7.317 27.102-2.988 41.828 3.004 14.058 5.72 27.322 7.072 42.342 7.524 14.691.442 29.967-1.483 41.208-11.802 5.499-5.048 10.47-11.307 16.866-15.216 6.057-3.701 13.21-4.393 20.03-5.463 16.28-2.554 27.367-8.654 40.338-18.706 11.864-9.193 24.978-13.016 39.803-11.786 14.433 1.198 29.702 5.818 42.826 12.065C-2.661 39.594 6.5 51.767 20.025 56.681c13.945 5.066 26.623 14.49 41.447 16.785 14.193 2.198 27.862-3.154 42.051-2.585 14.522.583 29.866 4.951 43.132 10.974 13.287 6.031 19.567 20.498 33.602 25.259 7.02 2.381 15.117 5.95 22.26 3.48 7.091-2.453 12.762-8.21 20.179-9.903 14.204-3.242 27.65 6.464 42.34 1.894 15.059-4.684 20.825-21.26 27.816-34.194 7.137-13.201 16.773-23.398 25.29-35.498 8.82-12.53 13.56-27.204 24.754-38.046 5.075-4.915 10.827-8.282 16.821-11.821 6.17-3.642 12.126-10.367 19.104-11.737 7.61-1.494 15.164 4.54 22.048 7.154 7.014 2.664 12.643 5.088 18.45 10.153 11.572 10.092 20.983 20.237 35.807 25.249 13.988 4.73 27.902 6.556 41.182 13.625 12.89 6.862 25.129 14.853 38.936 19.71 13.734 4.833 28.048 7.195 41.484 12.987 14.376 6.197 27.665 8.933 43.145 5.804 14.162-2.863 28.4-2.588 42.502-5.135 15.058-2.721 28.03-9.611 43.715-9.065 14.159.493 28.228 4.986 42.439 2.877 16.738-2.485 23.868-15.013 34.74-26.593 9.322-9.93 18.88-23.127 31.388-28.858 6.871-3.148 14.602-3.533 21.43-6.735 7.107-3.334 10.698-10.104 14.71-16.683 7.691-12.612 12.246-25.728 18.661-38.897 6.618-13.583 17.286-26.453 31.777-31.094 14.914-4.776 28.307.908 37.937 13.196 6.086 7.767 3.049 13.142-.579 21.403-2.977 6.781-5.946 13.687-7.514 20.984-6.694 31.144 30.282 51.427 52.866 63.444 13.515 7.192 21.843 17.715 30.605 30.205 8.853 12.62 11.836 27.803 23.547 38.163 11.43 10.112 19.257 20.13 24.757 34.737 5.45 14.475 8.424 29.27 18.828 41.118 4.665 5.313 10.111 9.836 14.886 15.036 5.167 5.627 8.145 11.99 11.32 18.923 6.149 13.425 19.303 24.488 34.532 24.274 14.637-.206 21.691-21.003 36.49-17.942 7.74 1.6 12.737 8.967 18.178 14.106 5.307 5.01 11.723 7.913 17.887 11.629 3.574 2.155 6.987 3.924 4.892 7.896-1.605 3.043-6.224 4.563-9.092 6.094-6.753 3.602-13.357 6.847-18.588 12.696-10.529 11.771-12.446 27.395-14.45 42.492-.874 6.574-2.062 14.994-8.339 18.564-5.919 3.366-14.354 1.746-20.804 2.736-14.849 2.28-27.467 11.152-42.91 6.23-7.413-2.364-11.852-7.545-17.483-12.702-5.565-5.097-11.822-8.76-18.731-11.59-15.356-6.287-26.616-11.128-26.136-30.305.38-15.22 2.438-29.672.254-44.915-2.025-14.133-4.068-30.849-11.674-43.056-4.095-6.571-9.887-12.009-14.792-17.95-4.458-5.397-9.019-10.72-15.267-13.987-13.09-6.845-28.782-2.7-42.783-5.543-14.132-2.87-27.658-10.09-42.208-10.566-14.853-.486-29.178 4.769-44.153 3.317-29.738-2.882-55.14-20.868-85.64-10.933-14.614 4.76-25.105 10.45-35.548 22.065-10.018 11.143-22.823 20.515-37.298 24.317-13.415 3.524-28.362 2.908-42.15 3.512-15.36.674-29.301-2.329-43.39-8.563-13.786-6.1-25.905-9.457-40.986-6.774-14.338 2.551-29.227 7.944-42.3 14.491-12.752 6.387-22.168 18.361-35.402 23.755-7.16 2.918-15.472 2.849-21.901 7.4-5.658 4.006-10.534 11.728-14.366 17.622-8.65 13.3-5.104 29.651 7.743 38.669 6.166 4.327 13.538 6.5 19.945 10.395 6.565 3.99 11.254 9.555 16.06 15.562 9.153 11.438 18.03 23.053 27.363 34.332 10.555 12.756 13.894 26.134 10.552 42.633-2.954 14.589-7.236 27.296-7.136 42.434.108 16.582-1.121 31.213 12.924 41.994 11.312 8.684 24.338 14.756 37.287 20.347 13.377 5.775 29.024 9.653 39.712 20.307 10.396 10.363 13.916 24.951 25.625 34.355 12.169 9.771 25.197 15.199 39.477 20.721 13.357 5.165 27.134 10.104 40.106 16.21 12.214 5.751 29.86 10.04 34.947 24.17 6.441 17.889-10.645 23.554-20.895 34.073-10.563 10.841-21.995 20.303-34.703 28.414-12.568 8.023-25.368 11.415-39.769 14.161-7.032 1.341-14.015 2.787-20.361 6.289-6.807 3.755-12.26 9.758-18.471 14.427-11.794 8.865-22.613 16.407-32.775 27.261-10.564 11.285-27.242 15.464-27.415 33.888-.159 16.881 12.632 24.501 20.294 37.604 4.355 7.447 7.141 12.895 13.914 18.398 5.938 4.824 10.965 9.219 11.55 17.487 1.142 16.185-9.802 26.523-18.615 38.304-9.897 13.23-22.7 17.102-37.797 22.04-12.673 4.144-30.025 8.81-41.848-.108-13.966-10.533-9.078-28.402-15.53-42.494-3.031-6.62-8.015-11.93-10.756-18.781-2.688-6.721-4.8-13.438-8.016-19.96-6.229-12.634-10.504-30.823-22.23-39.218-5.958-4.265-13.134-5.77-19.52-9.21-6.274-3.38-11.362-8.608-17.364-12.402-11.931-7.543-29.847-6.806-43.243-4.585-7.072 1.172-14.13 2.318-21.298 1.326-6.649-.92-13.8-4.716-20.545-3.677-7.046 1.086-14.883 5.197-21.638 7.641-6.823 2.47-13.25 5.684-19.781 8.859-13.103 6.37-26.255 10.253-40.84 10.132-7.665-.064-15.213-.699-22.815.614-7.302 1.261-14.36 4.43-21.8 4.82-13.435.702-28.39-5.316-41.336-8.732-14.622-3.858-29.538-2.02-44.15-5.263-14.98-3.325-25.37-12.044-36.337-22.498-11.167-10.644-24.958-15.683-38.249-22.848-11.429-6.16-28.132-11.943-35.105-23.696-3.983-6.714-3.122-15.12-3.968-22.636-.905-8.032-3.71-14.203-7.53-21.174-1.709-3.121-3.532-5.294-2.672-8.32 1.13-3.976 5.674-5.791 9.12-6.75 7.006-1.948 14.271-.856 21.02-3.953 7.255-3.328 12.08-10.258 18.063-15.346 5.955-5.064 11.852-6.66 19.385-7.739 7.25-1.038 13.623-2.355 20.06-6.125 6.234-3.652 11.881-8.039 18.443-11.113 13.968-6.543 25.011-16.96 30.164-32.245 4.966-14.733 2.359-29.257-1.927-43.74-4.224-14.28-7.336-28.94-12.72-42.822-4.218-10.878-16.07-30.76-6.979-41.426 4.401-5.163 12.109-7.066 17.566-10.798 6.514-4.454 11.327-10.842 16.323-16.926 9.11-11.094 20.798-20.37 22.686-35.633 1.879-15.188-1.649-32.273-12.278-43.327-20.697-21.527-47.483-33.577-70.541-51.845-11.252-8.914-19.216-21.086-28.409-32.093-10.42-12.476-13.694-25.758-18.47-41.04-2.21-7.071-4.968-14.898-10.192-20.276-5.001-5.15-12.22-7.226-18.66-9.716-14.602-5.646-28.644-4.416-43.824-6.338-29.012-3.673-56.147-18.42-83.327-28.438-15.028-5.54-28.065 3.647-32.382 18.826-4.076 14.332-6.386 30.377-8.22 45.19-3.544 28.626-13.554 59.133-30.528 82.406-3.856 5.286-8.664 12.399-15.145 14.421-6.927 2.161-13.076-2.31-18.82-5.873-14.145-8.773-26.369-8.133-42.369-8.101-14.494.028-29.088-1.505-42.413-7.76-14.29-6.707-25.355-13.357-41.395-14.46-14.548-1.001-27.743-5.924-41.164-11.613-6.691-2.835-12.959-6.72-20.176-7.888-7.831-1.269-15.156 2.07-22.727 3.527-14.025 2.7-27.854-2.514-42.064-.052-14.985 2.597-29.414.857-44.351 2.506-7.059.779-13.996 2.438-21.052 3.256-6.952.806-14.04.469-20.956 1.589-15.56 2.52-26.675 13.095-42.418 4.902-6.444-3.353-12.427-7.48-19.288-9.951-6.444-2.32-13.203-3.621-19.669-5.892-6.697-2.352-13.778-5.239-19.618-9.409-2.024-1.446-5.677-3.442-5.496-6.1.256-3.75 5.933-4.441 8.782-5.282 7.171-2.118 14.475-3.34 21.254-6.667 6.175-3.03 11.417-7.68 16.977-11.71 4.467-3.236 3.344-3.597.903-8.679-1.81-3.766-3.65-7.043-4.85-11.078-2.01-6.75-3.466-13.624-5.762-20.298-4.632-13.465-10.187-26.235-17.138-38.57-7.027-12.47-11.056-26.697-16.173-40.077-2.593-6.782-4.086-13.48-5.578-20.579-1.524-7.247-4.573-14.133-5.638-21.483-2.032-14.03 2.16-29.029 5.824-42.465"/><path d="M-109.835 69.281c6.383-17.439 21.767-25.17 37.733-32.281 17.088-7.612 31.715-.298 47.855 6.485 7.585 3.189 15.584 6.39 22.324 11.27 6.95 5.033 11.117 13.187 18.282 17.801 6.99 4.501 16.52 2.67 23.248 7.278 3.197 2.19 4.824 7.043 8.121 9.084 3.482 2.155 8.732 1.728 12.583.926 7.913-1.648 14.296-6.784 22.115-8.622 8.352-1.965 17.667-1.603 26.102-.449 8.522 1.167 16.563 3.373 22.857 9.671 5.752 5.756 10.307 12.66 16.018 18.495 6.102 6.235 9.176 14.205 14.697 20.836 2.319 2.784 6.611 6.954 10.647 6.73 2.83-.157 8.522-4.695 11.829-5.697 8.106-2.456 15.633-4.181 23.36-7.882 7.962-3.813 14.553-6.688 23.338-4.15 8.237 2.377 15.39 7.33 24.183 7.638 8.326.291 16.888-2.483 24.842-4.677 7.901-2.18 16.57-4.498 23.12-9.778 7.001-5.645 7.125-13.58 8.01-22.15 1.994-19.326 13.786-31.006 23.572-46.578 9.382-14.93 16.307-28.2 30.377-39.114 15.866-12.307 30.937-10.08 46.014 2.58 13.839 11.62 26.138 18.319 43.86 21.553 8.564 1.563 17.505 1.926 25.977 3.852 7.955 1.808 14.311 7.082 20.984 11.569 6.94 4.665 14.533 7.784 21.745 11.918 7.611 4.363 14.278 9.095 22.49 12.334 15.68 6.185 30.088 16.2 46.909 18.787 16.967 2.608 31.025-9.598 47.332-13.008 16.017-3.349 32.464-5.067 48.578-8.022 8.155-1.496 17.271-3.28 25.072.514 6.975 3.393 11.976 10.917 19.303 13.436 4.762 1.637 17.496-3.08 15.454 8.181-1.158 6.387-7.934 4.58-11.298 8.374-10.254 11.568-.067 23.655-1.352 36.338-2.646 26.118-27.287 35.729-49.034 37.96-11.038 1.131-22.074 2.399-33.073.222-11.125-2.201-21.23-7.19-31.509-11.862-10.673-4.85-20.292-6.013-31.846-4.744-10.8 1.187-22.251 1.714-32.464 5.79-20.356 8.122-38.177 21.394-58.393 29.829-10.502 4.382-20.014 9.224-31.168 11.767-10.607 2.418-21.902 4.977-29.326 13.763-6.922 8.193-8.106 20.76-9.567 31.128-1.69 11.983-1.079 21.69 9.324 28.916 8.92 6.197 18.681 12.368 27.963 17.975 9.9 5.98 21.442 6.989 31.732 11.909 19.318 9.236 29.154 35.058 35.284 54.55 3.988 12.682-.344 20.12-4.253 32.087-3.545 10.857-3.647 22.176-1.001 33.256 2.506 10.491 4.095 23.491 10.55 32.17 6.715 9.028 17.538 14.572 26.736 20.465 18.83 12.064 40.518 17.954 58.847 30.793 9.617 6.737 14.074 16.943 22.279 24.97 8.032 7.858 18.44 13.371 28.036 18.895 9.665 5.563 19.413 11.08 29.715 15.312 10.31 4.236 21.124 6.412 31.645 9.923 12.094 4.035 14.464 14.422 9.088 25.924-5.02 10.741-16.266 14.702-25.703 20.422-9.507 5.763-16.16 15.037-25.373 21.253-9.523 6.426-20.41 7.039-30.896 10.768-10.35 3.68-19.11 11.179-27.31 18.428-8.045 7.114-15.893 17.72-25.67 22.2-10.293 4.718-22.308-.821-33.041 2.454-12.144 3.705-16.709 14.028-25.643 21.883-4.356 3.83-9.338 6.81-13.058 11.36-3.876 4.742-3.901 9.727-6.035 15.234-4.14 10.683-17.322 13.847-27.215 11.005-11.01-3.161-17.827-13.82-27.558-19.465-9.44-5.475-19.996-8.971-30.134-12.813-10.243-3.882-20.67-7.506-31.574-8.697-11.414-1.246-21.345 2.694-32.422 4.396-11.026 1.694-21.65-3.58-32.56-1.917-10.886 1.66-20.34 10.334-30.494 14.354-10.24 4.054-20.128 9.713-30.78 12.491-10.755 2.805-21.915 3.5-32.838 5.315-10.833 1.8-21.674 6.014-32.723 5.996-11.155-.017-21.712-4.922-32.354-7.738-21.707-5.744-44.407.293-64.913-10.487-10.22-5.372-16.624-14.132-25.299-21.485-8.195-6.945-18.762-11.487-28.1-16.657-9.376-5.192-20.71-9.394-25.577-19.832-4.817-10.333-3.687-24.117-.874-34.909 6.531-25.06 29.53-30.24 51.448-33.32 10.914-1.532 21.774-2.307 32.743-3.192 12.586-1.017 20.632-4.532 28.608-14.718 3.775-4.822 7.115-9.305 12.205-12.722 4.46-2.994 8.914-5.428 12.703-9.38 8.153-8.5 11.862-19.285 15.821-30.216 4.135-11.414 11.14-20.04 16.653-30.592 5.846-11.19 2.16-21.142-4.66-30.858-6.447-9.186-13.88-17.534-20.263-26.797-5.758-8.355-15.067-16.633-17.745-26.69-3.087-11.59 9.337-20.348 16.261-27.62 7.544-7.923 16.106-16.032 22.705-24.768 11.756-15.56 14.995-48.178 2.198-63.912-6.966-8.565-16.714-15.592-24.639-23.28-8.165-7.922-17.279-14.12-26.649-20.38-9.432-6.3-18.364-12.668-28.277-18.178-10.325-5.737-16.782-14.094-24.099-23.317-14.367-18.111-18.457-41.153-31.193-60.123-6.421-9.564-15.583-15.406-23.957-22.877-8.437-7.527-12.301-18.927-24.807-19.063-10.514-.113-20.925 3.208-31.412 4.014-10.89.836-21.993-.624-32.01-5.228-9.931-4.564-17.945-13.477-28.522-16.543-10.7-3.103-21.675.388-31.864-5.29-9.438-5.259-17.146-10.953-27.462-14.57-4.983-1.749-9.933-3.63-5.533-9.014 3.434-4.203 9.527-6.605 14.045-9.165m899.318-20.454c9.724-18.262 23.403-35.217 42.902-42.66 10.254-3.915 16.557-7.409 22.054-17.665 4.49-8.379 6.665-18.745 14.599-24.544 4.272-3.122 9.18-4.64 12.95-8.471 3.522-3.577 4.795-7.74 6.484-12.435 2.157-5.999 4.039-10.976 8.783-3.637 2.726 4.215 4.569 9.394 6.225 14.144 3.166 9.078 4.644 18.762 10.377 26.615 5.904 8.088 11.794 16.267 17.768 24.315 12.252 16.509 30.87 27.969 47.14 39.93 8.156 5.995 15.01 12.333 20.685 20.893 5.812 8.765 10.808 17.772 17.882 25.583 6.887 7.606 14.262 14.495 22.198 20.913 9.914 8.017 9.088 14.721 12.869 25.72 9.138 26.582 23.076 44.715 40.774 65.078 6.674 7.678 9.922 16.96 18.422 23.032 8.369 5.978 18.075 6.725 27.423 10.032 8.965 3.172 16.144 12.453 21.756 20.076 13.386 18.183-2.355 39.124-16.18 51.814-7.465 6.85-16.142 12.095-26.358 11.865-10.661-.24-20.72-6.018-29.689-11.424-7.889-4.757-18.14-8.68-25.095-14.696-7.422-6.42-8.845-17.824-8.468-27.184.431-10.743 3.43-21.07 3.258-31.886-.169-10.584-.131-20.53 1.076-31.061 2.279-19.895-7.91-43.573-27.822-49.2-9.483-2.679-18.397-6.087-27.7-9.307-9.643-3.337-18.615-2.29-28.572-2.406-22.983-.267-35.049-18.016-54.367-27.018-8.991-4.19-18.982-4.655-28.586-2.87-10.398 1.93-20.028 6.584-30.794 4.912-9.84-1.527-19.094-5.285-29.06-6.389-9.816-1.087-19.537-2.169-29.212-4.282-9.823-2.145-19.533-5.48-28.166-10.808-10.165-6.276-12.792-14.34-5.426-24.455 5.843-8.023 13.327-15.1 19.87-22.524"/><path d="M-58.446 49.695c12.08 2.232 24.99 4.968 35.424 11.923 5.425 3.617 10.274 8.128 15.576 11.935C-1.95 77.5 4.698 80.945 2.243 88.72c-2.106 6.668-8.998 11.795-15.91 10.68-6.341-1.025-11.676-5.772-17.462-8.364-10.953-4.905-25.847.071-35.775-6.61-5.72-3.85-7.928-12.013-7.503-18.726.644-10.161 7.523-13.393 15.961-16.005M70.028 644.492c6.275-13.847 16.39-17.45 30.572-19.437 11.821-1.657 23.378-3.024 34.99-5.975 12.36-3.14 25.72-4.408 35.79-12.972 9.773-8.31 20.02-12.921 32.412-15.74 14.002-3.186 23.864 1.72 37.324 3.997 13.87 2.346 21.637-10.635 28.935-20.7 7.295-10.064 13.55-19.037 14.723-31.87 1.117-12.222 4.056-28.108.298-39.983-7.544-23.842-30.65-39.654-46.178-57.614-7.553-8.735-21.13-17.994-20.905-30.705.249-14.11 11.052-20.916 19.248-30.713 8.698-10.396 11.232-22.488 15.461-35.119 3.935-11.753 9.715-22.826 6.697-35.542-3.233-13.618-11.677-23.509-24.285-28.101-12.496-4.553-21.352-9.912-29.47-20.927-7.315-9.923-17.462-18.68-22.835-29.894-5.507-11.493-7.752-25.296-8.502-37.982-.692-11.724-.857-25.554 6.976-35.007 4.219-5.092 10.23-8.332 15.44-12.173 5.25-3.87 9.88-8.618 15.23-12.335 5.417-3.763 10.873-6.196 17.199-3.527 5.49 2.316 10.165 6.395 15.574 8.969 11.737 5.585 24.325.49 36.525-.535 12.312-1.034 24.848-.354 36.422-5.575 11.693-5.276 18.566-15.122 23.617-26.898 5.753-13.414 5.084-25.224 5.708-39.42.55-12.538 9.057-22.353 16.068-32.035 7.932-10.953 16.451-20.036 30.79-15.935 12.305 3.52 21.1 13.739 33.703 17.092 11.777 3.134 23.804 3.202 35.854 4.168 13.801 1.106 24.113 5.969 35.726 13.422 20.256 13 39.218 31.147 62.89 37.561 11.759 3.186 24.986 5.025 37.025 6.92 13.365 2.103 21.767-4.581 33.11-10.62 11.268-6 24.556-9.13 37.17-9.818 11.441-.624 24.135-2.369 35.478-.863 5.768.765 12.32 3.228 14.646 9.2 2.404 6.168-.175 14.102-.632 20.414-.912 12.605 2.357 23.812-6.842 33.888-17.619 19.299-46.444 20.799-69.478 12.921-11.641-3.981-22.382-11.812-34.78-13.188-12.261-1.361-25.7 1.22-38.037 1.705-26.524 1.043-43.417 20.079-66.111 31.335-22.304 11.062-48.625 7.525-69.363 22.422-10.177 7.31-17.905 19.235-23.44 30.502-2.655 5.405-4.325 10.933-6.018 16.713-1.783 6.087-5.961 11.587-7.271 17.716-1.551 7.252 3.9 11.756 7.582 17.187 3.632 5.355 6.229 11.593 11.388 15.682 9.324 7.39 23.346 10.9 34.247 15.194 11.124 4.383 23.052 7.555 33.71 13.058 12.803 6.612 19.492 16.014 24.191 29.59 4.431 12.8 5.752 22.421 2.735 35.76-2.972 13.137-2.822 25.475-3.48 38.818-.3 6.065-3.655 12.444-2.989 18.408.691 6.188 7.296 8.827 12.546 11.472 5.293 2.667 10.79 5.001 15.513 8.697 5.133 4.015 9.227 9.293 14.088 13.633 9.431 8.42 20.646 13.878 31.051 20.805 10.03 6.677 20.305 13.27 30.033 20.407 10.577 7.76 22.562 12.593 33.064 20.256 9.594 7 17.855 15.561 27.977 21.854a86.52 86.52 0 0 0 16.995 8.125c5.971 2.1 13.519 3.203 18.552 7.427 9.956 8.356 5.828 25.054-.319 34.365-14.315 21.686-43.472 24.857-64.264 36.77-5.37 3.076-10.357 6.481-14.834 10.826-4.318 4.19-7.936 9.518-12.961 12.85-10.798 7.16-25.719 1.756-37.693 5.986-11.625 4.106-21.577 10.597-29.518 20.228-8.96 10.87-14.707 20.678-30.18 17.928-12.798-2.274-23.437-7.9-36.793-7.782-12.243.11-23.617.713-35.676-2.076-12.73-2.944-25.155-5.961-38.319-4.743-12.796 1.183-22.903 2.83-35.604-.554-6.507-1.733-12.44-3.212-18.331.842-5.27 3.627-8.607 9.346-14.184 12.726-10.636 6.445-23.872 10.016-35.757 13.104-23.063 5.992-47.455 18.193-71.48 18.793-12.127.303-23.383-6.15-35.221-8.05-12.637-2.027-23.668-4.292-36.508-3.57-13.955.786-23.834-5.26-34.219-14.343-9.312-8.145-18.514-15.122-29.278-21.144-8.778-4.91-25.243-10.348-29.069-20.551-4.33-11.548.27-25.315 5.551-35.72M95.723 94.31c6.392 2.406 26.428 10.549 25.217 18.088-1.344 8.363-13.27 24.992-21.617 26.916-5.612 1.294-9.381-6.124-12.67-9.808-3.95-4.426-9.08-8.933-11.443-14.547-5.264-12.503 11.878-17.524 20.513-20.649"/><path d="M378.253 459.182c3.907-.19 12.835-3.478 11.121-8.722-.92-2.817-5.381-4.282-7.942-4.51-9.757-.867-13.221 13.719-3.179 13.232zM815.177 55.008c2.54-8.37 5.502-16.972 12.635-22.433 6.702-5.13 14.373-6.954 19.836-13.93 10.461-13.361 11.317-33.332 29.702-38.46 20.41-5.695 26.37 13.894 36.432 27.46 4.845 6.53 10.607 12.35 15.929 18.46 5.487 6.298 10.455 13.24 16.903 18.56 12.8 10.564 27.999 18.005 37.079 32.82 4.222 6.89 5.082 15.132 9.266 21.961 2.124 3.466 7.058 6.614 6.24 10.582-.837 4.068-6.597 5.986-10.075 7.814-8.186 4.3-16.52 7.399-25.623 4.179-7.697-2.722-14.862-7.988-21.323-12.997-13.434-10.415-22.58-22.287-40.821-21.77-18.912.535-34.745 10.621-54.196 7.422-8.668-1.427-19.668-3.521-25.197-11.12-4.907-6.747-7.29-20.46-6.787-28.548"/><path d="M95.723 641.41c10.314-4.606 20.543-6.227 31.24-9.296 10.29-2.952 19.788-7.845 30.288-10.22 21.218-4.801 42.875-11.847 64.692-7.595 10.314 2.01 20.37 6.208 30.994 4.384 5.6-.962 10.892-3.22 15.611-6.505 4.156-2.893 7.681-7.04 12.498-8.703 9.382-3.239 20.375.32 30.126-1.812 10.488-2.293 20.005-9.597 23.847-20.147 3.95-10.843 1.448-23.336 1.863-34.626.393-10.706 2.515-21.099 3.62-31.714 1.076-10.33.981-23.306-5.242-32.133-3.332-4.725-7.338-5.29-11.745-8.23-4.403-2.938-7.01-7.98-9.534-12.52-5.766-10.364-12.06-16.636-21.88-23.047-8.71-5.686-19.339-10.968-24.258-20.721-9.514-18.866-5.79-46.562 3.632-64.58 4.782-9.146 11.51-17.603 12.84-28.205 1.361-10.834-6.196-22.297-10.761-31.64-4.873-9.973-14.87-17.017-17.619-28.055-2.758-11.078-.346-20.738-7.842-30.274-13.89-17.67-33.175-29.504-37.295-53.778-1.876-11.053.605-22.873 11.544-27.579 10.334-4.445 21.427 3.99 31.977 4.109 10.99.123 21.194-3.736 32.326-2.286 10.697 1.393 21.032 5.16 31.811 5.87 22.16 1.457 41.958-18.84 47.575-39.68 2.794-10.366 3.875-21.446 4.18-32.171.298-10.483-1.776-22.446 2.712-32.252 10.086-22.032 41.055-7.2 58.043-5.152 20.7 2.495 45.78-.348 63.704 12.402 8.46 6.016 17.364 12.434 25.033 19.48 8.861 8.143 15.979 12.815 27.028 17.347 4.174 1.713 9.939 3.75 11.483 8.602 1.545 4.852-2.02 10.605-4.523 14.328-6.869 10.222-16.968 12.249-26.455 18.672-8.8 5.958-16.115 13.335-25.692 18.126-9.792 4.897-19.73 9.237-30.532 11.034-10.993 1.829-22.437 1.617-33.151 5.019-10.264 3.258-18.161 10.052-24.896 18.501-6.856 8.602-11.524 18.742-17.833 27.754-6.17 8.815-10.992 20.062-18.294 27.78-6.884 7.275-19.988 11.95-11.044 22.769 3.52 4.257 7.947 7.587 11.519 11.808 3.563 4.21 6.271 8.833 10.59 12.325 16.214 13.113 38.15 20.816 57 28.977 9.454 4.093 22.341 6.464 29.892 13.96 6.18 6.136 11.796 19.77 12.98 28.5 1.54 11.34-6.457 21.347-4.381 32.88.979 5.44 3.56 10.59 4.927 15.933 1.467 5.734 1.008 11.161.494 16.993-1.102 12.481 1.817 18.89 12.167 25.733 9.269 6.13 18.699 11.8 27.669 18.422 17.219 12.713 33.476 26.613 50.8 39.187 9.177 6.66 17.876 12.643 27.99 17.733 9.84 4.951 19.468 10.452 28.147 17.374 8.193 6.533 15.24 14.762 24.795 19.235 10.56 4.944 21.11 6.21 24.38 19.642 6.773 27.81-24.856 30.38-42.352 36.43-10.35 3.58-17.88 11.54-26.759 17.712-8.945 6.218-18.825 8.746-29.279 10.94-10.929 2.293-22.363 3.147-32.525 8.2-10.087 5.016-18.126 10.813-29.538 12.24-5.258.658-10.864.959-15.788 3.174-4.604 2.071-8.551 5.348-13.343 7.15-10.221 3.843-22.193 4.534-32.987 4.767-21.214.459-43.137-2.277-64.28-4.132-10.75-.944-21.294-2.29-31.668-5.392-5.48-1.638-10.11-3.026-15.56-1.026-5.504 2.02-9.846 6.686-14.014 10.72-7.861 7.609-15.499 14.117-25.86 17.753-9.909 3.477-20.391 5.092-30.41 8.263-19.783 6.262-41.368 21.653-62.708 14.976-10.3-3.222-19.5-9.321-29.71-12.856-10.96-3.794-21.268-2.33-32.497-3.315-10.68-.937-20.207-7.99-29.818-12.444-9.701-4.495-18.665-10.341-28.168-15.227-10.1-5.193-16.252-11.48-16.01-23.826.229-11.765 5.788-18.837 14.234-26.065"/><path d="M378.952 471.275c6.398.622 9.97-5.245 13.973-9.456 2.017-2.122 8.575-6.331 9.395-8.85 1.8-5.53-14.34-12.584-19.315-13.255-6.47-.872-12.945 2.58-17.24 7.525-9.546 10.987 1.292 22.88 13.187 24.036zm73.286-65.49c5.834-.703 16.29-.21 21.28-3.865 6.63-4.857-3.634-12.97-8.077-15.483-6.724-3.803-13.823-3.732-19.005 2.296-6.802 7.913-1.35 13.186 5.802 17.052m143.463-292.978c2.21.214 6.833-.636 6.833 2.648 0 2.186-4.947 4.376-6.705 5.1-5.535 2.276-11.27 1.644-16.767-.552-4.699-1.877-12.417-6.96-3.141-7.47 6.54-.361 13.232.188 19.78.274m39.613-10.557c12.429-7.215 25.416-11.154 39.748-8.543 14.603 2.66 28.698 13.784 24.664 30.598-3.773 15.729-18.531 20.3-32.775 20.274-11.591-.022-29.505-1.038-39.644-7.262-6.663-4.09-9.396-12.472-9.157-20.053.339-10.771 8.473-13.002 17.164-15.015M866.567 14.54c13.13-3.084 25.62-6.82 34.776 6 5.613 7.86 15.073 28.969 6.013 37.15-4.739 4.279-13.839 4.12-19.693 5.765-5.704 1.602-11.233 3.855-17.119 4.62-10.059 1.308-32.466-1.684-28.98-16.33 1.676-7.042 7.862-12.977 12.04-18.55 4.54-6.054 8.625-12.447 12.963-18.654"/><path d="M121.418 655.848c5.607-9.206 11.934-17 21.89-21.315 9.888-4.285 20.283-2.999 30.743-2.964 21.353.073 42.397-.651 63.71 1.832 20.741 2.416 39.934-8.724 61.006-7.667 10.442.523 21.471 4.362 31.587.056 9.229-3.929 17.216-11.621 25.607-17.176 9.07-6.004 13.4-16.259 21.596-23.183 4.186-3.537 8.69-6.296 12.555-10.278 3.817-3.933 7.223-8.338 11.43-11.858 3.513-2.94 8.577-5.17 11.283-8.967 3.34-4.689 2.724-11.01 1.676-16.312-2.076-10.494-8.267-18.95-13.29-28.098-4.627-8.43-10.35-18.572-10.161-28.495.235-12.41 15.336-16.158 21.878-24.518 4.474-5.718 1.679-8.731-3.807-11.492-4.776-2.404-9.597-4.72-14.397-7.07-9.865-4.833-18.846-6.938-28.888-1.324-4.801 2.685-7.822 6.49-10.09 11.486-2.817 6.207-2.812 9.807-9.802 6.026-4.881-2.64-8.621-5.515-13.934-7.36-5.2-1.805-9.733-3.462-14.219-6.835-8.606-6.47-14.132-15.452-19.008-25.033-4.988-9.803-10.566-20.438-12.73-31.37-2.332-11.779 2.458-19.937 9.507-28.756 6.846-8.566 11.89-16.564 13.543-27.744 1.616-10.916.64-22.91-4.008-32.958-4.833-10.448-9.898-18.731-9.126-30.825.658-10.295 3.663-19.813-.653-29.664-4.46-10.179-11.987-18.2-14.786-29.278-1.153-4.562-2.61-11.246.471-15.362 3.196-4.268 10.04-4.021 14.69-4.321 10.33-.666 20.156-2.67 30.355-4.307 21.39-3.432 41.716-3.27 55.126-23.452 6.001-9.032 10.845-18.987 12.353-29.921 1.582-11.481-1.872-22.114-1.953-33.454-.08-11.225 5.87-20.945 16.743-23.76 9.829-2.546 20.718.475 30.792-.035 22.693-1.15 41.878-3.963 60.006 13.067 7.625 7.163 16.679 12.247 24.27 19.265 9.336 8.63 5.48 20.634-1.505 29.633-11.81 15.214-35.214 25.937-53.524 28.813-10.892 1.71-21.736.764-32.65 1.581-10.661.799-19.841 5.461-28.409 11.827-9.013 6.697-15.333 13.345-18.64 24.454-3.299 11.082-5.997 20.328-15.15 27.871-8.354 6.884-17.25 11.693-24.455 20.043-5.385 6.242-17.073 12.458-19.011 20.974-1.072 4.712 1.798 6.68 3.701 10.495 1.33 2.665 1.89 5.855 3.007 8.644 4.321 10.786 17.202 8.931 26.086 14.43 9.167 5.674 17.188 13.342 26.252 19.289 8.878 5.825 17.605 11.18 27.697 14.482 7.923 2.592 21.586 3.271 27.717 9.55 7.354 7.534-1.023 22.445-4.41 29.99-4.164 9.27-9.598 19.863-2.882 29.215 6.575 9.155 17.686 11.083 26.976 15.809 12.112 6.16 4.478 16.634 6.296 27.374 1.677 9.907 15.65 16.93 22.73 22.871 8.068 6.77 17.086 12.065 25.51 18.33 8.183 6.087 16.248 12.39 23.957 19.103 8.203 7.144 17.296 13.179 25.43 20.321 8.437 7.41 12.967 16.377 24.418 19.247 10.461 2.622 19.481 3.765 27.195 12.25 7.663 8.428 12.7 16.569 22.224 23.108 7.121 4.89 19.681 13.097 22.998 21.535 1.14 2.899 1.674 4.072-1.84 6.679-1.712 1.27-5.045 2.114-7.199 2.54-4.885.966-10.12.175-15.047.244-11.179.157-19.058 6.975-28.228 12.65-18.702 11.572-38.468 15.345-59.969 15.279-21.776-.067-41.877 4.09-61.44 14.286-9.287 4.84-17.444 10.28-27.668 12.967-10.082 2.65-20.506 3.763-30.884 4.217-21.267.93-42.602-.547-63.517-4.492-10.156-1.915-20.115-2.97-30.194-.055-11.181 3.234-16.693 11.757-25.037 19.18-8.44 7.507-18.681 10.48-28.945 14.251-9.617 3.534-17.654 9.852-27.034 13.826-21.376 9.055-41.238 4.965-61.595-4.417-9.328-4.3-18.624-8.335-28.643-10.58-10.17-2.28-20.425-3.608-30.426-6.687-9.632-2.964-21.395-5.569-25.957-15.724-1.964-4.373-3.678-10.046-1.831-14.839 2.132-5.532 6.646-6.026 11.93-7.144m539.592-548.096c3.084.193 6.847.19 6.203 4.052-.36 2.153-3.946 4.709-5.972 4.759-2.14.053-5.282-2.086-5.923-4.238-1.222-4.096 2.238-4.354 5.692-4.573"/><path d="M147.113 657.552c22.75-5.446 45.078-1.23 67.961-4.878 10.886-1.734 21.185-.837 32.082.18 11.67 1.09 22.902.465 34.542-.436 6.733-.52 34.118 3.08 19.57 12.681-4.847 3.198-10.815 4.508-16.015 6.942-6.224 2.914-8.529 6.494-11.686 12.525-11.573 22.104-42.647 19.877-61.234 10.036-11.41-6.042-23.86-7.243-34.505-14.736-5.832-4.105-11.798-6.368-18.3-9.092-2.76-1.156-5.598-2.349-8.105-4.026-4.585-3.068-5.527-3.887-4.31-9.196M326.976 355.83c2.658-11.264 9.8-42.442 25.806-38.975 6.964 1.508 13.66 10.875 19.217 15.452 6.34 5.22 13.23 9.662 20.657 13.053 17.335 7.916 26.603 17.394 28.12 37.631.595 7.936.839 16.223 6.015 22.666 5.718 7.116 16.637 8.154 21.83 15.333 4.879 6.744-1.43 15.287-2.727 22.314-1.91 10.348 5.176 14.71 12.01 21.002 6.19 5.699 11.678 10.855 19.426 14.197 7.887 3.403 15.181 7.053 22.411 11.814 6.976 4.594 14.232 9.092 20.073 15.19 5.416 5.656 10.014 11.915 16.093 16.884 12.933 10.573 26.818 21.14 36.875 34.828 5.051 6.875 8.898 12.327 16.971 15.49 7.067 2.768 17.786 3.25 19.386 12.302 3.067 17.357-17.794 29.885-31.55 30.585-16.833.856-32.768-3.86-49.564.346-7.783 1.949-15.323 4.674-23.407 4.74-7.852.061-15.467-2.08-23.21-3.144-14.59-2.006-40.623-2.047-35.835-24.462 4.037-18.901 21.181-22.336 33.897-33.288 4.143-3.568 5.305-5.271 3.473-10.675-1.198-3.532-3.347-6.981-4.999-10.354-4.113-8.404-8.54-12.356-16.728-16.452-7.548-3.774-14.881-8.14-19.291-15.84-4.505-7.866-3.799-17.872-8.494-25.547-1.826-2.985-4.322-4.826-5.66-8.184-1.694-4.253-1.231-8.555-1.013-13.103.47-9.829-2.633-14.805-11.438-18.886-7.497-3.475-15.098-6.683-22.589-10.195-8.019-3.76-14.204-4.633-22.268-.53-7.494 3.814-14.31 9.807-23.21 8.102-8.266-1.583-16.073-8.237-22.005-14.034-13.625-13.314-15.84-27.757-8.129-44.927 3.466-7.715 6.674-15.49 9.857-23.333m51.39 272.417c8.276-6.493 15.71-11.545 26.457-9.16 5.774 1.282 25.377 9.453 17.595 17.523-5.899 6.117-20.655 7.042-28.42 6.737-9.423-.369-20.296-3.655-27.541-9.873 3.347-3.552 7.35-3.966 11.909-5.227m51.389-536.413c15.812-7.229 31.435-9.926 48.703-8.02 8.21.906 12.57 7.036 17.332 13.326 2.36 3.119 4.702 6.235 7.505 8.96 4.98 4.843 4.764 3.482 1.857 9.793-3.109 6.747-4.147 15.402-9.3 20.899-5.811 6.2-15.871 8.333-23.784 9.686-14.89 2.547-33.81 3.151-46.891-5.725-8.217-5.575-10.969-15.694-9.971-25.399 1.064-10.352 7.045-17.217 14.55-23.52"/><path d="M352.671 368.354c14.14-7.414 34.939-12.327 48.627-1.025 7.07 5.838 6.67 13.874 8.35 22.125 1.906 9.358 8.336 15.35 13.684 22.913 6.73 9.52-.48 12.589-10.152 13.511-8.466.808-17.652.457-24.069-5.39-6.14-5.594-8.263-14.154-18.091-10.256-7.942 3.15-15.303 11.206-24.325 6.006-7.683-4.426-12.165-15.759-9.244-23.965 3.136-8.81 11.32-15.238 15.22-23.919M455.45 106.952c7.062-1.53 15.24-4.997 22.48-3.097 10.257 2.692 9.37 11.225 2.016 16.942-6.516 5.064-15.081 5.646-22.168 1.452-2.753-1.628-7.038-4.924-8.237-8.045-2.08-5.41 1.272-5.991 5.91-7.252"/></g></g></svg>