<svg xmlns="http://www.w3.org/2000/svg" width="260px" height="280px" viewBox="0 0 260 280">
	<path d="M0,0v280h260V0H0z M185.4,54.6c5.1-5.1,10.1-10.4,15.4-15.3c5.5-5.1,12.9-5,18.2-0.1c5.1,4.8,6.2,12.5,1.3,17.7c-7.8,8.3-16.3,15.9-23.3,22.6c-5.9-5.8-11.9-11.7-18.3-18C180.1,60.1,182.7,57.3,185.4,54.6L185.4,54.6z M205,128.2c0,41.4-33.6,75-75,75c-41.4,0-75-33.6-75-75c0-41.4,33.6-75,75-75C171.4,53.2,205,86.8,205,128.2z M116.9,17.9c0.1-8.9,5.3-14.8,13-15.1c7.8-0.3,13.5,5,13.9,14c0.5,10.4,0.1,20.8,0.1,31.5h-26.8c-0.1-1.6-0.2-3.4-0.2-5.2C116.9,34.8,116.8,26.4,116.9,17.9z M42.4,39.1L42.4,39.1c5.1-4.5,12.4-5,17.5-0.2c8,7.5,15.4,15.5,21.8,21.9c-6.1,6.5-12,12.7-17.4,18.5c-7.5-7.1-16.1-14.6-23.9-22.9C35.9,51.5,37.4,43.5,42.4,39.1z M15.9,141.1c-6.3-0.4-10.8-6.4-10.9-12.6c-0.2-6.2,4.5-12.7,11-13.1c11.2-0.7,22.4-0.2,33.9-0.2v26.1C38.6,141.3,27.3,141.7,15.9,141.1z M58.7,218.4c-4.9,4.5-12.3,3.2-16.9-1.6c-4.4-4.6-5.7-11.9-1.4-16.5c7.7-8.3,16.3-15.9,23.3-22.7c5.8,5.8,11.8,11.9,17.5,17.7C74.6,202.1,67,210.7,58.7,218.4z M143.9,239.9c-0.4,9-6.1,14.3-13.9,14c-7.7-0.3-12.9-6.2-13-15.1c-0.1-8.4,0-16.8,0-25.3c0-1.8,0.2-3.5,0.2-5.2H144C144,219,144.4,229.5,143.9,239.9z M219.1,217L219.1,217c-5.1,4.9-12.4,5.5-17.7,0.5c-8.1-7.6-15.6-15.7-22.6-22.7c6.2-6,12.4-12,18.8-18.2c6.7,6.6,14.8,14.2,22.3,22.3C225,204.3,224.3,211.9,219.1,217z M244.3,141.4c-11.2,0.5-22.5,0.1-34,0.1v-26.3c11.6,0,23.2-0.5,34.7,0.2c6.6,0.4,11,6.6,10.9,13C255.9,135,251.2,141,244.3,141.4z" fill="#000000" fill-opacity="0.75"/>
</svg>
