<svg width="147" height="146" viewBox="0 0 147 146" fill="none" xmlns="http://www.w3.org/2000/svg">
<g clip-path="url(#clip0_1906_5092)">
<path d="M89.2731 57.0552C89.2731 58.8735 90.7575 60.3476 92.5887 60.3476C94.4198 60.3476 95.9043 58.8735 95.9043 57.0552C95.9043 55.2368 94.4198 53.7627 92.5887 53.7627C90.7575 53.7627 89.2731 55.2368 89.2731 57.0552Z" fill="white"/>
<path d="M97.3021 65.0288C97.3021 66.8472 98.7866 68.3213 100.618 68.3213C102.449 68.3213 103.933 66.8472 103.933 65.0288C103.933 63.2104 102.449 61.7363 100.618 61.7363C98.7866 61.7363 97.3021 63.2104 97.3021 65.0288Z" fill="white"/>
<path d="M81.242 49.0806C81.242 50.8989 82.7264 52.373 84.5576 52.373C86.3887 52.373 87.8732 50.8989 87.8732 49.0806C87.8732 47.2622 86.3887 45.7881 84.5576 45.7881C82.7264 45.7881 81.242 47.2622 81.242 49.0806Z" fill="white"/>
<path d="M105.331 73.0015C105.331 74.8198 106.816 76.2939 108.647 76.2939C110.478 76.2939 111.962 74.8198 111.962 73.0015C111.962 71.1831 110.478 69.709 108.647 69.709C106.816 69.709 105.331 71.1831 105.331 73.0015Z" fill="white"/>
<path d="M73.2171 73.0034C73.2171 74.8218 74.7016 76.2959 76.5327 76.2959C78.3639 76.2959 79.8483 74.8218 79.8483 73.0034C79.8483 71.185 78.3639 69.7109 76.5327 69.7109C74.7016 69.7109 73.2171 71.185 73.2171 73.0034Z" fill="white"/>
<path d="M65.186 73.0015C65.186 74.8198 66.6704 76.2939 68.5016 76.2939C70.3328 76.2939 71.8172 74.8198 71.8172 73.0015C71.8172 71.1831 70.3328 69.709 68.5016 69.709C66.6704 69.709 65.186 71.1831 65.186 73.0015Z" fill="white"/>
<path d="M63.7882 73.0015C63.7882 71.1828 62.304 69.709 60.4726 69.709C58.6411 69.709 57.157 71.1828 57.157 73.0015C57.157 74.8201 58.6411 76.2939 60.4726 76.2939C62.304 76.2939 63.7882 74.8201 63.7882 73.0015Z" fill="white"/>
<path d="M55.7591 73.0015C55.7591 71.1828 54.275 69.709 52.4435 69.709C50.612 69.709 49.1279 71.1828 49.1279 73.0015C49.1279 74.8201 50.612 76.2939 52.4435 76.2939C54.275 76.2939 55.7591 74.8201 55.7591 73.0015Z" fill="white"/>
<path d="M41.0968 73.0034C41.0968 74.8218 42.5812 76.2959 44.4124 76.2959C46.2435 76.2959 47.728 74.8218 47.728 73.0034C47.728 71.185 46.2435 69.7109 44.4124 69.7109C42.5812 69.7109 41.0968 71.185 41.0968 73.0034Z" fill="white"/>
<path d="M97.3021 73.0015C97.3021 74.8198 98.7866 76.2939 100.618 76.2939C102.449 76.2939 103.933 74.8198 103.933 73.0015C103.933 71.1831 102.449 69.709 100.618 69.709C98.7866 69.709 97.3021 71.1831 97.3021 73.0015Z" fill="white"/>
<path d="M89.2731 73.0015C89.2731 74.8198 90.7575 76.2939 92.5887 76.2939C94.4198 76.2939 95.9043 74.8198 95.9043 73.0015C95.9043 71.1831 94.4198 69.709 92.5887 69.709C90.7575 69.709 89.2731 71.1831 89.2731 73.0015Z" fill="white"/>
<path d="M81.242 73.0015C81.242 74.8198 82.7264 76.2939 84.5576 76.2939C86.3887 76.2939 87.8732 74.8198 87.8732 73.0015C87.8732 71.1831 86.3887 69.709 84.5576 69.709C82.7264 69.709 81.242 71.1831 81.242 73.0015Z" fill="white"/>
<path d="M97.3 80.9751C97.3 82.7935 98.7845 84.2676 100.616 84.2676C102.447 84.2676 103.931 82.7935 103.931 80.9751C103.931 79.1567 102.447 77.6826 100.616 77.6826C98.7845 77.6826 97.3 79.1567 97.3 80.9751Z" fill="white"/>
<path d="M89.3595 89.7063C89.7801 91.4761 91.5659 92.5721 93.3481 92.1544C95.1302 91.7367 96.234 89.9634 95.8134 88.1937C95.3927 86.4239 93.607 85.3279 91.8248 85.7456C90.0426 86.1633 88.9388 87.9366 89.3595 89.7063Z" fill="white"/>
<path d="M81.2377 96.9184C81.2377 98.7368 82.7222 100.211 84.5533 100.211C86.3845 100.211 87.869 98.7368 87.869 96.9184C87.869 95.1001 86.3845 93.626 84.5533 93.626C82.7222 93.626 81.2377 95.1001 81.2377 96.9184Z" fill="white"/>
</g>
<path d="M73.2957 146C72.4038 146 71.6829 145.278 71.6852 144.393C71.6875 143.505 72.4129 142.79 73.3049 142.792C74.1968 142.792 74.92 143.514 74.9177 144.402C74.9177 145.285 74.1922 146 73.3003 146H73.2957ZM78.1478 144.268C78.0703 143.385 78.7295 142.609 79.6192 142.532C80.5088 142.457 81.2913 143.111 81.3688 143.994C81.4441 144.877 80.7849 145.654 79.8975 145.731C79.8496 145.733 79.8017 145.735 79.7561 145.735C78.9257 145.735 78.2208 145.106 78.1478 144.268ZM66.6986 145.692C65.8112 145.611 65.1542 144.832 65.2363 143.949C65.3185 143.066 66.1055 142.417 66.9951 142.498C67.8825 142.579 68.5372 143.36 68.4574 144.241C68.3798 145.074 67.6749 145.699 66.8491 145.699C66.7989 145.699 66.7487 145.699 66.6986 145.692ZM84.5716 143.576C84.4165 142.704 85.0028 141.871 85.881 141.715C86.7616 141.561 87.5988 142.143 87.7562 143.014C87.9113 143.888 87.325 144.721 86.4468 144.875C86.351 144.891 86.2551 144.9 86.1616 144.9C85.3929 144.9 84.7108 144.354 84.5716 143.576ZM60.1539 144.802C59.2756 144.642 58.6939 143.806 58.8559 142.935C59.0155 142.063 59.8596 141.486 60.7378 141.645C61.6161 141.805 62.1955 142.641 62.0358 143.512C61.8921 144.286 61.2123 144.827 60.4459 144.827C60.35 144.827 60.2519 144.821 60.1539 144.802ZM90.9088 142.312C90.6738 141.457 91.1825 140.576 92.0448 140.343C92.9048 140.11 93.7944 140.615 94.0294 141.468C94.2621 142.324 93.7557 143.207 92.8934 143.437C92.7519 143.476 92.6082 143.496 92.4668 143.496C91.7574 143.496 91.1049 143.025 90.9088 142.312ZM53.7141 143.329C52.8541 143.091 52.3522 142.206 52.5917 141.353C52.8313 140.499 53.7209 140.001 54.5809 140.239C55.4409 140.476 55.9451 141.362 55.7056 142.213C55.5071 142.924 54.8569 143.388 54.1475 143.388C54.0061 143.388 53.8601 143.37 53.7141 143.329ZM97.1044 140.486C96.7942 139.655 97.2185 138.733 98.0557 138.423C98.8929 138.113 99.8236 138.536 100.134 139.365C100.446 140.196 100.02 141.119 99.1849 141.43C98.9978 141.497 98.8085 141.531 98.6214 141.531C97.9644 141.531 97.3485 141.133 97.1044 140.486ZM47.434 141.285C46.5991 140.97 46.1793 140.044 46.4964 139.216C46.8135 138.387 47.7465 137.971 48.5814 138.285C49.4163 138.598 49.8361 139.523 49.519 140.352C49.2749 140.995 48.659 141.389 48.0066 141.389C47.8172 141.389 47.6233 141.355 47.434 141.285ZM103.109 138.113C102.723 137.314 103.061 136.354 103.868 135.972C104.671 135.589 105.638 135.926 106.024 136.725C106.409 137.525 106.069 138.482 105.264 138.865C105.038 138.973 104.801 139.023 104.566 139.023C103.964 139.023 103.385 138.688 103.109 138.113ZM41.366 138.684C40.5631 138.296 40.23 137.337 40.6201 136.54C41.0102 135.743 41.9774 135.41 42.7804 135.8C43.5834 136.187 43.9187 137.147 43.5263 137.943C43.248 138.514 42.6709 138.847 42.0732 138.847C41.8337 138.847 41.5942 138.795 41.366 138.684ZM108.871 135.211C108.415 134.448 108.665 133.463 109.434 133.011C110.201 132.558 111.193 132.807 111.649 133.57C112.105 134.33 111.855 135.315 111.088 135.768C110.828 135.922 110.543 135.994 110.262 135.994C109.71 135.994 109.174 135.714 108.871 135.211ZM35.5582 135.553C34.794 135.096 34.5476 134.109 35.0084 133.35C35.4692 132.592 36.4638 132.347 37.228 132.805C37.9922 133.262 38.2385 134.249 37.7777 135.007C37.4743 135.508 36.9406 135.784 36.3931 135.784C36.1079 135.784 35.8205 135.709 35.5582 135.553ZM114.35 131.806C113.826 131.089 113.987 130.086 114.711 129.565C115.434 129.045 116.444 129.205 116.969 129.923C117.491 130.641 117.329 131.643 116.609 132.164C116.321 132.37 115.988 132.47 115.66 132.47C115.16 132.47 114.665 132.239 114.35 131.806ZM30.0582 131.915C29.3397 131.392 29.1822 130.387 29.7115 129.674C30.2384 128.959 31.249 128.805 31.9699 129.328C32.6907 129.853 32.8458 130.856 32.3189 131.571C32.0018 131.999 31.5113 132.227 31.014 132.225C30.681 132.225 30.3457 132.126 30.0582 131.915ZM119.499 127.926C118.913 127.258 118.983 126.247 119.656 125.665C120.331 125.083 121.351 125.153 121.937 125.821C122.524 126.489 122.453 127.503 121.78 128.085C121.474 128.35 121.096 128.479 120.719 128.479C120.268 128.479 119.818 128.291 119.499 127.926ZM24.9096 127.806C24.2389 127.22 24.1728 126.206 24.7636 125.543C25.3544 124.877 26.3764 124.814 27.0448 125.398C27.7154 125.984 27.7816 126.998 27.1908 127.661C26.8714 128.021 26.4243 128.207 25.9772 128.207C25.5962 128.207 25.2153 128.073 24.9096 127.806ZM124.28 123.609C123.635 122.996 123.614 121.979 124.235 121.341C124.85 120.7 125.875 120.68 126.52 121.294C127.164 121.907 127.184 122.923 126.566 123.562C126.249 123.89 125.825 124.055 125.398 124.055C124.996 124.055 124.593 123.908 124.28 123.609ZM20.1488 123.258C19.5329 122.616 19.5602 121.599 20.2081 120.99C20.8537 120.379 21.8779 120.406 22.4916 121.049C23.1075 121.69 23.0801 122.706 22.4322 123.317C22.1197 123.612 21.7205 123.756 21.319 123.756C20.8924 123.756 20.4659 123.589 20.1465 123.258H20.1488ZM128.653 118.885C127.955 118.33 127.843 117.321 128.402 116.628C128.961 115.938 129.979 115.827 130.674 116.381C131.372 116.936 131.484 117.945 130.925 118.636C130.606 119.032 130.136 119.236 129.664 119.236C129.308 119.236 128.952 119.12 128.653 118.885ZM15.8191 118.305C15.2648 117.613 15.3811 116.603 16.0814 116.053C16.7817 115.503 17.7992 115.618 18.3535 116.313C18.9078 117.008 18.7892 118.016 18.0911 118.566C17.7923 118.801 17.4387 118.914 17.0874 118.914C16.6107 118.914 16.1385 118.706 15.8191 118.305ZM132.584 113.789C131.84 113.3 131.637 112.304 132.132 111.566C132.625 110.828 133.628 110.627 134.372 111.116C135.116 111.607 135.319 112.603 134.824 113.341C134.514 113.805 134 114.059 133.476 114.059C133.17 114.059 132.857 113.97 132.584 113.789ZM11.9525 112.99C11.462 112.25 11.6719 111.254 12.4178 110.769C13.1638 110.283 14.1675 110.489 14.658 111.229C15.1484 111.971 14.9408 112.965 14.1949 113.452C13.9212 113.628 13.6132 113.715 13.3098 113.715C12.7828 113.715 12.265 113.459 11.9571 112.99H11.9525ZM136.04 108.368C135.253 107.944 134.963 106.971 135.387 106.192C135.814 105.413 136.792 105.124 137.579 105.545C138.364 105.968 138.656 106.941 138.232 107.72C137.938 108.257 137.381 108.56 136.808 108.56C136.548 108.56 136.284 108.499 136.04 108.368ZM8.57861 107.351C8.15887 106.57 8.45543 105.599 9.24244 105.18C10.0295 104.764 11.0104 105.058 11.4301 105.839C11.8521 106.622 11.5533 107.593 10.7663 108.01C10.5245 108.139 10.2621 108.2 10.0066 108.2C9.42721 108.2 8.8706 107.892 8.57861 107.351ZM138.989 102.656C138.17 102.308 137.789 101.364 138.143 100.549C138.496 99.7359 139.448 99.3601 140.267 99.7088C141.088 100.06 141.467 101.004 141.113 101.816C140.851 102.425 140.255 102.787 139.628 102.787C139.416 102.787 139.199 102.747 138.989 102.656ZM5.7317 101.436C5.38268 100.619 5.7682 99.6771 6.58943 99.333C7.41293 98.9866 8.3619 99.3692 8.70864 100.184C9.05766 101.001 8.67215 101.943 7.85093 102.287C7.64562 102.373 7.43119 102.414 7.22132 102.414C6.59171 102.414 5.99176 102.047 5.7317 101.436ZM141.41 96.707C140.561 96.4309 140.098 95.5254 140.374 94.6833C140.652 93.8411 141.565 93.3816 142.413 93.6555C143.262 93.9317 143.725 94.8372 143.449 95.6793C143.225 96.3561 142.593 96.7863 141.911 96.7863C141.745 96.7863 141.576 96.7614 141.41 96.707ZM3.43455 95.2899C3.16081 94.4456 3.63073 93.5423 4.47933 93.2729C5.33021 93.0013 6.2404 93.4676 6.51414 94.312C6.7856 95.1541 6.31569 96.0574 5.46709 96.3267C5.30284 96.3788 5.13631 96.4037 4.97206 96.4037C4.28999 96.4037 3.65354 95.9713 3.43455 95.2899ZM143.276 90.5655C142.406 90.3686 141.861 89.5061 142.062 88.6436C142.26 87.7811 143.127 87.2401 143.999 87.4393C144.868 87.6362 145.411 88.4965 145.212 89.3589C145.041 90.1037 144.375 90.6062 143.638 90.6062C143.52 90.6062 143.396 90.5927 143.276 90.5655ZM1.70542 88.9605C1.51152 88.0958 2.05901 87.2378 2.93042 87.0454C3.80183 86.853 4.66639 87.3963 4.86029 88.261C5.05647 89.1258 4.50671 89.9837 3.63529 90.1761C3.51667 90.2033 3.39805 90.2146 3.28171 90.2146C2.54033 90.2146 1.87195 89.7076 1.70542 88.9605ZM144.576 84.2814C143.691 84.1636 143.07 83.3555 143.191 82.4772C143.312 81.5988 144.126 80.9831 145.012 81.1031C145.897 81.223 146.515 82.0312 146.396 82.9095C146.284 83.7132 145.591 84.2972 144.795 84.2972C144.724 84.2972 144.649 84.2927 144.576 84.2814ZM0.560265 82.5021C0.443925 81.6237 1.06897 80.8178 1.95406 80.7046C2.83916 80.5892 3.65126 81.2117 3.76532 82.09C3.87938 82.9684 3.25662 83.772 2.37152 83.8875C2.30081 83.8965 2.23009 83.901 2.16166 83.901C1.36096 83.901 0.6652 83.3102 0.560265 82.5021ZM145.301 77.9089C144.409 77.8682 143.718 77.1189 143.759 76.2338C143.8 75.3486 144.555 74.6627 145.45 74.7035C146.339 74.7442 147.03 75.4935 146.989 76.3809C146.951 77.2411 146.234 77.9112 145.377 77.9112C145.351 77.9112 145.326 77.9112 145.301 77.9112V77.9089ZM0.00137286 75.9712C-0.035126 75.086 0.660632 74.339 1.55257 74.3028C2.44452 74.2688 3.19504 74.957 3.23153 75.8421C3.26803 76.7273 2.57454 77.4743 1.6826 77.5105H1.61645C0.751886 77.5105 0.0355906 76.8337 0.00137286 75.9712ZM143.768 69.9632C143.73 69.0758 144.423 68.3288 145.315 68.2903C146.207 68.2518 146.96 68.94 146.998 69.8251C147.037 70.7102 146.344 71.4573 145.452 71.4958C145.429 71.498 145.406 71.498 145.383 71.498C144.521 71.498 143.805 70.8234 143.768 69.9632ZM1.56626 71.0951C0.674318 71.0543 -0.0145965 70.3005 0.0287459 69.4154C0.0720884 68.5302 0.829437 67.8489 1.72138 67.8919C2.61332 67.9349 3.30225 68.6864 3.25891 69.5716C3.21556 70.4295 2.50155 71.0973 1.64611 71.0973C1.61874 71.0973 1.59135 71.0973 1.56626 71.0951ZM143.219 63.7175C143.1 62.8392 143.723 62.0333 144.608 61.9156C145.493 61.8001 146.305 62.4159 146.424 63.2942C146.54 64.1725 145.917 64.9807 145.034 65.0961C144.961 65.1052 144.888 65.1097 144.818 65.1097C144.019 65.1097 143.326 64.5234 143.219 63.7175ZM2.0225 64.6977C1.1374 64.5778 0.519201 63.7673 0.642384 62.889C0.763287 62.0107 1.57995 61.3995 2.46505 61.5194C3.35015 61.6417 3.96606 62.4521 3.84516 63.3304C3.73338 64.1318 3.03991 64.7136 2.24606 64.7136C2.17078 64.7136 2.09549 64.7091 2.0225 64.6977ZM142.105 57.5466C141.907 56.6841 142.454 55.8239 143.326 55.6292C144.195 55.4345 145.062 55.9755 145.258 56.8403C145.456 57.705 144.909 58.563 144.037 58.7599C143.919 58.7871 143.798 58.7984 143.679 58.7984C142.94 58.7984 142.274 58.2936 142.105 57.5466ZM3.0536 58.366C2.18218 58.1668 1.64154 57.3044 1.84229 56.4419C2.04531 55.5771 2.91216 55.0406 3.78358 55.2421C4.65271 55.4413 5.19334 56.3038 4.9926 57.1663C4.81923 57.9065 4.15312 58.4091 3.41858 58.4091C3.29768 58.4091 3.1745 58.3955 3.0536 58.366ZM140.435 51.5024C140.159 50.6603 140.627 49.757 141.476 49.4831C142.324 49.2115 143.237 49.6733 143.511 50.5154C143.787 51.3598 143.321 52.263 142.47 52.5369C142.306 52.589 142.137 52.6139 141.973 52.6139C141.291 52.6139 140.657 52.1815 140.435 51.5024ZM4.65499 52.1521C3.80639 51.8759 3.34559 50.9681 3.62617 50.126C3.90448 49.2862 4.81923 48.8266 5.66783 49.1051C6.51415 49.3835 6.97494 50.289 6.69664 51.1311C6.47308 51.8057 5.83892 52.2336 5.16141 52.2336C4.9926 52.2336 4.8238 52.2064 4.65499 52.1521ZM138.223 45.6348C137.871 44.8198 138.255 43.8781 139.076 43.5318C139.897 43.1831 140.846 43.5612 141.195 44.3761C141.546 45.1911 141.165 46.1328 140.344 46.4814C140.137 46.5697 139.922 46.6104 139.71 46.6104C139.083 46.6104 138.485 46.246 138.223 45.6348ZM6.81754 46.1056C5.9986 45.7525 5.62221 44.8085 5.97807 43.9958C6.33394 43.1831 7.28519 42.8096 8.10414 43.1628C8.92308 43.5136 9.29947 44.4599 8.94361 45.2703C8.67899 45.877 8.08588 46.2392 7.46084 46.2392C7.24641 46.2392 7.02741 46.1962 6.81754 46.1056ZM135.485 39.989C135.061 39.208 135.355 38.2346 136.142 37.8158C136.929 37.3948 137.908 37.689 138.332 38.4678C138.754 39.2488 138.46 40.2222 137.673 40.641C137.431 40.7723 137.169 40.8334 136.911 40.8334C136.334 40.8334 135.777 40.5278 135.485 39.989ZM9.52302 40.2765C8.7383 39.8532 8.45088 38.8775 8.87746 38.101C9.30632 37.3223 10.2872 37.0371 11.072 37.4604C11.8544 37.8837 12.1441 38.8594 11.7152 39.6381C11.4232 40.1701 10.8689 40.4734 10.2963 40.4734C10.034 40.4734 9.76939 40.4101 9.52302 40.2765ZM132.246 34.6081C131.753 33.8678 131.959 32.8718 132.705 32.3851C133.448 31.8961 134.452 32.0999 134.942 32.8401C135.433 33.5781 135.228 34.5741 134.482 35.0631C134.208 35.2419 133.9 35.3279 133.594 35.3279C133.067 35.3279 132.554 35.0744 132.244 34.6081H132.246ZM12.7463 34.7145C12.0027 34.2233 11.8042 33.2272 12.2992 32.4892C12.7965 31.7535 13.8002 31.5543 14.5416 32.0478C15.283 32.539 15.4838 33.5351 14.9887 34.273C14.6762 34.7349 14.1629 34.9861 13.6428 34.9861C13.3326 34.9861 13.0224 34.8978 12.7463 34.7145ZM128.532 29.535C127.976 28.8423 128.09 27.8327 128.79 27.2803C129.488 26.728 130.503 26.8412 131.06 27.5339C131.616 28.2266 131.502 29.2362 130.804 29.7886C130.506 30.024 130.15 30.1395 129.798 30.1395C129.322 30.1395 128.852 29.9312 128.532 29.535ZM16.4578 29.4626C15.7621 28.9057 15.6526 27.8961 16.2137 27.2057C16.7749 26.5175 17.7923 26.4088 18.4881 26.9634C19.1815 27.5203 19.291 28.5299 18.7299 29.2204C18.4105 29.6143 17.9429 29.818 17.4707 29.818C17.1148 29.818 16.7567 29.7003 16.4578 29.4626ZM124.378 24.8106C123.76 24.17 123.785 23.1536 124.431 22.5423C125.076 21.9311 126.098 21.9538 126.716 22.5944C127.332 23.235 127.307 24.2515 126.662 24.8627C126.349 25.1592 125.948 25.3064 125.546 25.3064C125.12 25.3064 124.695 25.1411 124.378 24.8106ZM20.6278 24.5593C19.9845 23.9436 19.9686 22.9272 20.5868 22.2911C21.2072 21.6527 22.2315 21.6369 22.8725 22.2526C23.5158 22.8683 23.534 23.8825 22.9136 24.5208C22.5965 24.8468 22.1745 25.0098 21.7502 25.0098C21.3464 25.0098 20.9403 24.8604 20.6278 24.5593ZM119.814 20.4733C119.143 19.8892 119.075 18.8751 119.663 18.2095C120.249 17.544 121.271 17.4761 121.944 18.0601C122.615 18.6442 122.683 19.6561 122.095 20.3239C121.775 20.6861 121.328 20.8717 120.879 20.8717C120.5 20.8717 120.122 20.7404 119.814 20.4733ZM25.2221 20.0454C24.6381 19.3754 24.7111 18.3612 25.3864 17.7817C26.0616 17.2022 27.0813 17.2769 27.6653 17.9447C28.2493 18.6147 28.1762 19.6289 27.501 20.2084C27.1953 20.471 26.8189 20.6 26.4448 20.6C25.9909 20.6 25.5415 20.4122 25.2221 20.0454ZM114.877 16.557H114.879C114.156 16.0363 113.999 15.0313 114.524 14.3159C115.05 13.6006 116.061 13.4421 116.782 13.965C117.505 14.4857 117.662 15.4908 117.138 16.2061C116.821 16.6362 116.328 16.8649 115.828 16.8649C115.498 16.8649 115.165 16.7653 114.877 16.557ZM30.2019 15.9571C29.6818 15.2373 29.8461 14.2344 30.5692 13.7183C31.2946 13.1999 32.3052 13.3629 32.8276 14.0827C33.3477 14.8003 33.1834 15.8032 32.458 16.3216C32.1729 16.5253 31.8421 16.6227 31.5159 16.6227C31.014 16.6227 30.519 16.3918 30.2019 15.9571ZM109.61 13.0958C108.843 12.6407 108.595 11.6537 109.053 10.8954C109.514 10.1348 110.506 9.88802 111.273 10.343C112.037 10.798 112.286 11.785 111.827 12.5434C111.524 13.0459 110.988 13.3244 110.44 13.3244C110.157 13.3244 109.87 13.2497 109.61 13.0958ZM35.5308 12.3261C35.0768 11.5632 35.3323 10.5807 36.0988 10.1302C36.8675 9.67749 37.8599 9.93104 38.3138 10.6939C38.7701 11.4545 38.5146 12.4393 37.7458 12.8897C37.488 13.0414 37.2052 13.1139 36.9246 13.1139C36.3725 13.1139 35.8342 12.8332 35.5308 12.3261ZM104.048 10.1167C103.245 9.73182 102.908 8.77201 103.298 7.97517C103.686 7.17607 104.651 6.8433 105.456 7.22814C106.259 7.61297 106.596 8.57279 106.209 9.36963C105.93 9.94236 105.353 10.2774 104.751 10.2774C104.516 10.2774 104.276 10.2253 104.048 10.1167ZM41.1653 9.18627C40.7821 8.38717 41.1265 7.4296 41.9318 7.04929C42.737 6.66672 43.702 7.00629 44.0852 7.80766C44.4707 8.60676 44.1263 9.56432 43.321 9.94463C43.0975 10.051 42.8602 10.1008 42.6275 10.1008C42.023 10.1008 41.4436 9.76352 41.1653 9.18627ZM98.2405 7.64919C97.4033 7.33679 96.9813 6.41092 97.2938 5.58239C97.6086 4.75386 98.5416 4.33281 99.3765 4.6452C100.211 4.9576 100.636 5.88121 100.321 6.712C100.077 7.3549 99.4609 7.75106 98.8085 7.75106C98.6191 7.75106 98.4275 7.7171 98.2382 7.64919H98.2405ZM47.0621 6.5626C46.7542 5.7318 47.1808 4.80819 48.018 4.50032C48.8574 4.19471 49.7859 4.61804 50.0961 5.45109C50.4041 6.28189 49.9775 7.20324 49.138 7.51111C48.9533 7.57902 48.7639 7.61071 48.5769 7.61071C47.9199 7.61071 47.3017 7.21003 47.0599 6.5626H47.0621ZM92.2341 5.71143C91.3741 5.476 90.8677 4.59313 91.1049 3.73744C91.3422 2.88401 92.2341 2.38146 93.0941 2.61915C93.9541 2.85458 94.4605 3.73744 94.2233 4.59087C94.0248 5.30169 93.3747 5.77029 92.6653 5.77029C92.5238 5.76802 92.3778 5.74991 92.2341 5.71143ZM53.1757 4.47542C52.943 3.61973 53.454 2.7414 54.3163 2.5105C55.1786 2.27959 56.0637 2.78667 56.2964 3.64237C56.5291 4.4958 56.0181 5.37639 55.1581 5.60729C55.0166 5.64578 54.8752 5.66389 54.736 5.66389C54.022 5.66389 53.3696 5.19076 53.1757 4.47542ZM86.0772 4.32149C85.1967 4.16303 84.615 3.32997 84.7724 2.45617C84.932 1.58463 85.7715 1.0051 86.6498 1.16357C87.5303 1.31976 88.112 2.15509 87.9546 3.02663C87.8132 3.8031 87.1334 4.34639 86.3669 4.34639C86.2711 4.34639 86.173 4.33733 86.0772 4.32149ZM59.4512 2.9474C59.2984 2.07359 59.887 1.2428 60.7675 1.09113C61.6457 0.939454 62.4829 1.5235 62.6381 2.39504C62.7909 3.26885 62.2024 4.09964 61.3241 4.25131C61.2283 4.26716 61.1348 4.27621 61.0412 4.27621C60.2725 4.27621 59.5881 3.72612 59.4512 2.9474ZM79.8154 3.48617C78.928 3.40694 78.271 2.62821 78.3486 1.74535C78.4284 0.864754 79.2131 0.212798 80.1028 0.289766C80.9925 0.368996 81.6494 1.14772 81.5696 2.03058C81.4943 2.86364 80.7894 3.49296 79.9614 3.49296C79.9135 3.49296 79.8655 3.49296 79.8154 3.48617ZM65.8431 1.98757C65.7678 1.10471 66.4294 0.328244 67.319 0.255804C68.2087 0.1811 68.9911 0.837593 69.0641 1.72045C69.1394 2.60331 68.4779 3.37977 67.5882 3.45221C67.5426 3.45673 67.497 3.459 67.4514 3.459C66.6187 3.459 65.9116 2.82516 65.8431 1.98757ZM71.8883 1.605C71.8883 0.717612 72.6114 0 73.5056 0C74.3976 0 75.1207 0.717612 75.1207 1.605C75.1207 2.49239 74.3976 3.21 73.5056 3.21C72.6114 3.21 71.8883 2.49239 71.8883 1.605Z" fill="white"/>
<defs>
<clipPath id="clip0_1906_5092">
<rect width="54.4229" height="70.8656" fill="white" transform="translate(111.962 45.7881) rotate(90)"/>
</clipPath>
</defs>
</svg>
