<svg width="17" height="16" viewBox="0 0 17 16" fill="none" xmlns="http://www.w3.org/2000/svg">
	<path fill-rule="evenodd" clip-rule="evenodd" d="M12.5 10.6654C13.6047 10.6654 14.5 11.5607 14.5 12.6654C14.5 13.77 13.6047 14.6654 12.5 14.6654C11.3953 14.6654 10.5 13.77 10.5 12.6654C10.5 11.5607 11.3953 10.6654 12.5 10.6654ZM4.5 5.9987C5.60467 5.9987 6.5 6.89403 6.5 7.9987C6.5 9.10336 5.60467 9.9987 4.5 9.9987C3.39533 9.9987 2.5 9.10336 2.5 7.9987C2.5 6.89403 3.39533 5.9987 4.5 5.9987ZM12.5 1.33203C13.6047 1.33203 14.5 2.22736 14.5 3.33203C14.5 4.4367 13.6047 5.33203 12.5 5.33203C11.3953 5.33203 10.5 4.4367 10.5 3.33203C10.5 2.22736 11.3953 1.33203 12.5 1.33203ZM6.22667 9.00536L10.78 11.6587L6.22667 9.00536ZM10.7733 4.3387L6.22667 6.99203L10.7733 4.3387Z" stroke="currentColor" stroke-linecap="square"/>
</svg>
