<svg class="twitter" xmlns="http://www.w3.org/2000/svg" width="15" height="12.566" viewBox="0 0 15 12.566">
  <path d="m4.81,12.566c-1.667,0-3.291-.487-4.697-1.408-.097-.064-.137-.186-.098-.294.04-.109.147-.176.265-.162.22.027.449.04.68.04.903,0,1.767-.208,2.568-.62.158-.081.313-.17.463-.266-1.096-.254-2.002-1.083-2.354-2.208-.041-.132.032-.272.164-.313.131-.042.272.032.313.164.356,1.139,1.379,1.918,2.545,1.939.105.002.198.069.232.169s.002.209-.08.275c-.328.263-.683.494-1.054.685-.786.403-1.627.628-2.505.668,1.107.547,2.32.832,3.559.832,5.141,0,8.213-4.279,8.213-8.416,0-.129-.002-.258-.007-.385-.003-.082.034-.161.101-.21.56-.414,1.039-.923,1.422-1.511.075-.115.23-.149.345-.073.115.075.148.23.073.345-.391.602-.875,1.127-1.439,1.562.002.09.003.182.003.273,0,4.381-3.259,8.915-8.713,8.915Zm-1.59-4.798c-.016,0-.033-.002-.05-.005-1.499-.307-2.587-1.666-2.587-3.231,0-.138.112-.269.25-.269s.25.093.25.231v.037c0,1.329.92,2.482,2.187,2.741.135.028.222.16.194.295-.024.119-.128.2-.244.2Zm-1.039-2.644c-.048,0-.098-.014-.141-.043-.897-.614-1.432-1.639-1.432-2.741,0-.581.15-1.154.435-1.656.041-.072.115-.119.198-.126.085-.006.163.028.215.093,1.468,1.844,3.636,2.97,5.949,3.089.137.007.244.125.237.262s-.13.241-.262.237c-2.326-.12-4.515-1.198-6.063-2.975-.137.339-.208.705-.208,1.075,0,.937.454,1.808,1.214,2.329.114.078.143.233.065.347-.049.071-.126.109-.206.109Zm5.142-1.8c-.006,0-.012,0-.018,0-.137-.009-.241-.129-.231-.267.121-1.713,1.533-3.056,3.215-3.056.843,0,1.657.34,2.255.938.588-.133,1.152-.361,1.676-.678.089-.053.202-.047.283.017.082.064.115.172.084.271-.238.762-.741,1.409-1.416,1.823-.117.072-.272.035-.344-.082-.072-.117-.035-.271.083-.344.373-.229.684-.541.911-.911-.421.19-.861.332-1.314.423-.085.017-.174-.011-.233-.076-.511-.559-1.235-.88-1.986-.88-1.42,0-2.614,1.138-2.716,2.591-.009.132-.118.233-.249.233Z" fill="currentColor"/>
</svg>