<svg width="17" height="16" viewBox="0 0 17 16" fill="none" xmlns="http://www.w3.org/2000/svg">
	<path fill-rule="evenodd" clip-rule="evenodd" d="M12.5 10.6673C13.6047 10.6673 14.5 11.5627 14.5 12.6673C14.5 13.772 13.6047 14.6673 12.5 14.6673C11.3953 14.6673 10.5 13.772 10.5 12.6673C10.5 11.5627 11.3953 10.6673 12.5 10.6673ZM4.5 6.00065C5.60467 6.00065 6.5 6.89598 6.5 8.00065C6.5 9.10532 5.60467 10.0007 4.5 10.0007C3.39533 10.0007 2.5 9.10532 2.5 8.00065C2.5 6.89598 3.39533 6.00065 4.5 6.00065ZM12.5 1.33398C13.6047 1.33398 14.5 2.22932 14.5 3.33398C14.5 4.43865 13.6047 5.33398 12.5 5.33398C11.3953 5.33398 10.5 4.43865 10.5 3.33398C10.5 2.22932 11.3953 1.33398 12.5 1.33398ZM6.22667 9.00732L10.78 11.6607L6.22667 9.00732ZM10.7733 4.34065L6.22667 6.99398L10.7733 4.34065Z" stroke="currentColor" stroke-linecap="square"/>
</svg>
