<svg class="linkedin" xmlns="http://www.w3.org/2000/svg" width="15" height="13.665" viewBox="0 0 15 13.665">
  <path d="m1.991,3.603h-.021c-1.141,0-1.97-.757-1.97-1.8S.846,0,2.011,0c1.146,0,1.964.738,1.989,1.795,0,1.05-.845,1.808-2.009,1.808Zm.02-3.103C1.122.5.5,1.036.5,1.803s.605,1.301,1.47,1.301h.022c.888,0,1.508-.536,1.508-1.303-.019-.788-.602-1.301-1.489-1.301Zm1.239,13.166H.75c-.138,0-.25-.112-.25-.25V4.415c0-.138.112-.25.25-.25h2.5c.138,0,.25.112.25.25v9c0,.138-.112.25-.25.25Zm-2.25-.5h2V4.665H1v8.5Zm13.75.5h-3c-.138,0-.25-.112-.25-.25v-4.75c0-.827-.673-1.5-1.5-1.5s-1.5.673-1.5,1.5v4.75c0,.138-.112.25-.25.25h-3c-.138,0-.25-.112-.25-.25V4.415c0-.138.112-.25.25-.25h3c.138,0,.25.112.25.25v1.507c0,.138-.112.25-.25.25s-.25-.112-.25-.25v-1.257h-2.5v8.5h2.5v-4.5c0-1.103.897-2,2-2s2,.897,2,2v4.5h2.5v-5.25c0-1.792-1.458-3.25-3.25-3.25-.692,0-1.361.203-1.936.587-.115.076-.27.046-.347-.069s-.046-.27.069-.346c.657-.439,1.422-.671,2.213-.671,2.068,0,3.75,1.682,3.75,3.75v5.5c0,.138-.112.25-.25.25Z" fill="currentColor"/>
</svg>