<svg class="instagram" xmlns="http://www.w3.org/2000/svg" width="14" height="14" viewBox="0 0 14 14">
  <path d="m10.5,14H3.5c-1.93,0-3.5-1.57-3.5-3.5V3.5C0,1.57,1.57,0,3.5,0h7c1.93,0,3.5,1.57,3.5,3.5v7c0,1.93-1.57,3.5-3.5,3.5ZM3.5.5C1.845.5.5,1.845.5,3.5v7c0,1.655,1.345,3,3,3h7c1.655,0,3-1.345,3-3V3.5c0-1.655-1.345-3-3-3H3.5Zm5.5,11.5h-4c-1.655,0-3-1.345-3-3v-4c0-1.655,1.345-3,3-3h4c1.655,0,3,1.345,3,3v4c0,1.655-1.345,3-3,3ZM5,3c-1.103,0-2,.897-2,2v4c0,1.103.897,2,2,2h4c1.103,0,2-.897,2-2v-4c0-1.103-.897-2-2-2h-4Zm4.75,1.875c-.344,0-.625-.28-.625-.625s.281-.625.625-.625.625.28.625.625-.281.625-.625.625Zm-2.75,4.625c-1.378,0-2.5-1.122-2.5-2.5s1.122-2.5,2.5-2.5,2.5,1.122,2.5,2.5-1.122,2.5-2.5,2.5Zm0-4c-.827,0-1.5.673-1.5,1.5s.673,1.5,1.5,1.5,1.5-.673,1.5-1.5-.673-1.5-1.5-1.5Z" fill="currentColor"/>
</svg>