<svg class="website" xmlns="http://www.w3.org/2000/svg" width="13.976" height="13.976" viewBox="0 0 13.976 13.976">
  <path d="m4.176,13.976c-1.067,0-2.133-.4-2.933-1.2-1.6-1.6-1.667-4.133-.133-5.6l1.933-1.933.533.4-1.933,1.933c-1.267,1.267-1.2,3.333.133,4.667,1.333,1.333,3.4,1.4,4.667.133l1.933-1.933.467.467-1.933,1.933c-.733.733-1.733,1.133-2.733,1.133Zm4.2-5.2l-3.133-3.133.467-.467,3.133,3.133-.467.467Zm2.6,0l-.467-.467,1.933-1.933c.6-.6.933-1.4.933-2.333,0-.867-.4-1.733-1.067-2.4-1.333-1.333-3.4-1.4-4.667-.133l-1.933,2-.467-.467,1.933-1.933c1.533-1.533,4.067-1.467,5.6.133.8.733,1.2,1.8,1.2,2.8,0,1.067-.333,2.067-1.067,2.8l-1.933,1.933Z" fill="currentColor"/>
</svg>