<svg fill="none" xmlns="http://www.w3.org/2000/svg" viewBox="0 0 36 36"><g clip-path="url(#a)" fill="#141E1B"><path d="m18 3.2 7.3.1c1.7.1 2.7.4 3.3.7.8.3 1.5.7 2 1.3.7.6 1.1 1.2 1.4 2 .3.7.6 1.7.6 3.4a127 127 0 0 1-.6 17.9c-.3.8-.7 1.4-1.3 2-.7.7-1.3 1-2 1.4-.7.3-1.7.5-3.4.6a126.8 126.8 0 0 1-18-.6c-.7-.3-1.4-.7-2-1.3-.6-.7-1-1.3-1.3-2.1-.3-.6-.6-1.6-.6-3.3a126.9 126.9 0 0 1 .6-18c.3-.8.7-1.4 1.3-2 .7-.6 1.3-1 2-1.3.7-.3 1.7-.6 3.4-.7H18ZM18 0l-7.4.1c-2 0-3.2.4-4.4.8C5 1.4 4 2 3 3S1.4 5 1 6.2C.4 7.4.1 8.7 0 10.6a132.4 132.4 0 0 0 0 14.8c0 2 .4 3.2.8 4.4C1.4 31 2 32 3 33s2 1.6 3.2 2c1.2.5 2.5.8 4.4.9a132 132 0 0 0 19.2-.8C31 34.6 32 34 33 33s1.6-2 2-3.2c.5-1.2.8-2.5.9-4.4A132 132 0 0 0 35 6.2 8.8 8.8 0 0 0 29.8 1C28.6.5 27.3.2 25.4.1L18 0Z"/><path d="M18 8.8a9.2 9.2 0 1 0 0 18.5 9.2 9.2 0 0 0 0-18.5ZM18 24a6 6 0 1 1 0-12 6 6 0 0 1 0 12ZM29.8 8.4a2.2 2.2 0 1 1-4.3 0 2.2 2.2 0 0 1 4.3 0Z"/></g><defs><clipPath id="a"><path fill="#fff" d="M0 0h36v36H0z"/></clipPath></defs></svg>