<?xml version="1.0" encoding="UTF-8"?> <svg xmlns="http://www.w3.org/2000/svg" id="a" width="375.389" height="328.707" viewBox="0 0 375.389 328.707"><path d="M355.301,171.265c0,86.949-70.601,157.442-157.682,157.442S39.937,258.214,39.937,171.265c0-28.392,7.527-55.027,20.701-78.03,12.896-22.538,31.219-41.58,53.191-55.37,24.273-15.238,52.999-24.041,83.791-24.041s59.731,8.877,84.069,24.214c32.926,20.762,57.619,53.344,68.093,91.78,3.6,13.204,5.52,27.102,5.52,41.447Z" style="fill:#bce0ff;"></path><path d="M349.78,129.818c-2.715,1.019-5.662,1.241-8.439,.328-4.512-1.483-7.654-5.435-11.189-8.591-3.534-3.165-8.569-5.752-12.889-3.791-3.634,1.645-5.319,6.033-5.177,10.016,.149,3.977,1.735,7.744,2.972,11.536,5.712,17.554,3.893,37.424-4.92,53.659-4.79,8.828-11.56,16.649-14.974,26.104-3.906,10.789-3.092,22.723-5.978,33.823-5.514,21.21-25.72,37.733-47.636,38.928-1.899,.108-9.834-18.153-7.292-47.935,.921-10.801,14.575-31.655,2.486-40.81-3.207-2.44-10.224-1.662-21.252-4.385-.893-.222-14.281-14.46-19-28.262-4.091-11.965,.136-25.518,7.79-35.587,3.213-4.227,7.147-8.099,12.076-10.075,13.147-5.255,27.455,4.391,41.61,4.456,7.425,.027,14.587-2.603,21.956-3.514,4.141-.513,9.12-.954,11.041-4.657,3.07-5.897-5.183-12.876-2.827-19.094-5.276-1.226-11.096-1.711-15.88,.843-4.778,2.553-7.691,9.09-4.756,13.644,.677,1.047,1.648,2.048,1.657,3.295,.007,1.853-2.291,3.017-4.091,2.56-1.8-.457-3.12-1.955-4.277-3.4-3.371-4.249-6.37-8.868-10.468-12.434-4.091-3.557-9.633-5.997-14.94-4.814-4.212,.942-7.641,3.986-11.695,5.462-4.055,1.482-9.835,.398-10.768-3.807-.978-4.391,3.819-7.58,7.134-10.631,3.012-2.782,5.235-6.617,5.39-10.718,.158-4.091-2.035-8.371-5.792-10.045-3.086-1.377-6.643-.892-10.004-1.235-3.365-.343-7.147-2.152-7.605-5.496-.529-3.866,3.798-6.731,7.691-7.086,3.884-.349,7.877,.735,11.674-.148,2.307-.534,4.386-1.76,6.64-2.473,11.782-3.699,25.584,7.151,36.269,.954,6.911-4.014,9.404-16.056,17.373-18.403,32.926,20.762,57.619,53.344,68.094,91.781l-.004,.003Z" style="fill:#619b53;"></path><path d="M309.325,221.849c-1.027,1.473-2.054,2.946-3.077,4.419-.709,1.016-1.429,2.063-1.695,3.27-.557,2.541,1.401,5.345,3.983,5.7,2.582,.355,5.226-1.816,5.378-4.416,.093-1.605-.6-3.374,.26-4.736,1.796-2.844,9.348-3.56,4.611-7.256-3.517-2.742-7.453,.043-9.457,3.016l-.003,.003Z" style="fill:#619b53;"></path><path d="M141.564,78.692c2.329,3.569,7.262,7.127,5.109,10.789-1.951,3.313-7.685,2.359-10.802,4.801-1.855,1.442-2.499,3.885-4.351,5.321-1.586,1.238-3.872,1.578-5.304,2.961-1.784,1.717-1.682,4.44-2.953,6.506-3.856,6.256-15.957,2.223-21.112,7.633-3.934,4.128-.712,11.004,4.41,13.824,5.115,2.825,11.374,3.097,17.144,4.517,5.771,1.43,11.838,4.91,12.531,10.35,.721,5.629-4.404,12.172-.328,16.439,1.253,1.316,3.108,1.973,4.713,2.924,4.135,2.443,6.572,6.982,6.572,11.493,.006,4.518-2.286,8.914-5.83,12.042-2.254,1.995-4.963,3.499-7.221,5.487-6.117,5.376-8.133,13.485-9.756,21.118-2.017,9.479-3.878,19.19-2.382,28.747,.495,3.165,1.194,6.858-1.206,9.17-2.823,2.724-8.074,1.402-10.83-1.377-2.746-2.782-3.955-6.531-6.073-9.748-3.98-6.052-11.028-9.986-15.073-16.004-9.661-14.395,1.098-34.496-7.345-49.524-1.76-3.134-4.289-5.876-5.969-9.044-3.343-6.293-2.978-14.121,.937-20.126,4.224-6.469,12.419-11.487,12.441-19.024,.019-8.312-10.15-13.985-11.489-22.207-.43-2.628,.09-5.339-.38-7.967-.544-3.02-2.363-5.703-4.206-8.263-.81-1.121-5.022-5.283-5.845-6.441,12.388-19.678,31.11-35.256,50.863-47.653,.352,.411,1.02,1.825,1.326,2.455,2.759,5.672,4.487,7.704,11.578,9.52,6.207,1.584,12.408,3.171,18.611,4.761,3.442,.877,7.645,2.665,7.447,5.941-.257,4.076-6.433,4.61-10.465,6.333-5.539,2.365-7.908,9.449-4.769,14.247h.006Z" style="fill:#619b53;"></path><path d="M149.92,235.839c1.284,2.405,1.751,5.157,2.774,7.685,1.024,2.529,2.867,5.012,5.542,5.568,2.084,.435,4.28-.426,5.904-1.804,1.623-1.377,2.771-3.223,3.828-5.07,2.075-3.628,3.912-7.389,5.496-11.255,.875-2.136,1.685-4.446,1.23-6.712-.402-2.011-1.747-3.687-3.105-5.225-1.883-2.137-3.952-4.227-6.574-5.345-3.757-1.602-8.081-.972-12.014,.13-3.241,.908-20.64,6.882-19.35,11.276,.504,1.723,7.508,3.233,9.12,4.113,2.913,1.59,5.566,3.662,7.156,6.639h-.007Z" style="fill:#619b53;"></path><path d="M372.948,301.409c-6.073,4.71-23.088-6.941-38.002-26.024-5.097-6.52-6.613-5.796-9.681-11.774,.114-.859,6.545-8.712,12.345-19.734,6.806,4.726,13.46,10.586,20.805,19.984,14.915,19.083,20.607,32.838,14.533,37.548Z" style="fill:#b23131;"></path><path d="M375.285,294.681c-.696,1.146-2.661,3.106-4.949,1.787-.136-.078-.248-.142-.339-.193-11.668-7.61-33.935-23.6-43.606-38.867-.727-1.147-.489-2.633,.501-3.559,1.88-1.758,.756-4.913-1.813-5.092l-34.387-2.391c-2.09-.145-3.937,1.347-4.233,3.42l-4.625,32.397c-.333,2.334,2.35,3.887,4.207,2.434,1.062-.831,2.604-.694,3.541,.277,27.528,28.53,45.39,36.132,55.368,37.877,5.369,.94,10.44-1.852,14.364-5.629,1.109-1.067,2.154-2.066,3.137-3.006,7.094-6.78,10.986-10.501,12.508-14.725-.368-.224-.773-.472-1.211-.745,.427,.263,.841,.517,1.211,.745,.281-.595,.597-3.084,.326-4.73Z" style="fill:#ff5f5f; fill-rule:evenodd;"></path><path d="M335.109,2.792c4.323,6.344-8.456,22.498-28.543,36.082-6.863,4.641-6.236,6.196-12.425,8.857,0,0-7.057-6.826-18.965-13.556,5.178-6.458,11.481-12.691,21.373-19.381,20.087-13.584,34.236-18.347,38.56-12.003Z" style="fill:#02112a;"></path><path d="M328.521,.033c1.101,.767,2.937,2.847,1.467,5.036-.087,.13-.159,.237-.215,.323-8.383,11.105-25.855,32.203-41.78,40.821-1.194,.646-2.661,.312-3.527-.735-1.645-1.991-4.871-1.073-5.219,1.485l-4.628,33.987c-.284,2.082,1.092,4.029,3.149,4.458l32.191,6.713c2.299,.48,4.007-2.088,2.676-4.024-.764-1.112-.532-2.64,.503-3.504,30.747-25.661,44.017-42.678,48.927-52.279,2.495-4.878,.58-10.297-3.381-14.087-10.395-9.949-20.693-15.506-25.447-17.563-.578-.318-3.05-.793-4.716-.631Zm4.716,.631c-.251,.353-.531,.746-.822,1.152,.301-.417,.575-.802,.822-1.152Z" style="fill:#002d75; fill-rule:evenodd;"></path><path d="M20.306,46.868c-2.349,7.302,14.488,19.205,37.608,26.586,7.9,2.522,7.739,4.19,14.43,5.002,0,0,4.835-8.534,14.351-18.338-6.797-4.739-14.611-8.946-25.997-12.581-23.12-7.382-38.043-7.971-40.393-.669Z" style="fill:#c48a33;"></path><path d="M25.846,42.368c-.84,1.045-2.011,3.557,.02,5.244,.12,.1,.219,.183,.298,.25,11.189,8.295,33.93,23.62,51.65,27.409,1.328,.284,2.641-.449,3.175-1.697,1.014-2.372,4.369-2.399,5.428-.044l14.074,31.304c.861,1.917,.094,4.171-1.758,5.161l-28.978,15.493c-2.07,1.107-4.438-.876-3.709-3.107,.418-1.282-.237-2.682-1.476-3.22C27.798,103.19,10.245,90.597,2.814,82.768c-3.775-3.977-3.473-9.712-.748-14.461,7.152-12.469,15.458-20.697,19.435-24.007,.465-.467,2.702-1.619,4.346-1.932Zm-4.346,1.932c.341,.268,.722,.566,1.117,.875-.407-.316-.78-.608-1.117-.875Z" style="fill:#f5af45; fill-rule:evenodd;"></path><path d="M305.449,66.54c.287,.199,.596,.316,.927,.351,.33,.035,.665-.013,1.005-.143,.339-.147,.67-.381,.992-.702,.504-.503,.77-.992,.796-1.469,.017-.485-.139-.893-.47-1.222-.261-.26-.557-.399-.888-.416-.33-.017-.7,.056-1.109,.221-.4,.156-.844,.364-1.331,.624-.453,.243-.909,.472-1.371,.689-.461,.217-.922,.373-1.383,.468-.461,.095-.918,.082-1.371-.039-.452-.139-.9-.429-1.344-.871-.557-.555-.896-1.161-1.018-1.82-.113-.667-.03-1.339,.248-2.015,.278-.676,.731-1.326,1.357-1.95,.531-.529,1.088-.927,1.671-1.196,.574-.277,1.153-.412,1.736-.403,.583-.009,1.157,.13,1.723,.416l-1.188,2.067c-.235-.147-.496-.217-.783-.208-.287,.009-.574,.078-.861,.208-.296,.121-.566,.303-.81,.546-.269,.251-.47,.529-.6,.832-.131,.303-.178,.602-.144,.897,.035,.295,.161,.55,.379,.767,.244,.243,.513,.364,.809,.364,.287-.009,.605-.082,.953-.221,.339-.147,.709-.325,1.109-.533,.47-.26,.957-.503,1.462-.728,.496-.234,1.001-.399,1.514-.494,.505-.104,1.005-.091,1.501,.039,.505,.121,.996,.42,1.475,.897,.505,.503,.84,1.079,1.005,1.729,.174,.641,.143,1.322-.092,2.041-.234,.719-.713,1.439-1.435,2.158-.592,.589-1.218,1.04-1.88,1.352-.652,.303-1.3,.446-1.944,.429-.653-.026-1.258-.221-1.815-.585l1.175-2.08Z" style="fill:#fff;"></path><path d="M305.003,53.411l1.67-1.664,3.511,3.497c-.017-.416,.057-.836,.222-1.261,.165-.442,.435-.849,.809-1.222,.496-.494,1.036-.815,1.619-.962,.591-.156,1.196-.126,1.814,.091,.609,.208,1.218,.615,1.827,1.222l3.811,3.796-1.762,1.755-3.589-3.575c-.505-.503-.983-.78-1.436-.832-.452-.052-.878,.121-1.279,.52-.409,.407-.583,.858-.522,1.352,.061,.477,.344,.967,.849,1.469l3.524,3.51-1.671,1.664-9.397-9.361Z" style="fill:#fff;"></path><path d="M325.642,51.573l-.926-.663c.052,.485,.017,.945-.105,1.378-.113,.425-.4,.867-.861,1.326-.435,.433-.892,.741-1.37,.923-.479,.165-.945,.204-1.397,.117-.461-.095-.879-.329-1.253-.702-.548-.546-.805-1.192-.77-1.937,.035-.763,.405-1.59,1.109-2.483l1.449-1.807-.457-.455c-.182-.182-.435-.269-.757-.26-.322,.009-.661,.191-1.018,.546-.313,.312-.509,.663-.587,1.053-.078,.373-.004,.75,.222,1.131l-1.958,.91c-.409-.754-.526-1.53-.352-2.327,.174-.797,.617-1.551,1.331-2.262,.87-.867,1.74-1.3,2.61-1.3,.87-.017,1.658,.325,2.363,1.027l4.268,4.251-1.541,1.534Zm-2.962-2.691l-1.227,1.586c-.252,.321-.383,.624-.392,.91-.017,.277,.07,.511,.261,.702,.183,.182,.414,.264,.692,.247,.27-.026,.54-.173,.809-.442,.305-.303,.505-.615,.601-.936,.104-.329,.104-.659,0-.988-.105-.329-.318-.654-.64-.975l-.104-.104Z" style="fill:#fff;"></path><path d="M322.188,42.013l1.514-1.508,.952,.715c-.043-.407-.021-.793,.066-1.157,.087-.381,.243-.737,.47-1.066,.217-.338,.513-.624,.887-.858l1.566,1.56c-.313,.156-.583,.381-.809,.676-.217,.286-.365,.615-.444,.988-.069,.364-.039,.758,.092,1.183,.13,.407,.404,.819,.822,1.235l3.08,3.068-1.67,1.664-6.526-6.501Z" style="fill:#fff;"></path><path d="M336.598,40.842c-.652,.65-1.37,1.079-2.153,1.287-.783,.208-1.571,.195-2.363-.039-.783-.243-1.509-.698-2.179-1.365-.644-.641-1.079-1.344-1.305-2.106-.227-.763-.24-1.521-.04-2.275,.201-.771,.61-1.465,1.227-2.08,.627-.624,1.314-1.04,2.062-1.248,.749-.208,1.497-.199,2.245,.026,.749,.208,1.445,.633,2.089,1.274,.095,.095,.195,.212,.3,.351,.104,.121,.213,.256,.326,.403l-4.49,4.472c.314,.243,.64,.394,.979,.455,.34,.043,.67,.017,.992-.078,.322-.113,.618-.303,.888-.572,.322-.321,.543-.672,.665-1.053,.122-.399,.131-.763,.026-1.092l1.932-1.04c.296,.815,.335,1.634,.118,2.457-.209,.815-.649,1.556-1.319,2.223Zm-2.767-5.227c-.252-.234-.535-.386-.848-.455-.322-.078-.635-.069-.94,.026-.313,.087-.591,.251-.835,.494-.218,.217-.366,.477-.444,.78-.078,.303-.091,.62-.039,.949,.052,.312,.183,.615,.392,.91l2.714-2.704Z" style="fill:#fff;"></path><path d="M296.517,263.162c.628-.74,1.327-1.307,2.097-1.701,.778-.404,1.579-.636,2.404-.696,.832-.07,1.652,.027,2.46,.291,.818,.271,1.579,.703,2.283,1.297,1.015,.855,1.706,1.854,2.072,2.998,.384,1.142,.392,2.329,.024,3.56l-1.986-.879c.127-.567,.139-1.103,.035-1.607-.094-.497-.272-.952-.533-1.365-.262-.413-.576-.774-.942-1.083-.602-.506-1.26-.813-1.977-.918-.708-.115-1.412-.026-2.112,.267-.691,.301-1.322,.789-1.894,1.462-.572,.674-.95,1.375-1.133,2.104-.166,.727-.138,1.433,.086,2.119,.223,.686,.636,1.283,1.237,1.789,.376,.317,.794,.573,1.256,.77,.479,.195,.998,.286,1.556,.275,.558-.012,1.148-.157,1.771-.435l1.195,1.753c-1.271,.68-2.524,.941-3.759,.783-1.228-.167-2.363-.69-3.406-1.569-.705-.594-1.259-1.27-1.663-2.027-.395-.75-.627-1.54-.697-2.369-.069-.829,.027-1.655,.29-2.477,.271-.831,.716-1.612,1.336-2.342Z" style="fill:#fff;"></path><path d="M306.522,280.188c-.686-.578-1.173-1.238-1.463-1.979-.281-.751-.35-1.523-.207-2.318,.16-.796,.55-1.559,1.17-2.289,.628-.74,1.327-1.25,2.098-1.532,.78-.274,1.566-.326,2.357-.157,.8,.159,1.537,.524,2.214,1.094,.676,.57,1.16,1.234,1.451,1.993,.298,.749,.377,1.53,.235,2.342-.133,.802-.51,1.569-1.13,2.299-.627,.739-1.336,1.242-2.126,1.508-.78,.273-1.575,.326-2.383,.159-.792-.169-1.53-.543-2.216-1.12Zm1.357-1.627c.291,.246,.628,.409,1.01,.49,.39,.072,.793,.034,1.208-.113,.424-.157,.83-.465,1.22-.924,.373-.44,.603-.872,.69-1.297,.094-.434,.07-.832-.074-1.194-.127-.363-.34-.672-.641-.925-.291-.245-.627-.4-1.008-.464-.364-.066-.748-.012-1.152,.161-.388,.171-.776,.486-1.165,.945-.374,.44-.617,.869-.731,1.287-.105,.409-.099,.791,.018,1.147,.125,.346,.333,.642,.625,.887Z" style="fill:#fff;"></path><path d="M317.596,277.308l1.635,1.378-.481,.823c.44-.063,.879-.03,1.318,.099,.456,.127,.872,.349,1.248,.666,.554,.467,.925,.979,1.111,1.538,.196,.566,.207,1.161,.032,1.785-.157,.622-.514,1.26-1.07,1.915l-3.481,4.1-1.818-1.532,3.278-3.861c.461-.543,.698-1.041,.713-1.494,.014-.454-.195-.863-.627-1.227-.442-.372-.899-.516-1.372-.433-.456,.081-.915,.393-1.376,.936l-3.265,3.847-1.804-1.52,5.959-7.02Z" style="fill:#fff;"></path><path d="M325.496,283.964l1.635,1.377-.481,.823c.44-.062,.879-.029,1.318,.099,.456,.128,.872,.35,1.248,.666,.554,.467,.925,.98,1.111,1.538,.196,.567,.207,1.162,.032,1.785-.157,.622-.514,1.261-1.07,1.916l-3.481,4.099-1.818-1.531,3.278-3.861c.461-.543,.698-1.041,.713-1.495,.014-.453-.195-.862-.627-1.226-.442-.372-.899-.517-1.372-.434-.456,.082-.915,.394-1.376,.937l-3.265,3.846-1.804-1.519,5.959-7.02Z" style="fill:#fff;"></path><path d="M330.552,300.433c-.704-.594-1.193-1.271-1.467-2.031-.273-.76-.325-1.543-.157-2.348,.177-.798,.572-1.557,1.184-2.278,.588-.692,1.254-1.182,1.998-1.471,.744-.288,1.502-.364,2.273-.228,.788,.134,1.516,.483,2.183,1.045,.677,.57,1.15,1.217,1.421,1.943,.27,.725,.324,1.469,.161,2.23-.146,.761-.513,1.487-1.101,2.18-.088,.103-.196,.212-.326,.327-.113,.114-.238,.233-.376,.357l-4.848-4.084c-.217,.331-.342,.668-.374,1.009-.015,.341,.038,.667,.16,.979,.14,.31,.355,.588,.647,.833,.347,.293,.717,.484,1.109,.573,.409,.088,.774,.066,1.094-.065l1.202,1.831c-.791,.361-1.607,.469-2.449,.321-.832-.139-1.61-.514-2.334-1.123Zm4.999-3.182c.213-.27,.341-.564,.384-.88,.051-.326,.017-.637-.104-.931-.113-.304-.301-.566-.564-.788-.235-.198-.507-.323-.817-.376-.31-.052-.628-.039-.953,.041-.308,.077-.6,.232-.878,.464l2.932,2.47Z" style="fill:#fff;"></path><path d="M338.34,306.994c-.686-.578-1.16-1.235-1.423-1.969-.262-.735-.312-1.492-.151-2.271,.17-.788,.557-1.538,1.161-2.249,.611-.721,1.293-1.23,2.046-1.527,.752-.298,1.522-.379,2.31-.245,.789,.134,1.526,.49,2.212,1.068,.742,.626,1.245,1.362,1.508,2.21,.273,.856,.264,1.692-.025,2.507l-2.083-.935c.118-.367,.113-.74-.015-1.121-.119-.373-.343-.698-.671-.975-.329-.277-.692-.438-1.089-.483-.387-.038-.778,.034-1.174,.215-.385,.188-.749,.484-1.091,.886-.516,.609-.775,1.217-.776,1.826-.002,.609,.251,1.128,.759,1.555,.319,.269,.674,.44,1.064,.512,.398,.062,.778,.013,1.14-.148l1.258,1.879c-.77,.394-1.606,.525-2.508,.391-.892-.125-1.71-.501-2.452-1.126Z" style="fill:#fff;"></path><path d="M349.373,304.08l1.669-1.965,1.832,1.543-1.668,1.966,1.55,1.306-1.347,1.586-1.55-1.306-2.42,2.85c-.31,.365-.453,.686-.43,.962,.033,.284,.162,.53,.389,.737,.237,.216,.493,.407,.769,.576l-1.311,1.544c-.512-.27-.959-.599-1.34-.984-.372-.378-.643-.791-.811-1.237-.161-.457-.176-.951-.046-1.484,.139-.525,.455-1.077,.948-1.658l2.42-2.85-1.001-.843,1.347-1.586,1,.843Z" style="fill:#fff;"></path><path d="M36.559,72.125l-5.208,9.464,5.05,2.758-1.003,1.822-7.235-3.951,6.211-11.286,2.185,1.193Z" style="fill:#fff;"></path><path d="M40.371,89.031c-.809-.442-1.424-1.008-1.844-1.699-.42-.691-.628-1.447-.624-2.27,.014-.817,.25-1.639,.705-2.467,.438-.795,.992-1.408,1.664-1.838,.672-.43,1.399-.655,2.182-.675,.8-.025,1.582,.172,2.348,.59,.777,.424,1.37,.965,1.78,1.622,.41,.657,.611,1.375,.604,2.154,.009,.774-.205,1.558-.643,2.354-.065,.118-.15,.247-.254,.385-.088,.134-.187,.275-.297,.425l-5.568-3.04c-.146,.368-.201,.722-.164,1.063,.053,.337,.171,.646,.353,.927,.199,.276,.465,.506,.8,.689,.399,.218,.8,.332,1.201,.341,.418,.005,.772-.089,1.06-.281l1.543,1.556c-.702,.511-1.481,.778-2.335,.801-.844,.029-1.681-.184-2.512-.638Zm4.262-4.11c.155-.307,.222-.62,.201-.939-.015-.33-.111-.627-.288-.891-.171-.275-.408-.495-.71-.66-.27-.147-.562-.216-.876-.206-.314,.01-.623,.086-.926,.228-.286,.137-.542,.347-.767,.629l3.367,1.839Z" style="fill:#fff;"></path><path d="M50.575,94.456l.379-1.072c-.453,.186-.906,.281-1.357,.286-.441,.011-.947-.14-1.519-.452-.54-.295-.964-.645-1.274-1.052-.293-.411-.461-.846-.504-1.302-.037-.468,.071-.933,.326-1.395,.373-.677,.923-1.104,1.651-1.279,.745-.18,1.646-.059,2.704,.365l2.147,.879,.311-.564c.124-.226,.137-.491,.039-.797-.099-.305-.369-.579-.811-.821-.389-.212-.782-.301-1.179-.267-.381,.029-.724,.206-1.028,.529l-1.425-1.617c.612-.602,1.327-.932,2.144-.989s1.668,.156,2.553,.639c1.079,.589,1.74,1.3,1.984,2.132,.26,.827,.151,1.676-.328,2.547l-2.901,5.272-1.91-1.043Zm1.764-3.587l-1.872-.729c-.38-.151-.709-.191-.987-.119-.272,.061-.473,.209-.603,.446-.124,.226-.139,.469-.044,.731,.101,.25,.318,.467,.653,.65,.378,.206,.734,.31,1.07,.311,.347,.008,.664-.084,.952-.276,.288-.192,.542-.487,.761-.885l.071-.129Z" style="fill:#fff;"></path><path d="M58.82,88.475l1.878,1.025-.422,1.111c.38-.156,.758-.243,1.133-.262,.392-.023,.778,.027,1.159,.151,.387,.113,.745,.316,1.076,.608l-1.065,1.935c-.238-.256-.531-.451-.878-.584-.337-.128-.696-.178-1.077-.148-.37,.035-.742,.175-1.114,.419-.356,.239-.676,.616-.96,1.132l-2.094,3.805-2.072-1.131,4.437-8.062Z" style="fill:#fff;"></path><path d="M64.968,91.832l1.878,1.025-.307,.902c.419-.149,.856-.204,1.311-.164,.472,.034,.924,.169,1.356,.405,.637,.347,1.102,.776,1.397,1.286,.305,.517,.435,1.098,.388,1.743-.03,.641-.252,1.337-.666,2.09l-2.591,4.708-2.088-1.14,2.44-4.434c.343-.624,.476-1.159,.4-1.606-.077-.448-.363-.807-.859-1.078-.507-.277-.984-.328-1.432-.152-.43,.17-.817,.567-1.16,1.19l-2.431,4.418-2.072-1.132,4.437-8.061Z" style="fill:#fff;"></path></svg> 