<svg width="357" height="304" viewBox="0 0 357 304" fill="none" xmlns="http://www.w3.org/2000/svg">
<g clip-path="url(#clip0_2435_239208)">
<path opacity="0.14" d="M341.661 294.526C341.653 297.316 269.962 300.339 187.371 300.082C104.779 299.829 37.8318 297.36 37.8398 294.566C37.8479 291.775 104.811 289.716 187.403 289.973C269.994 290.226 341.673 291.731 341.661 294.522V294.526Z" fill="#32323F"/>
<path d="M84.3796 127.548C81.6484 121.454 80.3952 114.713 80.7366 108.053" stroke="#619B53" stroke-width="4.03" stroke-linecap="round" stroke-linejoin="round"/>
<path d="M84.383 127.557V127.549H84.3749C79.9206 121.466 75.7675 115.163 71.8916 108.691" stroke="#619B53" stroke-width="4.03" stroke-linecap="round" stroke-linejoin="round"/>
<path d="M84.3832 127.552C84.3631 127.524 84.4033 127.58 84.3832 127.552C71.0765 126.099 58.1232 121.08 47.5116 112.922C36.9 104.764 28.6019 93.6354 23.9668 80.8203C30.8069 88.3038 37.6832 95.8234 45.5837 102.179C51.4679 106.912 57.8662 110.959 64.2484 114.994C70.9922 119.257 79.6839 121.449 84.3872 127.552H84.3832Z" fill="#619B53"/>
<path d="M84.3789 127.548C84.5556 118.788 87.6403 110.442 92.6007 103.215C97.5611 95.9886 104.666 90.2515 112.78 86.9313C115.427 85.8473 118.242 85.0083 121.102 85.1287C123.962 85.2492 126.882 86.4576 128.569 88.6978C119.7 88.7299 111.117 92.6684 104.453 98.5179C97.7901 104.367 92.91 112.023 89.2389 120.093C87.9697 122.883 86.5036 125.441 84.3829 127.548H84.3789Z" fill="#619B53"/>
<path d="M72.306 96.4384C73.9207 88.963 74.0974 84.5829 70.4263 83.1376C71.8883 79.7411 72.3984 75.9472 71.8562 72.3339C71.7598 71.7036 71.4666 69.7886 69.9082 69.1382C69.6069 69.0138 69.2896 68.9535 68.9643 68.9495C69.6109 65.7779 70.3379 61.9077 69.3017 58.3386C68.9442 57.106 68.4341 56.1827 67.7392 55.5162C67.0484 54.8578 66.1567 54.4884 65.2932 54.4684C65.6667 52.1197 65.7069 49.743 65.4097 47.3783C65.1165 45.0458 64.1766 43.5884 62.7025 43.1749C62.3933 43.0866 62.0679 43.0545 61.7345 43.0745C61.9755 40.1357 61.7546 37.205 61.0678 34.3385C60.8991 33.6198 60.381 31.4278 58.5575 30.8215C57.5011 30.4763 56.2279 30.8015 55.3162 31.6486C54.4606 32.4315 54.0228 33.5034 53.7658 34.2421C53.0147 36.394 52.8179 38.7828 53.1794 41.0832C53.1272 41.0832 53.0709 41.0832 53.0187 41.0953C51.7897 41.2518 50.6972 42.2716 50.2955 43.6286C49.9501 44.7969 50.1148 45.9852 50.3236 46.9929C50.8739 49.6868 52.0106 52.2723 53.6252 54.5446C52.6853 54.9863 51.9664 55.9378 51.7334 57.098C51.5045 58.2181 51.7254 59.3302 51.9423 60.1693C52.7576 63.361 54.5169 66.3279 56.9308 68.6243C56.6898 68.8853 56.485 69.1944 56.3323 69.5357C55.9708 70.3386 55.9146 71.2058 55.9106 71.9525C55.8985 74.2128 56.3725 76.4571 57.2883 78.5447C56.6737 78.4685 56.1074 78.5568 55.5893 78.8258C54.6615 79.3075 54.055 80.3514 54.0068 81.5397C53.9626 82.5434 54.2919 83.4748 54.6213 84.2497C55.5612 86.4618 56.979 88.5093 58.7222 90.1714C60.0074 91.404 61.2686 92.227 62.582 92.6927C63.1283 92.8854 63.6785 93.0058 64.2288 93.0661C64.2489 93.5599 64.2971 94.0457 64.3654 94.5274C64.3493 94.5274 64.3292 94.5194 64.3131 94.5194C62.8391 94.3307 61.4373 95.0293 60.9112 96.2176C60.4774 97.1691 60.6782 98.2089 60.8991 99.0079C61.4052 100.839 62.3491 102.469 63.0399 103.657L63.1162 103.789C64.281 105.805 65.9398 107.535 67.92 108.796C68.8799 109.398 70.7155 110.277 72.2779 109.406C72.3542 109.366 72.4265 109.326 72.4868 109.282C72.5109 109.266 72.535 109.245 72.5591 109.229C73.3182 108.679 73.7921 107.716 73.8323 106.648C73.8684 105.737 73.5993 104.873 73.3302 104.151C72.7157 102.493 71.8682 100.935 70.8079 99.5097C71.5469 98.6425 72.1052 97.3859 72.306 96.4425V96.4384Z" fill="#F5AF45"/>
<path d="M95.2688 48.7078C94.1683 48.5914 93.0919 49.1776 92.0637 50.4542C90.9109 51.8875 90.0273 53.5536 89.469 55.3281C88.8304 54.9869 88.1194 54.8584 87.4487 54.9949C86.2317 55.2519 85.2838 56.3037 84.7174 58.0341C83.9182 60.4871 83.8338 63.201 84.4644 65.7464C84.364 65.8227 84.2636 65.907 84.1672 65.9953C83.2032 66.9107 82.4762 68.2074 82.3557 69.2272C82.2312 70.3031 82.1188 71.3188 82.0545 72.3105C81.1548 71.4313 80.1467 71.1261 79.267 71.5035C78.4637 71.8448 78.0862 72.6156 77.8733 73.1576C77.2307 74.7836 77.3351 76.5019 77.4958 77.8147C77.7649 79.9706 78.524 82.0623 79.6888 83.893C79.6285 83.9733 79.5723 84.0536 79.5281 84.1379C78.1705 86.619 77.6283 89.5779 77.9858 92.4163C76.8049 92.4645 75.6482 93.2192 75.0176 94.3996C74.4432 95.4715 74.2906 96.7482 74.391 97.4789C74.7766 100.313 75.8088 103.083 77.3873 105.484C77.7608 106.05 78.1384 106.472 78.54 106.781C78.7047 107.664 79.1465 108.174 79.5723 108.463C80.2189 108.905 81.1026 108.993 81.938 108.704C82.2714 108.588 82.5726 108.423 82.8417 108.242C83.147 108.038 83.4161 107.809 83.637 107.604C85.1271 106.247 86.3803 104.505 87.7017 101.955C88.2439 100.911 88.8263 99.679 88.8464 98.3139C88.8705 96.7 87.9708 95.2266 86.6614 94.7368C86.1272 94.5361 85.5408 94.4799 84.9625 94.5361C85.581 92.7415 86.2477 90.4571 86.3241 88.0924C86.3522 87.3577 86.304 86.7033 86.1915 86.1132C86.2076 86.1132 86.2277 86.1132 86.2437 86.1132C87.1515 86.0048 87.9387 85.5752 88.6576 85.1255C88.8585 84.9971 89.0593 84.8686 89.2561 84.7361C91.3407 83.3349 93.1481 81.6166 94.6342 79.6293C95.0078 79.1315 96.1404 77.618 95.6464 76.0562C95.1885 74.6109 93.598 74.0167 92.2243 74.0649C91.2563 74.097 90.2402 74.5708 89.3043 75.1931C89.6457 73.6915 89.8345 72.1499 89.8465 70.6283C89.9309 70.6403 90.0112 70.6524 90.0956 70.6564C90.9511 70.7006 91.7544 70.4436 92.4292 70.1867C93.5739 69.7491 94.6704 69.175 95.6906 68.4884C96.5943 67.8782 97.4418 67.1837 98.2009 66.4128C98.7351 65.8749 99.3938 65.1402 99.7472 64.1927C100.145 63.1288 100.057 62.0006 99.5022 61.1696C98.8957 60.2582 97.751 59.7484 96.4738 59.8006C97.4498 57.6326 97.992 55.3442 98.0322 53.0879C98.0442 52.297 98.0041 51.3736 97.6105 50.5265C97.1486 49.5028 96.2489 48.8042 95.2729 48.7078H95.2688Z" fill="#F5AF45"/>
<path d="M90.1914 55.9492C90.6895 56.5273 90.9706 57.262 91.1875 58.0008C91.5972 59.4461 91.7498 60.9516 91.6534 62.4451" stroke="white" stroke-width="1.61" stroke-linecap="round" stroke-linejoin="round"/>
<path d="M91.6494 62.4463C92.8423 61.4908 94.1718 60.7561 95.1759 60.3145" stroke="white" stroke-width="1.61" stroke-linecap="round" stroke-linejoin="round"/>
<path d="M88.2395 65.4162C87.5246 64.8381 86.4963 64.9023 85.6689 65.3319" stroke="white" stroke-width="1.61" stroke-linecap="round" stroke-linejoin="round"/>
<path d="M83.0938 73.9004C84.2465 75.7994 84.9574 77.9713 85.1502 80.1835" stroke="white" stroke-width="1.61" stroke-linecap="round" stroke-linejoin="round"/>
<path d="M88.0624 76.6895C86.8976 77.8015 85.8452 79.1023 85.1504 80.1823" stroke="white" stroke-width="1.61" stroke-linecap="round" stroke-linejoin="round"/>
<path d="M84.1663 82.9726C83.7807 82.6996 83.3389 82.5229 82.865 82.4868C82.1581 82.4386 81.4512 82.7959 80.9893 83.2014" stroke="white" stroke-width="1.61" stroke-linecap="round" stroke-linejoin="round"/>
<path d="M81.2183 94.7688C80.7725 93.8895 80.1178 92.9983 79.2422 92.6289" stroke="white" stroke-width="1.61" stroke-linecap="round" stroke-linejoin="round"/>
<path d="M83.2067 95.6992C81.4515 98.2285 80.2345 101.131 79.6602 104.154" stroke="white" stroke-width="1.61" stroke-linecap="round" stroke-linejoin="round"/>
<path d="M55.4404 42.7422C56.3281 43.8181 57.0872 44.9985 57.6977 46.2591" stroke="white" stroke-width="2.42" stroke-linecap="round" stroke-linejoin="round"/>
<path d="M60.6336 60.8362C59.742 59.0698 58.6053 57.4317 57.2598 55.9824" stroke="white" stroke-width="2.42" stroke-linecap="round" stroke-linejoin="round"/>
<path d="M60.6338 60.8355C60.7623 59.3059 61.2001 57.8003 61.9231 56.4393C62.3127 55.7127 62.8308 54.982 63.5618 54.6367" stroke="white" stroke-width="2.42" stroke-linecap="round" stroke-linejoin="round"/>
<path d="M63.6663 74.2681C62.9152 72.5016 61.9272 70.8395 60.7383 69.334" stroke="white" stroke-width="2.42" stroke-linecap="round" stroke-linejoin="round"/>
<path d="M63.666 74.2681C64.1118 72.891 64.7987 71.5903 65.7024 70.4541C66.096 69.9603 66.6182 69.4825 67.1805 69.1895" stroke="white" stroke-width="2.42" stroke-linecap="round" stroke-linejoin="round"/>
<path d="M62.9067 83.7072C61.6415 81.9287 60.1996 80.5637 58.585 79.4355" stroke="white" stroke-width="2.42" stroke-linecap="round" stroke-linejoin="round"/>
<path d="M64.9355 87.2858C65.3573 85.8646 65.8754 84.8489 66.1244 84.4394C66.6586 83.5882 67.5905 82.8495 68.5544 82.8535" stroke="white" stroke-width="2.42" stroke-linecap="round" stroke-linejoin="round"/>
<path d="M69.0042 98.5909C68.1727 97.5631 67.2289 96.6237 66.1846 95.8047" stroke="white" stroke-width="2.42" stroke-linecap="round" stroke-linejoin="round"/>
<path fill-rule="evenodd" clip-rule="evenodd" d="M92.5566 123.06C70.2408 89.8622 36.4499 65.6855 0 49.3535C0.0240991 94.0135 18.4639 136.554 40.6271 175.187C48.9654 189.721 58.0065 204.086 70.0922 215.66C77.2938 222.557 99.5935 240.844 110.94 236.573C119.013 233.538 118.033 208.795 117.905 201.247C117.423 173.433 107.976 145.996 92.5606 123.06H92.5566Z" fill="#416F36"/>
<path fill-rule="evenodd" clip-rule="evenodd" d="M110.759 246.759C110.759 246.759 86.9049 144.239 30.0029 81.7051C69.7544 119.66 104.71 154.035 116.483 244.266C128.255 334.497 110.759 246.759 110.759 246.759Z" fill="#619B53"/>
<path d="M172.413 150.849C172.734 150.849 173.039 150.893 173.336 150.974L206.991 117.33L209.489 119.827L180.871 148.436C193.194 159.886 210.136 163.632 225.479 159.678L219.956 165.198H221.679V175.869H215.522V166.543C214.831 166.571 214.14 166.587 213.453 166.587C200.364 166.587 187.274 161.805 177.064 152.246L175.839 153.471C175.919 153.764 175.963 154.073 175.963 154.394C175.963 156.353 174.373 157.939 172.417 157.939C170.461 157.939 168.87 156.353 168.87 154.394C168.87 152.435 170.461 150.849 172.417 150.849" fill="#B2B2B2"/>
<path d="M156.933 185.096H278.176C280.156 185.096 281.759 186.698 281.759 188.677C281.759 190.656 280.156 192.258 278.176 192.258H156.933C154.957 192.258 153.351 190.656 153.351 188.677C153.351 186.698 154.957 185.096 156.933 185.096Z" fill="#D2D2D2"/>
<path d="M225.479 159.683C233.48 157.619 241.051 153.468 247.305 147.213C256.346 138.176 261.327 126.156 261.327 113.373C261.327 100.59 256.346 88.5737 247.305 79.5325L251.113 75.7266C261.174 85.7835 266.713 99.1526 266.713 113.373C266.713 127.593 261.174 140.962 251.113 151.019C242.1 160.028 230.632 165.127 218.84 166.315L225.479 159.679V159.683Z" fill="#D2D2D2"/>
<path d="M211.1 113.228L251.474 72.8714C252.164 72.1809 253.281 72.1809 253.972 72.8714C254.663 73.562 254.663 74.678 253.972 75.3686L213.598 115.725L211.1 113.228Z" fill="#F3F3F3"/>
<path d="M198.52 178.499H203.215V175.508H233.986V178.499H238.681C241.047 178.499 242.963 180.418 242.963 182.778V185.38H194.234V182.778C194.234 180.414 196.15 178.499 198.516 178.499" fill="#D2D2D2"/>
<path d="M229.255 175.508V178.499H232.163C234.151 178.499 235.766 180.113 235.766 182.1V185.38H230.006V182.1C230.006 180.113 228.395 178.499 226.403 178.499H226.19H224.098V175.508H229.259H229.255Z" fill="#F3F3F3"/>
<path d="M200.449 178.499H205.224V175.508H214.567V178.499H211.357H211.145C209.156 178.499 207.542 180.113 207.542 182.1V185.38H196.842V182.1C196.842 180.113 198.452 178.499 200.445 178.499" fill="#B2B2B2"/>
<path d="M250.426 72.8712C250.426 74.8304 252.012 76.4162 253.972 76.4162C255.932 76.4162 257.519 74.8264 257.519 72.8712C257.519 70.916 255.932 69.3262 253.972 69.3262C252.012 69.3262 250.426 70.916 250.426 72.8712Z" fill="#D2D2D2"/>
<path d="M254.435 113.706C254.435 121.177 252.418 128.179 248.896 134.193C242.923 144.406 232.617 151.777 220.503 153.793C218.84 154.07 217.145 154.246 215.422 154.315C214.876 154.335 214.326 154.347 213.776 154.347C191.319 154.347 173.112 136.152 173.112 113.706C173.112 112.867 173.136 112.036 173.189 111.208C173.369 108.217 173.875 105.311 174.671 102.529C176.84 94.9327 181.165 88.2442 186.941 83.1695C188.636 81.6801 190.452 80.3311 192.376 79.1387C192.48 79.0745 192.58 79.0103 192.685 78.946C193.167 78.653 193.657 78.3719 194.151 78.0989C194.649 77.8219 195.155 77.5569 195.669 77.304C201.119 74.5901 207.269 73.0645 213.776 73.0645C216.009 73.0645 218.202 73.2451 220.339 73.5944C223.307 74.0762 226.166 74.8791 228.882 75.9631C229.605 76.2522 230.316 76.5613 231.018 76.8905C231.079 76.9186 231.139 76.9467 231.199 76.9748C231.436 77.0872 231.673 77.1996 231.906 77.3201C233.223 77.9785 234.505 78.7052 235.738 79.5001C236.545 80.022 237.336 80.568 238.104 81.1421C238.132 81.1622 238.16 81.1823 238.188 81.2063C239.795 82.4108 241.305 83.7356 242.715 85.1609C244.675 87.1482 246.434 89.3362 247.956 91.6888C248.382 92.3432 248.787 93.0097 249.169 93.6922C252.266 99.1482 254.137 105.395 254.403 112.052C254.423 112.602 254.435 113.156 254.435 113.71V113.706Z" fill="#BCE0FF"/>
<path d="M224.262 140.48C224.78 142.901 224.869 144.543 224.178 145.234C223.487 145.924 220.547 148.434 220.977 149.726C221.41 151.023 221.238 152.838 220.716 153.528C220.655 153.604 220.591 153.697 220.515 153.793C218.852 154.07 217.157 154.247 215.434 154.315C215.438 153.914 215.47 153.48 215.482 153.054C215.518 151.702 212.325 148.518 212.064 146.354C211.803 144.194 211.98 139.268 209.558 138.489C207.136 137.71 205.256 136.967 204.714 135.984C203.979 134.643 200.822 135.121 199.914 131.837C198.669 127.328 201.34 126.822 200.476 125.959C199.613 125.096 200.565 123.622 198.922 123.622C197.279 123.622 195.03 123.883 194.078 122.587C193.126 121.29 190.531 120.254 189.15 120.427C187.768 120.599 184.912 121.29 182.49 118.957C180.068 116.625 176.867 112.217 176.867 113.341C176.867 114.465 180.932 119.13 179.289 118.528C177.646 117.922 175.658 111.787 173.497 111.438C173.381 111.418 173.281 111.341 173.2 111.209C173.381 108.218 173.887 105.311 174.682 102.529C176.851 94.9331 181.177 88.2446 186.953 83.1699L187.595 82.7403C189.584 82.8247 191.833 81.7045 193.042 81.7045C194.251 81.7045 193.042 82.1341 194.082 83.1739C195.118 84.2097 195.725 84.1254 196.07 83.1739C196.416 82.2224 197.283 78.4205 198.231 80.0625C199.183 81.7045 198.492 83.9528 199.617 82.4834C200.741 81.014 204.2 77.1237 206.533 78.3362C208.867 79.5446 210.164 80.4078 209.646 81.7929C209.128 83.1779 209.128 84.7317 207.224 84.4707C205.32 84.2097 204.284 85.1612 203.939 84.0371C203.593 82.913 201.517 84.2097 199.617 85.7675C197.713 87.3252 194.082 90.6935 196.416 91.1271C198.749 91.5607 200.219 92.3356 201.171 90.003C202.123 87.6704 202.553 85.6791 204.2 86.1127C205.842 86.5463 204.633 87.2369 206.622 86.8033C208.61 86.3697 208.176 85.2455 209.389 87.1485C210.598 89.0515 214.209 90.822 211.06 93.6885C207.14 97.2617 201.721 98.7029 200.986 101.758C200.589 103.412 201.432 104.006 199.01 105.905C196.588 107.808 197.801 111.353 196.677 111.353C195.552 111.353 195.64 109.539 194.17 109.884C192.7 110.229 188.379 109.45 187.599 112.389C186.82 115.328 187.166 118.528 188.379 118.355C189.592 118.182 190.801 115.589 191.58 116.886C192.359 118.182 191.146 118.961 193.05 118.789C194.954 118.616 195.644 119.652 196.424 121.21C197.203 122.763 197.633 122.245 199.191 122.073C200.745 121.9 203.774 118.616 207.75 119.222C211.731 119.824 214.237 118.877 215.534 120.431C216.832 121.984 218.647 123.109 220.551 123.109C222.455 123.109 227.383 122.675 228.592 125.441C230.215 129.147 227.728 132.443 228.158 134.001C228.592 135.554 223.748 138.063 224.266 140.484L224.262 140.48Z" fill="#619B53"/>
<path d="M254.446 113.706C254.446 121.177 252.43 128.179 248.907 134.193C248.289 132.788 247.268 131.086 245.875 130.367C243.541 129.158 246.308 123.883 244.059 121.378C241.81 118.869 240.284 119.909 240.517 115.846C240.597 114.4 238.095 115.93 237.143 114.806C236.191 113.682 231.877 118.291 225.985 116.018C221.43 114.26 221.113 110.747 220.856 108.326C220.595 105.905 222.008 104.608 223.165 102.882C224.326 101.152 225.467 97.2614 225.033 96.4866C224.603 95.7077 223.736 95.6234 223.217 93.8087C222.699 91.9941 226.158 91.8214 227.021 91.5605C227.885 91.2995 225.704 89.7699 225.981 88.6217C226.242 87.5457 226.993 87.2446 228.286 86.811C229.584 86.3774 231.17 83.8682 231.17 83.262C231.17 82.6558 232.688 81.3952 232.206 80.8411C231.343 79.8495 229.62 82.439 228.748 80.54C228.218 79.3798 229.716 78.0629 231.018 76.8906C231.078 76.9187 231.138 76.9468 231.198 76.9749C231.435 77.0873 231.672 77.1998 231.905 77.3202C233.223 77.9786 234.504 78.7053 235.737 79.5002C235.661 79.5885 235.58 79.6608 235.492 79.721C234.628 80.2831 235.492 80.6283 234.841 81.5357C234.195 82.443 233.456 82.3988 233.287 82.9167C233.114 83.4346 236.183 82.0536 236.962 81.7926C237.199 81.7163 237.661 81.4835 238.187 81.2024C239.794 82.4069 241.304 83.7317 242.714 85.157C244.674 87.1443 246.433 89.3323 247.955 91.6849C246.911 91.5605 245.493 91.0185 244.702 90.7375C243.489 90.3039 243.103 89.2239 242.714 89.7016C242.324 90.1754 242.28 90.6933 242.886 91.1269C243.493 91.5605 242.842 92.3353 242.497 92.6404C242.151 92.9415 240.509 90.5648 239.858 89.8743C239.211 89.1838 237.263 88.9228 236.311 88.6659C235.359 88.4049 235.448 88.71 235.749 89.1838C236.05 89.6575 238.99 90.3079 239.207 90.6973C239.424 91.0867 238.516 90.6531 238.516 91.171C238.777 91.432 238.516 92.9415 237.998 92.0784C237.48 91.2152 234.974 90.2637 234.195 90.0911C233.415 89.9184 232.206 90.352 230.736 91.3878C229.266 92.4236 228.921 95.0172 227.969 95.6234C227.017 96.2296 227.105 96.6632 228.23 96.7475C229.355 96.8318 232.379 94.6719 232.986 93.9814C233.592 93.2908 235.58 93.893 236.014 94.8445C236.448 95.796 238.52 95.796 241.031 96.1413C243.537 96.4866 241.894 95.6234 241.722 94.7562C241.545 93.893 247.256 95.3584 248.815 93.9773C248.943 93.8649 249.064 93.7646 249.176 93.6883C252.273 99.1443 254.145 105.391 254.41 112.048C254.43 112.598 254.442 113.152 254.442 113.706H254.446Z" fill="#416F36"/>
<path d="M81.4346 293.436C81.4346 293.436 87.8289 210.58 82.1857 207.777C76.5424 204.975 71.4013 213.442 68.9673 209.757C66.6217 206.208 83.487 127.386 23.7494 133.722C17.5519 134.38 11.6275 136.801 7.00852 140.976C2.16862 145.344 -1.50649 151.824 4.46607 159.745C15.8408 174.833 45.6233 217.951 39.1889 219.48C32.7584 221.01 26.9184 214.739 24.0305 220.721C21.1426 226.707 59.163 292.79 59.163 292.79L81.4346 293.436Z" fill="#B23131"/>
<path d="M64.7864 279.464C64.433 273.085 63.7984 266.733 62.8585 260.418C61.8664 254.115 60.6815 247.844 59.2075 241.641C56.3156 229.22 52.5561 217.011 48.1781 205.039C43.8122 193.055 38.655 181.388 33.4576 169.753C28.2281 158.127 22.6853 146.632 16.7891 135.287L16.9979 135.158C20.5485 140.494 23.818 146.006 26.9067 151.619C27.6778 153.024 28.453 154.425 29.1921 155.846C29.9472 157.259 30.6902 158.681 31.4172 160.106C32.1563 161.527 32.8672 162.964 33.5741 164.402C34.289 165.835 34.9919 167.276 35.6828 168.721C37.0644 171.612 38.3939 174.531 39.6752 177.47C40.9564 180.408 42.1614 183.379 43.3744 186.342C45.72 192.308 47.9371 198.326 50.0257 204.384C54.1909 216.505 57.7334 228.846 60.4004 241.376C61.7218 247.647 62.746 253.974 63.5815 260.318C64.3607 266.673 64.8346 273.06 65.0234 279.456L64.7784 279.464H64.7864Z" fill="#FF5F5F"/>
<path d="M82.2948 207.833C80.0938 212.759 78.0574 217.757 76.1857 222.812C74.2899 227.855 72.5347 232.945 71.0044 238.096C70.6228 239.385 70.2854 240.686 69.9239 241.978C69.7512 242.625 69.5665 243.271 69.4058 243.922L68.9439 245.881L68.466 247.832C68.2932 248.478 68.1366 249.129 67.992 249.783C67.6948 251.088 67.3735 252.385 67.0441 253.681C66.7148 254.978 66.4657 256.287 66.1565 257.592C66.0078 258.242 65.8392 258.892 65.7066 259.551C65.5941 260.209 65.4656 260.864 65.3331 261.522L64.9395 263.497L64.7306 264.485L64.582 265.481C64.3691 266.806 64.1562 268.138 63.8831 269.479L63.6381 269.471C63.5377 268.118 63.5015 266.753 63.4614 265.388L63.4453 264.361L63.4935 263.341L63.618 261.297C63.6582 260.615 63.7064 259.932 63.7626 259.25C63.8309 258.571 63.9353 257.897 64.0197 257.222C64.2205 255.873 64.3972 254.516 64.6382 253.175C65.6062 247.8 67.3935 242.633 69.1327 237.498C70.916 232.371 72.9122 227.329 75.049 222.354C75.5953 221.114 76.1335 219.873 76.7078 218.649C77.2702 217.416 77.8365 216.192 78.4269 214.971C79.5837 212.526 80.7967 210.109 82.0779 207.725L82.2988 207.833H82.2948Z" fill="#FF5F5F"/>
<path d="M84.0857 218.965C82.4027 223.53 80.7961 228.119 79.31 232.748C77.7958 237.365 76.378 242.006 75.1288 246.687C74.5022 249.028 73.944 251.38 73.4459 253.745L71.9156 260.803C71.3975 263.148 70.9436 265.504 70.5942 267.873C70.2608 270.246 70.0158 272.622 70.1001 275.063L69.8592 275.108C69.0719 272.751 68.8711 270.222 68.8711 267.749C68.8791 267.13 68.8872 266.508 68.9193 265.89L69.0478 264.035C69.1723 262.806 69.3169 261.578 69.5017 260.357C70.2206 255.468 71.771 250.79 73.2491 246.133C74.7473 241.476 76.4061 236.883 78.1573 232.335C79.9607 227.802 81.8123 223.293 83.8647 218.869L84.0897 218.965H84.0857Z" fill="#FF5F5F"/>
<path opacity="0.6" fill-rule="evenodd" clip-rule="evenodd" d="M249.703 34.6797L357 297.107H212.028L219.547 42.0668L249.703 34.6797Z" fill="#FFF2DA"/>
<path d="M122.645 109.558C121.782 110.345 120.685 110.79 119.565 110.814C118.034 110.846 116.6 110.124 115.624 108.835C114.777 107.711 114.375 106.286 114.5 104.836C114.624 103.379 115.259 102.066 116.283 101.135L225.773 1.67366C226.637 0.886767 227.733 0.441131 228.854 0.417042C230.38 0.384925 231.818 1.10758 232.79 2.40032C234.545 4.72084 234.248 8.17753 232.131 10.1006L122.641 109.562M231.316 3.73723C230.718 2.94231 229.834 2.50069 228.894 2.52077C228.195 2.53682 227.541 2.8018 226.998 3.29159L117.508 102.753C116.878 103.323 116.488 104.134 116.412 105.029C116.335 105.924 116.58 106.8 117.102 107.49C117.701 108.285 118.585 108.727 119.524 108.711C120.223 108.695 120.878 108.426 121.42 107.936L230.91 8.47864C232.212 7.29429 232.397 5.17049 231.316 3.74125" fill="#171F41"/>
<path d="M242.032 41.7292C240.815 46.4224 236.36 49.1444 232.083 47.8115C227.805 46.4746 225.323 41.5887 226.54 36.8954C227.757 32.2022 232.215 29.4802 236.493 30.8131C240.77 32.15 243.253 37.036 242.036 41.7292" fill="#FCB913"/>
<path d="M240.971 12.7746C239.272 12.2446 237.565 11.9275 235.87 11.807C235.846 11.3373 235.786 10.8595 235.67 10.3778L234.272 4.61261C233.501 1.42892 230.886 -0.57042 228.428 0.148218L224.596 1.26833C222.138 1.98295 220.772 5.14657 221.547 8.33025L222.945 14.0954C222.997 14.3082 223.058 14.513 223.126 14.7137C217.306 17.9897 212.687 23.799 210.755 31.2424C209.57 35.8192 209.546 40.4522 210.482 44.772L258.058 32.2942C256.049 23.2008 249.764 15.5166 240.975 12.7746" fill="#293374"/>
<path d="M125.44 181.156C125.44 184.34 123.079 186.933 120.175 186.933C117.271 186.933 114.909 184.34 114.909 181.156V106.064C114.909 102.881 117.275 100.287 120.175 100.287C123.075 100.287 125.44 102.877 125.44 106.064V181.156ZM123.525 106.064C123.525 104.041 122.022 102.391 120.175 102.391C118.327 102.391 116.829 104.041 116.829 106.064V181.156C116.829 183.179 118.331 184.829 120.175 184.829C122.022 184.829 123.525 183.183 123.525 181.156V106.064Z" fill="#42327A"/>
<path d="M120.175 158.939C106.012 158.939 94.5332 171.538 94.5332 187.075H145.82C145.82 171.538 134.341 158.939 120.179 158.939" fill="#2C2661"/>
<path d="M129.726 104.985C130.883 110.774 127.545 116.495 122.271 117.764C116.998 119.033 111.78 115.371 110.624 109.586C109.467 103.801 112.805 98.0797 118.078 96.8071C123.352 95.5344 128.569 99.1999 129.726 104.985Z" fill="#293374"/>
<path d="M77.7676 257.233V252.122H159.219L307.834 251.203C316.549 251.203 323.618 257.844 323.618 266.034V281.406C323.618 289.596 316.553 296.236 307.834 296.236L159.219 297.156H77.7676V292.334H85.0535V257.233H77.7676Z" fill="#FFC950"/>
<path d="M286.057 281.691V265.708C286.057 259.225 281.96 253.676 276.156 251.396L307.834 251.199C316.55 251.199 323.619 257.84 323.619 266.03V281.402C323.619 289.592 316.554 296.233 307.834 296.233L274.891 296.437C281.357 294.51 286.057 288.637 286.057 281.687V281.691Z" fill="#F48C45"/>
<path d="M180.94 252.364L180.386 262.589H182.88L183.382 252.283L180.94 252.364Z" fill="#F48C45"/>
<path d="M159.219 297.158H77.7676V292.337H85.0535V257.236H77.7676V252.125H159.219C159.219 252.125 173.59 274.652 159.219 297.162V297.158Z" fill="#F48C45"/>
<path d="M82.5518 257.232V292.422H154.202C160.894 281.498 160.89 268.598 154.198 257.293L82.5518 257.232Z" fill="#E7F2F2"/>
<path d="M152.403 259.292L82.5518 259.232V257.232L154.198 257.293C160.89 268.598 160.894 281.498 154.202 292.422H153.544C159.074 281.943 158.689 269.911 152.403 259.288V259.292Z" fill="#B1D5DE"/>
<g style="mix-blend-mode:multiply">
<path d="M110.554 276.938L108.582 292.422H106.184L105.478 297.16H112.446L110.554 276.938Z" fill="#B8C2C4"/>
</g>
<path d="M127.312 276.938L127.444 294.398C127.472 297.955 125.006 301.102 121.387 302.134L114.841 304.001L102.188 303.539L108.318 301.283C109.776 300.745 110.732 299.42 110.72 297.947L110.559 276.938H127.316H127.312Z" fill="#FF5F5F"/>
<path d="M77.2821 251.324L212.241 250.782C222.989 250.71 231.641 242.463 231.565 232.362C231.488 222.261 222.712 214.131 211.96 214.204L77.001 214.746C77.001 214.746 82.0939 220.716 83.7929 228.376C83.9013 228.857 85.4357 229.339 85.516 229.833C85.5521 230.066 84.1423 230.307 84.1705 230.544C84.2307 231.009 84.2709 231.475 84.299 231.949C84.3191 232.294 84.3311 232.639 84.3351 232.989C84.4114 242.768 77.2821 251.328 77.2821 251.328V251.324Z" fill="#B1D5DE"/>
<path d="M74.2858 252.824L209.245 252.282C220.849 252.202 230.219 243.269 230.135 232.365C230.05 221.461 220.543 212.657 208.94 212.733L73.9806 213.275C73.109 213.279 72.4061 213.949 72.4141 214.768C72.4222 215.587 73.1331 216.25 74.0047 216.242L208.964 215.7C218.824 215.632 226.905 223.119 226.978 232.385C227.05 241.651 219.085 249.243 209.225 249.311L74.2657 249.853C73.3942 249.857 72.6913 250.528 72.6993 251.347C72.7073 252.166 73.4183 252.828 74.2898 252.82L74.2858 252.824Z" fill="#CE4949"/>
<path d="M110.383 251.099L245.342 250.557C256.09 250.485 264.741 242.239 264.665 232.138C264.589 222.037 255.813 213.907 245.061 213.979L110.102 214.521C110.102 214.521 117.363 223.032 117.436 232.76C117.512 242.54 110.383 251.099 110.383 251.099Z" fill="#E7F2F2"/>
<path d="M253.812 215.865C260.194 218.832 264.608 224.987 264.66 232.133C264.709 238.3 261.495 243.772 256.543 247.12C254.953 243.551 253.752 239.115 253.438 233.647C252.908 224.397 253.262 219.001 253.808 215.865H253.812Z" fill="#B1D5DE"/>
<path d="M110.39 252.584L132.875 252.467L245.349 252.042C256.953 251.962 266.324 243.029 266.239 232.125C266.155 221.221 256.648 212.416 245.044 212.493L110.085 213.035C109.213 213.039 108.511 213.709 108.519 214.528C108.527 215.347 109.238 216.01 110.109 216.002L245.068 215.46C254.929 215.391 263.01 222.879 263.078 232.145C263.15 241.411 255.186 249.003 245.325 249.071L110.366 249.613C109.495 249.617 108.792 250.287 108.8 251.106C108.808 251.925 109.519 252.588 110.39 252.58V252.584Z" fill="#F25C5C"/>
<g style="mix-blend-mode:multiply">
<path d="M182.744 236.404L180.94 252.363H183.86L182.744 236.404Z" fill="#B8C2C4"/>
</g>
<path d="M116.058 229.538L231.239 229.133L116.074 231.943L116.058 229.538Z" fill="#B1D5DE"/>
<path d="M193.966 236.328L193.962 262.512L188.122 260.047L182.735 262.589L182.743 236.404L193.966 236.328Z" fill="#FFE164"/>
<path d="M149.213 211.156L149.029 186.943C148.402 186.947 147.888 186.473 147.884 185.883C147.88 185.293 148.386 184.811 149.012 184.807L286.847 183.875C295.206 183.819 302.058 190.162 302.118 198.019C302.178 205.876 295.427 212.312 287.068 212.368L149.233 213.299C148.607 213.303 148.093 212.83 148.089 212.24C148.085 211.649 148.591 211.168 149.217 211.164L149.213 211.156Z" fill="#002D75"/>
<path d="M265.09 212.508C273.448 212.452 280.2 205.868 280.14 198.011C280.083 190.539 273.914 184.537 266.118 184.007L271.765 183.967C280.124 183.911 286.867 190.154 286.928 198.011C286.988 205.868 280.493 212.404 272.135 212.46L265.09 212.508Z" fill="#4C87C2"/>
<path d="M59.5407 212.829L197.375 211.898C205.119 211.846 211.353 205.904 211.297 198.625C211.24 191.347 204.918 185.489 197.175 185.545L59.3398 186.477C59.3398 186.477 64.5693 192.607 64.6256 199.617C64.6778 206.663 59.5447 212.829 59.5447 212.829H59.5407Z" fill="#E7F2F2"/>
<path d="M190.451 199.071C190.451 199.071 105.855 198.922 82.4508 199.187C74.699 199.276 70.582 199.854 70.582 199.854C70.582 199.854 85.5235 200.645 108.578 200.761C130.492 200.873 159.733 200.347 190.451 199.071Z" fill="#B1D5DE"/>
<path d="M203.48 186.906C208.079 189.042 211.256 193.478 211.296 198.629C211.328 203.074 209.019 207.016 205.448 209.425C204.304 206.851 203.44 203.656 203.211 199.717C202.83 193.053 203.083 189.167 203.476 186.906H203.48Z" fill="#B1D5DE"/>
<path d="M59.5488 213.901L197.384 212.97C205.742 212.913 212.494 206.478 212.433 198.621C212.373 190.764 205.525 184.421 197.163 184.477L59.3279 185.408C58.6973 185.412 58.1952 185.894 58.1992 186.484C58.2033 187.074 58.7174 187.552 59.344 187.544L197.179 186.613C204.284 186.565 210.104 191.956 210.156 198.633C210.208 205.309 204.469 210.777 197.363 210.826L59.5287 211.757C58.8981 211.761 58.3961 212.243 58.4001 212.833C58.4041 213.423 58.9182 213.901 59.5448 213.893L59.5488 213.901Z" fill="#4C87C2"/>
<g style="mix-blend-mode:multiply">
<path d="M86.7283 199.469L83.3223 213.737H88.7124L86.7283 199.469Z" fill="#B8C2C4"/>
</g>
<path d="M95.6171 199.408L95.9665 245.377L91.3073 238.443L87.082 245.437L86.7285 199.468L95.6171 199.408Z" fill="#FF5F5F"/>
<path d="M194.532 269.088H301.106C301.66 269.088 302.114 269.55 302.114 270.112V276.407C302.114 276.969 301.66 277.431 301.106 277.431H194.532C193.977 277.431 193.523 276.969 193.523 276.407V270.112C193.523 269.55 193.977 269.088 194.532 269.088Z" fill="#FFF98D"/>
<path d="M127.312 276.938H130.248C130.248 276.938 128.452 276.275 125.729 276.223C123.006 276.171 110.555 276.938 110.555 276.938H127.312Z" fill="#B1D5DE"/>
<path d="M234.966 209.177C238.464 202.633 238.464 195.743 234.966 189.195C230.897 189.195 226.828 189.195 222.764 189.195C226.262 195.739 226.262 202.629 222.764 209.177C226.832 209.177 230.901 209.177 234.966 209.177Z" fill="#B1D5DE"/>
</g>
<defs>
<clipPath id="clip0_2435_239208">
<rect width="357" height="304" fill="white"/>
</clipPath>
</defs>
</svg>
